<svg width="176" height="30" viewBox="0 0 176 30" fill="none" xmlns="http://www.w3.org/2000/svg">
<g clip-path="url(#clip0_3330_5023)">
<path d="M14 9.3557C14.1586 9.35376 14.3158 9.38647 14.4605 9.45155C14.6052 9.51663 14.7339 9.61251 14.8377 9.7325C14.9415 9.85248 15.0178 9.99368 15.0614 10.1462C15.105 10.2988 15.1148 10.459 15.09 10.6157C15.09 10.6157 15.09 11.2757 14.03 11.4057H8.16C8.16 11.4057 7 11.3657 7 10.3457C7 10.3457 7 9.3457 8.29 9.3457L14 9.3557Z" fill="#E60012"/>
<path d="M14.0002 11.8057C14.1589 11.8038 14.316 11.8365 14.4607 11.9016C14.6054 11.9667 14.7341 12.0626 14.8379 12.1825C14.9417 12.3025 15.0181 12.4437 15.0617 12.5963C15.1052 12.7488 15.115 12.909 15.0902 13.0657C15.0902 13.0657 15.1702 13.7857 14.0002 13.8357H8.14022C8.14022 13.8357 6.94022 13.7557 7.00022 12.8357C7.00022 12.8357 7.00022 11.8357 8.29022 11.8357L14.0002 11.8057Z" fill="#E60012"/>
<path d="M14 14.355C14.1586 14.353 14.3158 14.3857 14.4605 14.4508C14.6052 14.5159 14.7339 14.6118 14.8377 14.7318C14.9415 14.8517 15.0178 14.9929 15.0614 15.1455C15.105 15.298 15.1148 15.4583 15.09 15.615C15.0481 15.8661 14.912 16.0917 14.7095 16.2459C14.5069 16.4002 14.2532 16.4713 14 16.445H8.14C8.14 16.445 7 16.295 7 15.335C7 15.335 7 14.335 8.29 14.335L14 14.355Z" fill="#E60012"/>
<path d="M14 16.8955C14.3114 16.9185 14.601 17.0641 14.8054 17.3003C15.0097 17.5365 15.112 17.844 15.09 18.1555C15.09 18.1555 15.03 18.8655 14 18.9455H8.14C8.14 18.9455 7 18.8355 7 17.9155C7 17.9155 7 16.9155 8.26 16.9155L14 16.8955Z" fill="#E60012"/>
<path d="M13.66 3.59548C13.66 3.59548 12.44 4.07548 13.16 5.79548L15.08 9.49548C15.2582 9.63363 15.3957 9.81739 15.4779 10.0273C15.5601 10.2372 15.5841 10.4654 15.5472 10.6878C15.5103 10.9102 15.4139 11.1185 15.2683 11.2906C15.1227 11.4627 14.9333 11.5923 14.72 11.6655C14.9702 11.7648 15.1858 11.9351 15.3404 12.1554C15.495 12.3758 15.5817 12.6365 15.59 12.9055C15.6055 13.1913 15.5255 13.4742 15.3626 13.7095C15.1996 13.9449 14.963 14.1194 14.69 14.2055C14.9622 14.2714 15.2018 14.4328 15.3651 14.6604C15.5284 14.8879 15.6047 15.1665 15.58 15.4455C15.5794 15.724 15.4939 15.9957 15.3349 16.2244C15.1759 16.4531 14.9509 16.6279 14.69 16.7255C14.9645 16.8358 15.1963 17.0315 15.3511 17.2835C15.5059 17.5356 15.5757 17.8308 15.55 18.1255C15.5489 18.3053 15.5114 18.4831 15.4396 18.648C15.3678 18.813 15.2633 18.9616 15.1325 19.085C15.0016 19.2084 14.8471 19.304 14.6782 19.3659C14.5093 19.4279 14.3297 19.455 14.15 19.4455H8.79004C8.79004 19.4455 8.99004 20.3755 10.68 20.2555H19.6C20.0344 20.2976 20.4678 20.1669 20.8066 19.8918C21.1453 19.6167 21.3621 19.2192 21.41 18.7855V15.2655C21.4719 14.4971 21.2355 13.7343 20.75 13.1355L15.52 4.25548C15.3561 3.92578 15.0705 3.67266 14.7234 3.54953C14.3764 3.42639 13.9951 3.44287 13.66 3.59548Z" fill="#E60012"/>
<path d="M8.27002 28.125H20.83C18.9073 29.0503 16.8037 29.5387 14.67 29.555C12.459 29.5412 10.2766 29.0536 8.27002 28.125Z" fill="#E60012"/>
<path d="M6.33021 27.0356H22.7102C23.4543 26.512 24.1474 25.9194 24.7802 25.2656H4.22021C4.89178 25.8925 5.59611 26.4833 6.33021 27.0356Z" fill="#E60012"/>
<path d="M3.30002 24.2455H13.24C11.0862 24.0674 9.0349 23.249 7.35002 21.8955H1.77002C2.15965 22.7509 2.67539 23.5431 3.30002 24.2455Z" fill="#E60012"/>
<path d="M25.73 24.2155H16C18.0562 23.9936 20.0061 23.1886 21.62 21.8955H27.37C26.9419 22.7462 26.3892 23.5282 25.73 24.2155Z" fill="#E60012"/>
<path d="M27.7801 20.9757H22.6001C23.4752 20.2955 24.1633 19.4044 24.6001 18.3857H28.6001C28.4232 19.2767 28.1482 20.1453 27.7801 20.9757Z" fill="#E60012"/>
<path d="M6.30016 20.9757H1.30016C0.951058 20.1313 0.653839 19.2664 0.410156 18.3857H4.25016C4.78927 19.354 5.48155 20.2287 6.30016 20.9757Z" fill="#E60012"/>
<path d="M0.269806 17.6752H3.87981C3.46049 16.7486 3.142 15.7797 2.92981 14.7852H-0.000194239C-0.00634785 15.7551 0.0840984 16.7232 0.269806 17.6752Z" fill="#E60012"/>
<path d="M26 14.7852H29.06C29.0495 15.753 28.9693 16.7188 28.82 17.6752H25C25.4936 16.775 25.8317 15.7979 26 14.7852Z" fill="#E60012"/>
<path d="M26.11 14.2754H29C29.0015 12.9981 28.785 11.7299 28.36 10.5254H26C26.2621 11.7586 26.2994 13.029 26.11 14.2754Z" fill="#E60012"/>
<path d="M0.71 10.5254H2.93C2.66261 11.7446 2.62868 13.0035 2.83 14.2354H0C0.0988523 12.9763 0.336973 11.732 0.71 10.5254Z" fill="#E60012"/>
<path d="M0.890137 9.98523H3.00014C3.3781 8.52015 3.99649 7.12792 4.83014 5.86523H3.23014C2.24134 7.109 1.45191 8.49893 0.890137 9.98523Z" fill="#E60012"/>
<path d="M24.1299 5.86523H25.8399C26.835 7.09966 27.6158 8.49233 28.1499 9.98523H25.8999C25.5903 8.5077 24.9885 7.10693 24.1299 5.86523Z" fill="#E60012"/>
<path d="M23.7299 5.35501H25.3299C24.012 3.79854 22.3672 2.55163 20.5127 1.70299C18.6581 0.854354 16.6393 0.424843 14.5999 0.445015C12.5328 0.433395 10.4872 0.865736 8.6016 1.71281C6.71596 2.55988 5.03416 3.80194 3.66992 5.35501H5.17992C6.33303 3.96638 7.77275 2.8435 9.40041 2.06333C11.0281 1.28316 12.8052 0.864145 14.6099 0.835015C16.3741 0.843265 18.113 1.25483 19.6937 2.03824C21.2744 2.82165 22.655 3.95616 23.7299 5.35501Z" fill="#E60012"/>
<path d="M41.4699 3.81543V5.21543H36.6999V8.21543H41.4699C41.4699 8.21543 40.3299 12.6954 35.8799 12.5054L37.3999 15.6254C38.6347 15.6193 39.8448 15.2785 40.9013 14.6393C41.9579 14.0001 42.8213 13.0864 43.3999 11.9954C43.8755 12.9737 44.5769 13.8248 45.4463 14.4786C46.3157 15.1323 47.3281 15.57 48.3999 15.7554L50.3999 12.8254C49.1749 12.6887 48.024 12.1699 47.1104 11.3424C46.1968 10.515 45.5669 9.42095 45.3099 8.21543H49.4399V5.21543H45.3499V3.81543H41.4699Z" fill="#004EA2"/>
<path d="M52.87 4.86523V9.06523H49.02V12.0552H52.92V17.3552H56.69V4.86523H52.87Z" fill="#004EA2"/>
<path d="M37.7798 16.0752H41.5598V20.6152H57.0698V23.7952H37.7798V16.0752Z" fill="#004EA2"/>
<path d="M67.96 3.10547V5.18547H59.27V8.19547H80.47V5.18547H71.82V3.10547H67.96Z" fill="#004EA2"/>
<path d="M76.4599 14.7253C76.3999 21.3353 69.9599 21.2953 69.9599 21.2953C62.9599 21.0953 63.0699 15.1453 63.0699 15.1453C63.0699 8.4453 69.8299 8.7253 69.8299 8.7253C76.4199 8.7253 76.4599 14.7253 76.4599 14.7253ZM69.6599 12.2253C69.6599 12.2253 66.6599 12.2853 66.8199 15.1053C66.8199 15.1053 66.8199 17.4353 69.8899 17.3953C69.8899 17.3953 72.8899 17.5653 72.8899 14.7853C72.8599 14.7853 72.9999 12.1853 69.6599 12.2253Z" fill="#004EA2"/>
<path d="M69.83 21.6952C69.5424 21.6705 69.2527 21.7052 68.9789 21.7969C68.7052 21.8887 68.4531 22.0357 68.2385 22.2288C68.0238 22.4219 67.8511 22.657 67.7309 22.9196C67.6108 23.1821 67.5458 23.4665 67.54 23.7552C67.5729 24.0469 67.6645 24.3289 67.8095 24.5842C67.9544 24.8395 68.1497 25.0627 68.3834 25.2403C68.6171 25.4179 68.8844 25.5463 69.1692 25.6176C69.4539 25.6889 69.7502 25.7017 70.04 25.6552C70.3044 25.677 70.5705 25.646 70.8228 25.564C71.0751 25.482 71.3085 25.3506 71.5095 25.1775C71.7105 25.0044 71.8751 24.7931 71.9937 24.5558C72.1122 24.3184 72.1824 24.0599 72.2 23.7952C72.2 23.7952 72.33 21.7352 69.83 21.6952Z" fill="#004EA2"/>
<path d="M82 5.20555V8.11555H85.52C85.52 8.11555 86.7 16.4455 80 19.3055L82.25 22.0555C84.5676 20.9864 86.4413 19.1445 87.55 16.8455C88.5281 18.9388 90.1842 20.6407 92.25 21.6755L94.25 19.0455V24.0455H97.84V5.18555H94.25V9.85555H90.55V12.9855H94.25V18.6255C94.25 18.6255 88.77 16.6255 89.33 8.11555H92.59V5.20555H82Z" fill="#004EA2"/>
<path d="M102.63 5.18555H98.8599V24.0055H102.63V5.18555Z" fill="#004EA2"/>
<path d="M117 8.98517C117 14.1652 111.61 14.0452 111.61 14.0452C105.61 14.1252 105.61 9.42517 105.61 9.42517C105.68 4.12517 111.26 4.25517 111.26 4.25517C117 4.33517 117 8.98517 117 8.98517ZM111.35 7.68517C111.102 7.66712 110.854 7.70072 110.62 7.78383C110.386 7.86694 110.172 7.99775 109.992 8.16795C109.811 8.33814 109.668 8.54402 109.571 8.7725C109.475 9.00098 109.426 9.24707 109.43 9.49517C109.454 9.72717 109.527 9.95147 109.644 10.1536C109.76 10.3558 109.918 10.5313 110.106 10.6688C110.294 10.8064 110.51 10.9029 110.738 10.9522C110.966 11.0016 111.201 11.0026 111.43 10.9552C111.655 10.9848 111.884 10.9665 112.101 10.9015C112.319 10.8365 112.52 10.7263 112.692 10.578C112.864 10.4298 113.002 10.2469 113.098 10.0413C113.195 9.8357 113.246 9.61211 113.25 9.38517C113.253 9.14452 113.205 8.90597 113.108 8.6855C113.012 8.46504 112.869 8.26772 112.69 8.10678C112.511 7.94583 112.3 7.82495 112.071 7.75224C111.841 7.67953 111.599 7.65666 111.36 7.68517H111.35Z" fill="#004EA2"/>
<path d="M122.62 5.20508V14.4251H107.17V17.0951H122.62V18.1151H107.55V24.0051H126.67V21.2051H111.28V20.3551H126.37V5.20508H122.62Z" fill="#004EA2"/>
<path d="M134.76 5.20508V7.20508C134.76 7.20508 135.24 16.2951 127.6 19.3551L129.46 22.3551C132.584 21.0882 135.094 18.6572 136.46 15.5751C138.011 18.5928 140.621 20.9322 143.79 22.1451L145.65 19.1451C145.65 19.1451 137.93 17.1451 138.24 7.23508V5.20508H134.76Z" fill="#004EA2"/>
<path d="M146.04 5.18555V24.0055H149.41V13.1555H152.73V10.0155H149.41V5.18555H146.04Z" fill="#004EA2"/>
<path d="M175.09 5.18555V12.6855H158.58V14.3855H175.09V17.5155H171.64V21.0255H175.79V24.0255H154.22V21.0255H158.37V17.5155H154.89V9.76555H171.47V8.32555H154.89V5.18555H175.09ZM161.85 17.5155V21.0255H168.08V17.5155H161.85Z" fill="#004EA2"/>
</g>
<defs>
<clipPath id="clip0_3330_5023">
<rect width="175.79" height="29.11" fill="white" transform="translate(0 0.445312)"/>
</clipPath>
</defs>
</svg>
