<svg width="55" height="55" viewBox="0 0 55 55" fill="none" xmlns="http://www.w3.org/2000/svg">
<path d="M33.5156 4.94141C33.5156 7.74556 34.0326 10.3304 35.0665 12.6959C36.1005 15.0614 37.5887 17.239 39.5312 19.2285C41.4738 21.2181 42.962 23.3956 43.996 25.7611C45.0299 28.1266 45.5469 30.7115 45.5469 33.5156C45.5469 35.1762 45.3354 36.7741 44.9124 38.3093C44.4894 39.8446 43.8785 41.278 43.0795 42.6096C42.2806 43.9411 41.3406 45.1631 40.2597 46.2753C39.1788 47.3876 37.9647 48.3275 36.6174 49.0952C35.2702 49.8628 33.8289 50.4659 32.2937 50.9045C30.7585 51.3432 29.1606 51.5625 27.5 51.5625C25.8394 51.5625 24.2415 51.351 22.7063 50.928C21.1711 50.5051 19.7377 49.8941 18.4061 49.0952C17.0745 48.2962 15.8526 47.3563 14.7403 46.2753C13.628 45.1944 12.6881 43.9803 11.9205 42.6331C11.1529 41.2858 10.5497 39.8446 10.1111 38.3093C9.67244 36.7741 9.45312 35.1762 9.45312 33.5156C9.45312 32.1997 9.59412 30.9073 9.8761 29.6384C10.1581 28.3694 10.5654 27.1554 11.098 25.9961C11.6307 24.8368 12.2886 23.7324 13.0719 22.6828C13.8552 21.6332 14.7403 20.6854 15.7272 19.8395C15.8369 20.4348 15.9857 21.0457 16.1737 21.6724C16.3617 22.299 16.581 22.9256 16.8317 23.5522C17.0823 24.1789 17.38 24.7742 17.7246 25.3381C18.0693 25.9021 18.4296 26.4269 18.8055 26.9125C19.1189 27.3042 19.5262 27.5 20.0275 27.5C20.4504 27.5 20.8029 27.3512 21.0849 27.0535C21.3669 26.7559 21.5157 26.3956 21.5314 25.9726C21.5314 25.8003 21.5079 25.6436 21.4609 25.5026C21.4139 25.3616 21.3356 25.2206 21.2259 25.0797C20.7873 24.4374 20.4034 23.8029 20.0745 23.1763C19.7455 22.5496 19.4557 21.9073 19.205 21.2494C18.9544 20.5914 18.7742 19.91 18.6646 19.205C18.5549 18.5001 18.4922 17.7559 18.4766 16.9727C18.4766 15.1084 18.829 13.3539 19.534 11.709C20.239 10.0641 21.2102 8.63068 22.4478 7.40875C23.6854 6.18683 25.1188 5.22339 26.748 4.51843C28.3773 3.81348 30.1318 3.45317 32.0117 3.4375H33.5156V4.94141ZM27.5 48.5547C29.5835 48.5547 31.5339 48.163 33.3511 47.3798C35.1684 46.5965 36.7663 45.5234 38.1448 44.1605C39.5234 42.7975 40.5965 41.2075 41.3641 39.3903C42.1318 37.573 42.5234 35.6148 42.5391 33.5156C42.5391 31.1501 42.1004 28.9491 41.2231 26.9125C40.3459 24.876 39.0769 23.0274 37.4164 21.3669C35.3798 19.3147 33.7819 17.051 32.6227 14.5758C31.4634 12.1006 30.7741 9.42179 30.5548 6.53931C29.2546 6.71163 28.0561 7.10327 26.9595 7.71423C25.8629 8.3252 24.8995 9.10065 24.0692 10.0406C23.2389 10.9805 22.6045 12.038 22.1658 13.2129C21.7272 14.3878 21.5 15.6411 21.4844 16.9727C21.4844 18.1946 21.6645 19.299 22.0248 20.2859C22.3852 21.2729 22.9178 22.2598 23.6227 23.2468C23.9204 23.6541 24.1475 24.077 24.3042 24.5157C24.4609 24.9543 24.547 25.44 24.5627 25.9726C24.5627 26.5992 24.4452 27.1867 24.2102 27.735C23.9752 28.2833 23.6462 28.7611 23.2233 29.1684C22.8003 29.5757 22.3225 29.9047 21.7899 30.1553C21.2572 30.406 20.6698 30.5235 20.0275 30.5078C19.3068 30.5078 18.6724 30.3747 18.1241 30.1083C17.5758 29.842 17.0901 29.4817 16.6672 29.0274C16.2442 28.5731 15.8682 28.064 15.5392 27.5C15.2103 26.936 14.897 26.3721 14.5993 25.8081C13.8787 26.9517 13.346 28.1815 13.0014 29.4974C12.6568 30.8133 12.4766 32.1527 12.4609 33.5156C12.4609 35.5992 12.8526 37.5495 13.6359 39.3668C14.4191 41.184 15.4922 42.7819 16.8552 44.1605C18.2181 45.539 19.8081 46.6121 21.6254 47.3798C23.4426 48.1474 25.4008 48.539 27.5 48.5547Z" fill="black"/>
</svg>
