<svg width="46" height="46" viewBox="0 0 46 46" fill="none" xmlns="http://www.w3.org/2000/svg">
<path d="M3.8335 40.25H42.1668" stroke="#101010" stroke-width="2.4" stroke-linecap="round" stroke-linejoin="round"/>
<path d="M13.4165 24.917H9.58317C8.52462 24.917 7.6665 25.7751 7.6665 26.8337V38.3337C7.6665 39.3922 8.52462 40.2503 9.58317 40.2503H13.4165C14.475 40.2503 15.3332 39.3922 15.3332 38.3337V26.8337C15.3332 25.7751 14.475 24.917 13.4165 24.917Z" stroke="#101010" stroke-width="2.4" stroke-linejoin="round"/>
<path d="M11.5 32.583H12.4583" stroke="#101010" stroke-width="2.4" stroke-linecap="round" stroke-linejoin="round"/>
<path d="M36.4168 3.83301H17.2502C16.1916 3.83301 15.3335 4.69113 15.3335 5.74967V38.333C15.3335 39.3916 16.1916 40.2497 17.2502 40.2497H36.4168C37.4754 40.2497 38.3335 39.3916 38.3335 38.333V5.74967C38.3335 4.69113 37.4754 3.83301 36.4168 3.83301Z" stroke="#101010" stroke-width="2.4" stroke-linejoin="round"/>
<path d="M22.2835 12.2163V10.783H23.7168V12.2163H22.2835Z" fill="#E60012" stroke="#E60012" stroke-width="2.4"/>
<path d="M29.95 12.2163V10.783H31.3833V12.2163H29.95Z" fill="#101010" stroke="#101010" stroke-width="2.4"/>
<path d="M22.2835 18.9253V17.492H23.7168V18.9253H22.2835Z" fill="#101010" stroke="#101010" stroke-width="2.4"/>
<path d="M29.95 18.9253V17.492H31.3833V18.9253H29.95Z" fill="#E60012" stroke="#E60012" stroke-width="2.4"/>
<path d="M29.95 25.6333V24.2H31.3833V25.6333H29.95Z" fill="#101010" stroke="#101010" stroke-width="2.4"/>
<path d="M29.95 32.3413V30.908H31.3833V32.3413H29.95Z" fill="#E60012" stroke="#E60012" stroke-width="2.4"/>
</svg>
