<svg width="16" height="16" viewBox="0 0 16 16" fill="none" xmlns="http://www.w3.org/2000/svg">
<path d="M14.338 8.44709L8.71361 2.19779C8.47677 1.93407 8.02182 1.93407 7.78497 2.19779L2.1606 8.44709C2.07964 8.53683 2.0265 8.64815 2.00764 8.76753C1.98878 8.88691 2.00501 9.00919 2.05436 9.11952C2.15435 9.34512 2.37807 9.4901 2.62492 9.4901H3.87478V13.8646C3.87478 14.0304 3.94062 14.1893 4.05782 14.3065C4.17502 14.4237 4.33397 14.4895 4.49971 14.4895H6.3745C6.54024 14.4895 6.6992 14.4237 6.81639 14.3065C6.93359 14.1893 6.99943 14.0304 6.99943 13.8646V11.3649H9.49915V13.8646C9.49915 14.0304 9.56499 14.1893 9.68219 14.3065C9.79939 14.4237 9.95834 14.4895 10.1241 14.4895H11.9989C12.1646 14.4895 12.3236 14.4237 12.4408 14.3065C12.558 14.1893 12.6238 14.0304 12.6238 13.8646V9.4901H13.8737C13.9947 9.49062 14.1133 9.45591 14.2149 9.3902C14.3165 9.3245 14.3969 9.23064 14.4461 9.12008C14.4953 9.00951 14.5113 8.88701 14.4921 8.76751C14.4729 8.64801 14.4194 8.53668 14.338 8.44709Z" fill="#404040"/>
</svg>
