<svg width="55" height="55" viewBox="0 0 55 55" fill="none" xmlns="http://www.w3.org/2000/svg">
<path d="M42.0477 36.7C36.6286 36.7 32.5833 32.6801 32.5833 27.3627C32.5833 22.0199 36.6286 18 42.0477 18C46.7037 18 50.3164 21.0785 51.0543 25.5818H46.0676C45.457 23.7754 43.9305 22.5796 42.0477 22.5796C39.529 22.5796 37.6717 24.615 37.6717 27.3627C37.6717 30.1105 39.529 32.1204 42.0477 32.1204C44.0322 32.1204 45.5842 30.8229 46.093 28.8384H51.1052C50.4182 33.5197 46.78 36.7 42.0477 36.7Z" fill="#101010"/>
<path d="M31.7501 18.4321V22.8591H26.916V36.2417H21.9803V22.8591H17.1462V18.4321H31.7501Z" fill="#101010"/>
<path d="M8.84242 31.9928H15.5846V36.2417H3.95752V18.4321H15.3556V22.681H8.84242V25.3015H14.6941V29.3214H8.84242V31.9928Z" fill="#101010"/>
</svg>
