<svg width="55" height="55" viewBox="0 0 55 55" fill="none" xmlns="http://www.w3.org/2000/svg">
<path d="M38.9583 26.354C44.6537 26.354 49.2708 21.7369 49.2708 16.0415C49.2708 10.3461 44.6537 5.729 38.9583 5.729C33.2628 5.729 28.6458 10.3461 28.6458 16.0415C28.6458 21.7369 33.2628 26.354 38.9583 26.354Z" stroke="#101010" stroke-width="2.4" stroke-linecap="round" stroke-linejoin="round"/>
<path d="M13.7501 36.6667C18.1799 36.6667 21.7709 33.0756 21.7709 28.6458C21.7709 24.216 18.1799 20.625 13.7501 20.625C9.3203 20.625 5.72925 24.216 5.72925 28.6458C5.72925 33.0756 9.3203 36.6667 13.7501 36.6667Z" stroke="#E60012" stroke-width="2.4" stroke-linecap="round" stroke-linejoin="round"/>
<path d="M33.2292 48.1248C36.3933 48.1248 38.9583 45.5598 38.9583 42.3957C38.9583 39.2315 36.3933 36.6665 33.2292 36.6665C30.065 36.6665 27.5 39.2315 27.5 42.3957C27.5 45.5598 30.065 48.1248 33.2292 48.1248Z" stroke="#101010" stroke-width="2.4" stroke-linecap="round" stroke-linejoin="round"/>
</svg>
