<svg width="55" height="55" viewBox="0 0 55 55" fill="none" xmlns="http://www.w3.org/2000/svg">
<path d="M25.8824 36.4L26.5029 35.623C27.2081 34.741 27.5617 34.3 28.0001 34.3C28.4384 34.3 28.7921 34.741 29.4973 35.623L30.1177 36.4M24.8236 26.425C24.8236 25.4503 24.4332 24.5156 23.7382 23.8264C23.0432 23.1372 22.1006 22.75 21.1177 22.75C20.1349 22.75 19.1923 23.1372 18.4973 23.8264C17.8023 24.5156 17.4119 25.4503 17.4119 26.425C17.4119 27.3997 17.8023 28.3344 18.4973 29.0236C19.1923 29.7128 20.1349 30.1 21.1177 30.1C22.1006 30.1 23.0432 29.7128 23.7382 29.0236C24.4332 28.3344 24.8236 27.3997 24.8236 26.425ZM38.5883 26.425C38.5883 25.4503 38.1979 24.5156 37.5029 23.8264C36.8079 23.1372 35.8653 22.75 34.8824 22.75C33.8996 22.75 32.957 23.1372 32.262 23.8264C31.567 24.5156 31.1766 25.4503 31.1766 26.425C31.1766 27.3997 31.567 28.3344 32.262 29.0236C32.957 29.7128 33.8996 30.1 34.8824 30.1C35.8653 30.1 36.8079 29.7128 37.5029 29.0236C38.1979 28.3344 38.5883 27.3997 38.5883 26.425Z" stroke="#E60012" stroke-width="2.4" stroke-linecap="round" stroke-linejoin="round"/>
<path d="M32.2353 47.95V44.8M23.7647 47.95V44.8M28 7C18.0598 7 10 14.9086 10 24.6673C10 28.3486 11.1478 31.7695 13.1129 34.6003C12.5772 35.1883 12.2511 35.9611 12.2511 36.8116C12.2511 38.6407 13.7609 40.1254 15.6245 40.1254V42.6853C15.6245 44.0503 16.2809 45.3502 17.4668 46.039C24.2645 49.987 31.7376 49.987 38.5332 46.039C39.719 45.3502 40.3755 44.0482 40.3755 42.6853V40.1233C42.239 40.1233 43.7489 38.6407 43.7489 36.8116C43.7489 35.9611 43.4228 35.1862 42.887 34.6003C44.92 31.6807 46.006 28.2153 46 24.6673C46 14.9086 37.9402 7 28 7Z" stroke="black" stroke-width="2.4" stroke-linecap="round" stroke-linejoin="round"/>
</svg>
