<svg width="55" height="55" viewBox="0 0 55 55" fill="none" xmlns="http://www.w3.org/2000/svg">
<path d="M25.9727 15.1289L31.3781 23.2579L25.9727 31.387H17.8646L12.4592 23.2579L17.8646 15.1289H25.9727Z" stroke="#101010" stroke-width="2.4" stroke-linecap="round" stroke-linejoin="round"/>
<path d="M39.4863 23.2581L44.8917 15.129L39.4863 7H31.3782L25.9728 15.129L31.3782 23.2581M39.4863 23.2581H31.3782M39.4863 23.2581L44.8917 31.3871M31.3782 23.2581L25.9728 31.3871L31.3782 39.5161M39.4863 39.5161L44.8917 47.6452M39.4863 39.5161L44.8917 31.3871M39.4863 39.5161H31.3782M12.4593 7L17.8647 15.129M31.3782 39.5161L28.6755 43.5806M17.8647 31.3871L15.162 35.4516M12.4593 23.2581H9.75659M44.8917 31.3871H52.9998" stroke="#101010" stroke-width="2.4" stroke-linecap="round" stroke-linejoin="round"/>
<path d="M25.9729 49.0002C26.7193 49.0002 27.3243 48.3936 27.3243 47.6454C27.3243 46.8971 26.7193 46.2905 25.9729 46.2905C25.2266 46.2905 24.6216 46.8971 24.6216 47.6454C24.6216 48.3936 25.2266 49.0002 25.9729 49.0002Z" fill="#E60012"/>
<path d="M12.4595 40.8708C13.2058 40.8708 13.8109 40.2642 13.8109 39.516C13.8109 38.7677 13.2058 38.1611 12.4595 38.1611C11.7132 38.1611 11.1082 38.7677 11.1082 39.516C11.1082 40.2642 11.7132 40.8708 12.4595 40.8708Z" fill="#E60012"/>
<path d="M4.35135 24.6125C5.09768 24.6125 5.7027 24.0059 5.7027 23.2577C5.7027 22.5094 5.09768 21.9028 4.35135 21.9028C3.60502 21.9028 3 22.5094 3 23.2577C3 24.0059 3.60502 24.6125 4.35135 24.6125Z" fill="#E60012"/>
</svg>
