<svg width="55" height="55" viewBox="0 0 55 55" fill="none" xmlns="http://www.w3.org/2000/svg">
<path d="M33.2321 21.0529L34.4981 19.7869L35.1058 19.1792C37.5669 16.7181 37.5669 12.7278 35.1058 10.2667C32.6446 7.80562 28.6544 7.80562 26.1933 10.2667L10.5096 25.9504C10.4457 26.0143 10.4457 26.118 10.5096 26.182L18.4961 34.1684C18.9436 34.6159 19.6691 34.6159 20.1166 34.1684L24.3702 29.9147L25.6363 28.6487" stroke="#101010" stroke-width="2.4" stroke-linecap="round"/>
<path d="M32.2698 7.43115L34.2954 5.40558C35.8615 3.83942 38.4008 3.83942 39.967 5.40558C41.5332 6.97175 41.5332 9.51101 39.967 11.0772L37.9414 13.1027L32.2698 7.43115Z" stroke="#101010" stroke-width="2.4" stroke-linecap="round" stroke-linejoin="round"/>
<path d="M12.0145 27.687L7.15308 32.5483L12.8247 38.22L17.686 33.3585L12.0145 27.687Z" stroke="#101010" stroke-width="2.4" stroke-linecap="round" stroke-linejoin="round"/>
<path d="M26.1931 28.9019C28.2067 30.9156 31.4715 30.9156 33.4851 28.9019C35.4988 26.8883 35.4988 23.6235 33.4851 21.6099C31.4715 19.5962 28.2067 19.5962 26.1931 21.6099C24.1795 23.6235 24.1795 26.8883 26.1931 28.9019Z" stroke="#E60012" stroke-width="2.4"/>
<path d="M6.875 22.9165L21.4591 37.5006" stroke="#101010" stroke-width="2.4" stroke-linecap="round" stroke-linejoin="round"/>
<path d="M11.4583 50.4165H48.1249" stroke="#101010" stroke-width="2.4" stroke-linecap="round" stroke-linejoin="round"/>
<path d="M35.5208 25.2085C40.1041 25.2085 44.6874 29.7918 44.6874 36.6668C44.6874 44.0002 38.7672 47.9342 35.5208 50.4168" stroke="#101010" stroke-width="2.4" stroke-linecap="round" stroke-linejoin="round"/>
</svg>
