<svg width="61" height="60" viewBox="0 0 61 60" fill="none" xmlns="http://www.w3.org/2000/svg">
<g clip-path="url(#clip0_3330_3619)">
<circle cx="30" cy="30" r="30" fill="white"/>
<path d="M30.3335 0C13.7636 0 0.333496 13.4302 0.333496 30C0.333496 46.5699 13.7636 60 30.3335 60C46.9033 60 60.3335 46.5699 60.3335 30C60.3335 13.4302 46.9033 0 30.3335 0ZM30.3335 2.07785C45.7533 2.07785 58.2556 14.5802 58.2556 30C58.2556 35.4927 56.6682 40.615 53.9306 44.933H6.73989C4.00236 40.615 2.41487 35.4927 2.41487 30C2.41134 14.5802 14.9137 2.07785 30.3335 2.07785Z" fill="#27BDBE"/>
<path d="M10.8003 13.5714C10.8003 13.2644 10.8497 12.9928 10.9485 12.7564C11.0472 12.5201 11.1813 12.3225 11.3506 12.1603C11.52 11.998 11.721 11.8745 11.9539 11.7934C12.1867 11.7087 12.4372 11.6664 12.7088 11.6664C12.9804 11.6664 13.2239 11.7087 13.4532 11.7934C13.6825 11.878 13.88 12.0015 14.0494 12.1603C14.2187 12.3225 14.3492 12.5201 14.4445 12.7564C14.5397 12.9928 14.5926 13.2644 14.5962 13.5714C14.5962 13.8642 14.5503 14.1287 14.455 14.3686C14.3598 14.6085 14.2293 14.8096 14.0599 14.9754C13.8906 15.1412 13.6895 15.2717 13.4567 15.3599C13.2239 15.4481 12.9769 15.494 12.7088 15.494C12.4407 15.494 12.2008 15.4516 11.968 15.367C11.7351 15.2823 11.5341 15.1588 11.3612 14.9966C11.1883 14.8343 11.0508 14.6367 10.952 14.3968C10.8497 14.157 10.8003 13.8818 10.8003 13.5714ZM11.6046 13.5643C11.6046 13.7689 11.6364 13.9488 11.6999 14.097C11.7634 14.2487 11.848 14.3722 11.9503 14.4745C12.0526 14.5732 12.1726 14.6508 12.3066 14.7002C12.4407 14.7496 12.5748 14.7778 12.7053 14.7778C12.8676 14.7778 13.0157 14.7496 13.1498 14.6896C13.2838 14.6297 13.3967 14.5485 13.492 14.4392C13.5872 14.3298 13.6578 14.2028 13.7107 14.0547C13.7636 13.9065 13.7883 13.7407 13.7883 13.5643C13.7883 13.3879 13.7601 13.2221 13.7036 13.0775C13.6472 12.9328 13.5696 12.8058 13.4743 12.7C13.3791 12.5942 13.2662 12.513 13.1321 12.4566C13.0016 12.4001 12.8605 12.3719 12.7053 12.3719C12.5501 12.3719 12.4019 12.4037 12.2678 12.4636C12.1338 12.5236 12.0174 12.6083 11.9186 12.7176C11.8198 12.827 11.7422 12.9505 11.6858 13.0986C11.6293 13.2433 11.6011 13.3985 11.6011 13.5643M12.6488 18.7536C12.4654 18.7536 12.3172 18.6972 12.2008 18.5843C12.0844 18.4714 12.028 18.3268 12.028 18.1468V16.3724H12.8499V17.9034C12.8499 18.0022 12.8817 18.0481 12.9452 18.0481H16.5223V18.4396C16.5223 18.6513 16.4094 18.7536 16.1907 18.7536H12.6524H12.6488ZM15.5381 16.7463V11.4512H16.3389V13.3174H17.3478V14.0158H16.3389V16.3159C16.3389 16.4782 16.3177 16.5911 16.2718 16.6546C16.226 16.7146 16.1343 16.7463 15.9896 16.7463H15.5381Z" fill="#27BDBE"/>
<path d="M12.1797 18.6054C12.0597 18.4854 11.9962 18.3302 11.9962 18.1467V16.3405H12.8782V17.8998C12.8782 17.9951 12.9028 18.0162 12.9452 18.0162H16.5505V18.436C16.5505 18.6583 16.42 18.7817 16.1872 18.7817H12.6488V18.7218H16.1872C16.3988 18.7182 16.487 18.6336 16.4906 18.436V18.0727H12.9452C12.8605 18.0727 12.8182 17.9986 12.8182 17.8963V16.397H12.0562V18.1432C12.0562 18.3161 12.1126 18.4537 12.222 18.5595C12.3313 18.6653 12.4725 18.7182 12.6488 18.7218V18.7817C12.4619 18.7817 12.3031 18.7218 12.1832 18.6054H12.1797ZM15.5381 16.778H15.5099V11.4229H16.3671V13.289H17.376V14.0475H16.3671V16.3158C16.3671 16.4816 16.3459 16.5981 16.2965 16.6721C16.2401 16.7462 16.1378 16.7745 15.9896 16.778H15.5381ZM15.9896 16.718C16.1307 16.718 16.2119 16.6863 16.2472 16.6369C16.286 16.5875 16.3071 16.4781 16.3071 16.3158V13.9875H17.3161V13.3455H16.3071V11.4758H15.5663V16.7145H15.9896V16.718ZM11.9574 15.3951C11.721 15.3069 11.5164 15.1834 11.3401 15.0212C11.1637 14.8554 11.0261 14.6543 10.9238 14.4109C10.8215 14.1674 10.7686 13.8888 10.7686 13.5713C10.7686 13.2608 10.8179 12.9856 10.9202 12.7458C11.019 12.5059 11.1566 12.3048 11.3295 12.139C11.5023 11.9732 11.7069 11.8497 11.9433 11.765C12.1797 11.6804 12.4337 11.6345 12.7088 11.6345C12.9769 11.6345 13.2309 11.6768 13.4638 11.765C13.6966 11.8497 13.8977 11.9767 14.0705 12.139C14.2399 12.3048 14.3774 12.5059 14.4727 12.7458C14.5715 12.9856 14.6209 13.2608 14.6279 13.5713C14.6279 13.8676 14.5821 14.1357 14.4868 14.3791C14.3916 14.619 14.2575 14.8271 14.0846 14.9965C13.9118 15.1658 13.7072 15.2963 13.4708 15.388C13.2345 15.4798 12.9805 15.5256 12.7123 15.5256C12.4478 15.5256 12.1973 15.4833 11.9609 15.3986L11.9574 15.3951ZM10.8285 13.5713C10.8285 13.8817 10.8779 14.1533 10.9767 14.3862C11.0755 14.619 11.2095 14.8165 11.3789 14.9753C11.5482 15.134 11.7457 15.254 11.975 15.3387C12.2043 15.4233 12.4478 15.4621 12.7053 15.4621C12.9699 15.4621 13.2133 15.4163 13.4426 15.3281C13.6719 15.2399 13.8694 15.1129 14.0353 14.9506C14.2011 14.7883 14.3316 14.5872 14.4233 14.3544C14.515 14.1216 14.5609 13.857 14.5609 13.5713C14.5574 13.2679 14.5044 12.9998 14.4127 12.7669C14.3175 12.5341 14.1869 12.3401 14.0247 12.1813C13.8589 12.0226 13.6648 11.9026 13.4391 11.818C13.2133 11.7333 12.9699 11.691 12.7053 11.691C12.4372 11.691 12.1902 11.7333 11.9609 11.818C11.7316 11.9026 11.5341 12.0226 11.3683 12.1813C11.2025 12.3401 11.0684 12.5341 10.9732 12.7669C10.8744 12.9998 10.8285 13.2643 10.8285 13.5713ZM12.2996 14.7319C12.162 14.679 12.0421 14.6014 11.9327 14.4991C11.8269 14.3967 11.7387 14.2662 11.6752 14.1145C11.6082 13.9593 11.5764 13.7759 11.5764 13.5677C11.5764 13.4019 11.6046 13.2396 11.6646 13.0915C11.721 12.9433 11.8022 12.8128 11.9045 12.6999C12.0068 12.5905 12.1267 12.5023 12.2608 12.4388C12.3984 12.3753 12.5465 12.3436 12.7088 12.3436C12.864 12.3436 13.0122 12.3718 13.1463 12.4318C13.2803 12.4918 13.3967 12.5729 13.499 12.6823C13.5978 12.7916 13.6754 12.9186 13.7354 13.0668C13.7918 13.2149 13.8236 13.3843 13.8236 13.5642C13.8236 13.7476 13.7989 13.9134 13.746 14.0651C13.6931 14.2168 13.619 14.3474 13.5202 14.4602C13.425 14.5696 13.3085 14.6578 13.171 14.7178C13.0334 14.7777 12.8817 14.8095 12.7159 14.8095C12.5783 14.8095 12.4407 14.7813 12.3067 14.7319H12.2996ZM11.7281 14.0863C11.7916 14.2345 11.8727 14.3579 11.9715 14.4532C12.0738 14.552 12.1867 14.6225 12.3172 14.6754C12.4478 14.7248 12.5783 14.7495 12.7053 14.7495C12.864 14.7495 13.0087 14.7213 13.1357 14.6649C13.2662 14.6084 13.3756 14.5273 13.4673 14.4214C13.559 14.3156 13.6296 14.1921 13.679 14.0475C13.7283 13.9029 13.7566 13.7406 13.7566 13.5642C13.7566 13.3878 13.7283 13.2291 13.6754 13.0879C13.619 12.9468 13.5449 12.8234 13.4496 12.7211C13.3544 12.6188 13.245 12.5411 13.118 12.4847C12.991 12.4283 12.8535 12.4036 12.7053 12.4036C12.5501 12.4036 12.409 12.4353 12.282 12.4918C12.1514 12.5517 12.0385 12.6329 11.9433 12.7387C11.848 12.8445 11.7704 12.968 11.7175 13.1091C11.6611 13.2502 11.6329 13.4019 11.6329 13.5642C11.6329 13.7653 11.6646 13.9417 11.7281 14.0863Z" fill="#27BDBE"/>
<path d="M17.6618 11.6803H21.299V11.9943C21.299 12.1284 21.2637 12.2236 21.1861 12.2801C21.112 12.3365 21.0273 12.3647 20.9285 12.3647H19.8773V13.4019C19.8773 13.6065 19.9372 13.8005 20.0537 13.9769C20.1736 14.1568 20.3218 14.3226 20.4982 14.4743C20.6745 14.626 20.8686 14.7601 21.0732 14.8765C21.2778 14.9929 21.4683 15.0917 21.6411 15.1693L21.1296 15.7231C20.985 15.6561 20.8368 15.5785 20.6851 15.4833C20.5334 15.3915 20.3817 15.2928 20.2371 15.1834C20.0925 15.074 19.9514 14.9611 19.8208 14.8412C19.6903 14.7213 19.5774 14.5978 19.4822 14.4743C19.3834 14.6084 19.2634 14.746 19.1259 14.8906C18.9883 15.0352 18.8401 15.1693 18.6778 15.2963C18.5191 15.4233 18.3533 15.5397 18.1875 15.6455C18.0217 15.7514 17.8629 15.8325 17.7112 15.896L17.1997 15.3598C17.4678 15.2434 17.7148 15.1058 17.9405 14.947C18.1663 14.7918 18.3639 14.626 18.5261 14.4567C18.6884 14.2838 18.8189 14.1074 18.9107 13.9275C19.0059 13.7441 19.0518 13.5712 19.0518 13.4019V12.3647H17.6583V11.6803H17.6618ZM19.5598 18.7605C19.3728 18.7605 19.2211 18.7041 19.1047 18.5912C18.9883 18.4783 18.9318 18.3337 18.9318 18.1538V16.3617H19.7538V17.9068C19.7538 18.0056 19.7855 18.0515 19.849 18.0515H23.5744V18.443C23.5744 18.5453 23.5497 18.623 23.5003 18.6794C23.4509 18.7323 23.3662 18.7605 23.2498 18.7605H19.5633H19.5598ZM22.5725 16.7462V13.8252H21.0485V13.1091H22.5725V11.4475H23.3874V16.2841C23.3874 16.4463 23.3627 16.5663 23.3168 16.6368C23.271 16.7074 23.1757 16.7427 23.0311 16.7427H22.5725V16.7462Z" fill="#27BDBE"/>
<path d="M19.56 18.7923V18.7324H23.2465C23.3629 18.7324 23.437 18.7041 23.4758 18.6618C23.5181 18.6159 23.5428 18.5454 23.5428 18.4466V18.0832H19.8492C19.7646 18.0832 19.7222 18.0092 19.7222 17.9069V16.3899H18.9602V18.1503C18.9602 18.3231 19.0167 18.4607 19.126 18.5665C19.2354 18.6724 19.38 18.7288 19.56 18.7288V18.7888C19.3659 18.7888 19.2072 18.7288 19.0837 18.6124C18.9602 18.496 18.9003 18.3372 18.9003 18.1538V16.3335H19.7822V17.9069C19.7822 18.0021 19.8069 18.0233 19.8492 18.0233H23.6028V18.4431C23.6028 18.5489 23.5781 18.6371 23.5216 18.6971C23.4652 18.7606 23.3699 18.7888 23.25 18.7888H19.5635L19.56 18.7923ZM23.0313 16.778H22.5727H22.5444V13.857H21.0204V13.0844H22.5444V11.4229H23.4193V16.2876C23.4193 16.4534 23.3946 16.5769 23.3452 16.658C23.2888 16.7427 23.183 16.778 23.0383 16.778H23.0313ZM23.0313 16.718C23.1724 16.718 23.2535 16.6827 23.2923 16.6228C23.3346 16.5593 23.3593 16.4464 23.3593 16.2841V11.4793H22.6044V13.1409H21.0804V13.797H22.6044V16.718H23.0348H23.0313ZM17.154 15.3528L17.1928 15.3351C17.4574 15.2187 17.7044 15.0811 17.9266 14.9259C18.1524 14.7707 18.3464 14.6084 18.5087 14.4391C18.671 14.2697 18.798 14.0934 18.8897 13.917C18.9814 13.7371 19.0273 13.5677 19.0273 13.4054V12.3965H17.6338V11.6522H21.3274V11.9979C21.3274 12.1355 21.2886 12.2413 21.2039 12.3048C21.1263 12.3648 21.031 12.3965 20.9287 12.3965H19.9057V13.4054C19.9057 13.603 19.9621 13.79 20.0785 13.9664C20.195 14.1427 20.3431 14.305 20.516 14.4567C20.6924 14.6049 20.8829 14.7389 21.0875 14.8589C21.2921 14.9753 21.4791 15.0741 21.6519 15.1482L21.6872 15.1658L21.1333 15.7655L21.1122 15.7585C20.9675 15.6914 20.8194 15.6103 20.6641 15.5186C20.5089 15.4268 20.3608 15.3245 20.2126 15.2187C20.0644 15.1094 19.9268 14.9965 19.7963 14.873C19.6764 14.7601 19.5705 14.6472 19.4788 14.5343C19.3836 14.6578 19.2707 14.7883 19.1437 14.9224C19.0061 15.067 18.8544 15.2046 18.6921 15.3316C18.5299 15.4621 18.3676 15.5785 18.2018 15.6844C18.036 15.7902 17.8737 15.8749 17.7185 15.9384L17.7008 15.9454L17.147 15.3633L17.154 15.3528ZM17.722 15.8678C17.8666 15.8078 18.0183 15.7267 18.1771 15.6279C18.3429 15.5221 18.5016 15.4057 18.6639 15.2787C18.8227 15.1517 18.9708 15.0176 19.1084 14.873C19.246 14.7319 19.3624 14.5943 19.4612 14.4602L19.4859 14.4285L19.5106 14.4602C19.6023 14.5802 19.7152 14.7037 19.8457 14.8201C19.9762 14.94 20.1138 15.0529 20.2584 15.1587C20.4031 15.2646 20.5513 15.3633 20.7029 15.4586C20.8476 15.5468 20.9887 15.6209 21.1263 15.6879L21.5955 15.1799C21.4332 15.1058 21.2533 15.0141 21.0628 14.9047C20.8546 14.7848 20.6641 14.6507 20.4842 14.499C20.3043 14.3474 20.1561 14.178 20.0327 13.9981C19.9127 13.8147 19.8492 13.6171 19.8492 13.4054V12.3365H20.9287C21.0204 12.3365 21.1016 12.3118 21.1686 12.2589C21.2321 12.2095 21.2674 12.1284 21.2674 11.9979V11.7121H17.6902V12.3365H19.0837V13.4054C19.0837 13.5783 19.0343 13.7617 18.9391 13.9452C18.8438 14.1286 18.7133 14.3086 18.551 14.4814C18.3852 14.6543 18.1877 14.8201 17.9619 14.9788C17.7432 15.1305 17.5068 15.261 17.2563 15.3775L17.7255 15.8713L17.722 15.8678Z" fill="#27BDBE"/>
<path d="M23.793 15.0706H24.9183V13.4549H25.7121V15.0706H26.3576C26.6893 15.0706 27.0138 15.0565 27.3313 15.0248C27.6488 14.993 28.0051 14.9295 28.3932 14.8308V15.2294C28.3932 15.3458 28.3685 15.4305 28.3155 15.4799C28.2626 15.5293 28.1885 15.5681 28.0898 15.5998C27.8816 15.6668 27.5712 15.7127 27.1584 15.7374C26.7422 15.7621 26.2765 15.7762 25.7579 15.7762H23.7965V15.0706H23.793ZM24.2445 12.4883V11.7898H27.356C27.5289 11.7898 27.6559 11.8428 27.737 11.9451C27.8181 12.0474 27.8605 12.1708 27.8605 12.3155V12.4248C27.8605 12.573 27.8499 12.7423 27.8287 12.9364C27.8076 13.1304 27.7723 13.3209 27.7299 13.5184C27.6841 13.7125 27.6312 13.8994 27.5712 14.0793C27.5077 14.2593 27.4371 14.411 27.3595 14.5344L26.7457 14.3333C26.8445 14.0582 26.9221 13.7724 26.9785 13.4796C27.035 13.1868 27.0632 12.894 27.0632 12.6047C27.0632 12.5624 27.0561 12.5342 27.0456 12.5201C27.035 12.506 27.0068 12.4954 26.9679 12.4954H24.2516L24.2445 12.4883ZM25.7579 18.7536C25.5745 18.7536 25.4263 18.6972 25.3099 18.5843C25.1935 18.4714 25.137 18.3268 25.137 18.1468V16.3618H25.9378L25.9449 17.8999C25.9449 17.9987 25.9766 18.0445 26.0401 18.0445H29.7196V18.4361C29.7196 18.5384 29.6949 18.616 29.6455 18.669C29.5961 18.7219 29.5115 18.7501 29.395 18.7501H25.7579V18.7536ZM28.7107 16.8239V11.4512H29.5185V13.7724H30.5239V14.4709H29.5185V16.3689C29.5185 16.6722 29.3845 16.8239 29.1163 16.8239H28.7107Z" fill="#27BDBE"/>
<path d="M25.2887 18.6054C25.1688 18.4854 25.1053 18.3302 25.1053 18.1467V16.3335H25.9625L25.9696 17.8998C25.9696 17.9951 25.9943 18.0162 26.0366 18.0162H29.7443V18.436C29.7443 18.5419 29.7196 18.63 29.6632 18.69C29.6067 18.7535 29.5115 18.7817 29.388 18.7817H25.7509V18.7218H29.388C29.5009 18.7218 29.5785 18.6935 29.6173 18.6512C29.6596 18.6054 29.6843 18.5348 29.6843 18.436V18.0727H26.0331C25.9484 18.0727 25.9061 17.9986 25.9061 17.8963L25.899 16.3864H25.1582V18.1397C25.1582 18.3126 25.2147 18.4501 25.324 18.556C25.4334 18.6618 25.5745 18.7147 25.7509 18.7182V18.7782C25.5639 18.7782 25.4052 18.7182 25.2852 18.6018L25.2887 18.6054ZM28.7107 16.8556H28.6824V11.4229H29.5503V13.7441H30.5557V14.5026H29.5503V16.3723C29.5503 16.6827 29.4021 16.8556 29.1199 16.8556H28.7142H28.7107ZM29.1199 16.7956C29.3739 16.7921 29.4868 16.6651 29.4903 16.3723V14.4426H30.4957V13.8006H29.4903V11.4793H28.7424V16.7956H29.1199ZM23.7648 15.8078V15.0423H24.8901V13.4266H25.7403V15.0423H26.3541C26.6857 15.0423 27.0068 15.0282 27.3243 14.9965C27.6418 14.9647 27.9945 14.9012 28.3826 14.806L28.4179 14.7954V15.2328C28.4179 15.3528 28.3932 15.448 28.3297 15.5045C28.2732 15.5574 28.1956 15.5997 28.0933 15.6315C27.8816 15.6985 27.5677 15.7443 27.1549 15.7726C26.7387 15.7973 26.273 15.8114 25.7544 15.8114H23.7612L23.7648 15.8078ZM23.8247 15.7514H25.7579C26.2765 15.7514 26.7422 15.7373 27.1549 15.7126C27.5677 15.6879 27.8781 15.642 28.0792 15.575C28.1744 15.5468 28.2485 15.508 28.2944 15.4621C28.3367 15.4233 28.3614 15.3492 28.3614 15.2328V14.8695C27.9839 14.9612 27.6418 15.0247 27.3313 15.0529C27.0103 15.0847 26.6857 15.0988 26.3541 15.0988H25.6803V13.4831H24.9466V15.0988H23.8212V15.7479L23.8247 15.7514ZM26.7034 14.3438L26.714 14.3156C26.8127 14.0404 26.8903 13.7582 26.9468 13.4654C27.0032 13.1761 27.0315 12.8833 27.0315 12.5941C27.0315 12.5553 27.0244 12.5341 27.0209 12.527C27.0209 12.527 27.0032 12.5129 26.9644 12.5129H24.2481H24.2198V11.7545H27.3595C27.5395 11.7545 27.677 11.8074 27.7652 11.9203C27.8499 12.0296 27.8958 12.1602 27.8922 12.3083V12.4177C27.8922 12.5658 27.8816 12.7387 27.8569 12.9327C27.8358 13.1268 27.8005 13.3208 27.7582 13.5148C27.7123 13.7088 27.6594 13.8993 27.5994 14.0792C27.5359 14.2592 27.4654 14.4144 27.3842 14.5379L27.3701 14.5555L26.7069 14.3403L26.7034 14.3438ZM27.3419 14.492C27.416 14.3756 27.4795 14.2309 27.5395 14.0651C27.5994 13.8852 27.6523 13.7018 27.6982 13.5078C27.7441 13.3137 27.7758 13.1232 27.797 12.9292C27.8181 12.7387 27.8287 12.5694 27.8287 12.4212V12.3118C27.8287 12.1743 27.7899 12.0578 27.7123 11.9626C27.6382 11.8673 27.5218 11.8215 27.3525 11.8215H24.2728V12.4635H26.9609C27.0032 12.4635 27.0385 12.4706 27.0597 12.4988C27.0808 12.5235 27.0844 12.5588 27.0844 12.6011C27.0844 12.8939 27.0561 13.1903 26.9997 13.4831C26.9433 13.7653 26.8692 14.044 26.7739 14.3121L27.3384 14.4955L27.3419 14.492Z" fill="#27BDBE"/>
<path d="M31.7551 15.9561C31.7551 16.0055 31.7692 16.0443 31.7939 16.0655C31.8186 16.0866 31.875 16.0972 31.9632 16.0972C32.4712 16.0972 32.9968 16.0796 33.5366 16.0408C34.0763 16.002 34.5878 15.9455 35.0676 15.8679V16.3054C35.0676 16.3936 35.0394 16.4606 34.983 16.5064C34.9265 16.5523 34.8665 16.5805 34.803 16.5911C34.5949 16.6229 34.3656 16.6511 34.1187 16.6758C33.8682 16.7005 33.6107 16.7216 33.3425 16.7393C33.0744 16.7569 32.7993 16.771 32.5171 16.7781C32.2348 16.7851 31.9632 16.7887 31.6951 16.7887C31.427 16.7887 31.2471 16.7463 31.1342 16.6617C31.0213 16.577 30.9648 16.4041 30.9648 16.1431V13.8606H33.2155C33.2755 13.8606 33.3143 13.8465 33.339 13.8218C33.3602 13.7971 33.3708 13.7513 33.3708 13.6913V12.4777H30.9648V11.7863H34.1645V14.0017C34.1645 14.1675 34.1116 14.2981 34.0128 14.4004C33.9105 14.5027 33.7588 14.5556 33.5577 14.5556H31.7656V15.9632L31.7551 15.9561ZM35.6497 18.7536V11.4512H36.4576V18.2844C36.4576 18.4538 36.4258 18.5737 36.3623 18.6443C36.2988 18.7148 36.2 18.7501 36.073 18.7501H35.6497V18.7536Z" fill="#27BDBE"/>
<path d="M36.073 18.7853H35.6497H35.6214V11.4229H36.4857V18.2879C36.4857 18.4607 36.454 18.5877 36.3834 18.6689C36.3129 18.7465 36.207 18.7853 36.0765 18.7853H36.073ZM36.073 18.7253C36.1965 18.7253 36.2811 18.69 36.3411 18.6265C36.3975 18.563 36.4293 18.4501 36.4293 18.2843V11.4793H35.6814V18.7253H36.073ZM31.1059 16.6827C30.9789 16.5875 30.9225 16.404 30.9225 16.1395V13.8252H33.2014C33.2578 13.8252 33.2896 13.8111 33.3002 13.797C33.3002 13.797 33.3249 13.7441 33.3249 13.6841V12.4988H30.9189V11.7474H34.1786V13.9911C34.1786 14.1604 34.1257 14.305 34.0163 14.4109C33.907 14.5202 33.7482 14.5731 33.5401 14.5731H31.7762V15.9525C31.7762 15.9983 31.7868 16.0266 31.8044 16.0371C31.8044 16.0371 31.8679 16.0618 31.9561 16.0618C32.4641 16.0618 32.9862 16.0442 33.526 16.0054C34.0657 15.9666 34.5737 15.9102 35.0535 15.8325H35.0887V16.2982C35.0887 16.3899 35.057 16.4711 34.9935 16.5205C34.9335 16.5698 34.8665 16.6016 34.7995 16.6122C34.5913 16.6439 34.362 16.6721 34.1116 16.6968C33.8611 16.7215 33.6036 16.7427 33.3319 16.7639C33.0638 16.7815 32.7851 16.7956 32.5064 16.8027C32.2242 16.8097 31.9491 16.8133 31.6845 16.8133C31.4199 16.8133 31.2259 16.7709 31.1059 16.6792V16.6827ZM30.9824 16.1395C30.9824 16.397 31.0389 16.5593 31.1412 16.6333C31.247 16.711 31.4269 16.7533 31.688 16.7533C31.9561 16.7533 32.2277 16.7498 32.51 16.7427C32.7922 16.7356 33.0673 16.7215 33.3355 16.7039C33.6036 16.6863 33.8611 16.6651 34.1116 16.6369C34.3585 16.6122 34.5878 16.584 34.7959 16.5522C34.8559 16.5416 34.9088 16.5169 34.9653 16.4746C35.0147 16.4358 35.0394 16.3793 35.0394 16.2982V15.896C34.5702 15.9701 34.0692 16.0266 33.5401 16.0654C33.0003 16.1042 32.4747 16.1218 31.9632 16.1218C31.8714 16.1218 31.8115 16.1148 31.7762 16.0865C31.7409 16.0583 31.7268 16.0125 31.7268 15.956V14.5202H33.5507C33.7482 14.5202 33.8893 14.4708 33.9846 14.3756C34.0798 14.2768 34.1292 14.1533 34.1292 13.9946V11.8109H30.9895V12.4424H33.3954V13.6877C33.3954 13.7512 33.3848 13.8041 33.3566 13.8358C33.3249 13.8711 33.2755 13.8852 33.212 13.8852H30.9895V16.1395H30.9824Z" fill="#27BDBE"/>
<path d="M37.3076 13.5714C37.3076 13.2644 37.357 12.9928 37.4558 12.7564C37.5546 12.5201 37.6886 12.3225 37.8579 12.1603C38.0273 11.998 38.2284 11.8745 38.4612 11.7898C38.694 11.7052 38.9445 11.6628 39.2161 11.6628C39.4878 11.6628 39.7312 11.7052 39.9605 11.7898C40.1898 11.8745 40.3873 11.998 40.5567 12.1603C40.7225 12.3225 40.8565 12.5201 40.9518 12.7564C41.047 12.9928 41.1 13.2644 41.1035 13.5714C41.1035 13.8642 41.0541 14.1287 40.9624 14.3686C40.8671 14.6085 40.7366 14.8096 40.5673 14.9754C40.3979 15.1412 40.1968 15.2717 39.964 15.3599C39.7312 15.4481 39.4842 15.494 39.2161 15.494C38.948 15.494 38.7081 15.4516 38.4753 15.367C38.2425 15.2823 38.0414 15.1588 37.8685 14.9966C37.6957 14.8343 37.5581 14.6367 37.4593 14.3968C37.357 14.157 37.3076 13.8818 37.3076 13.5714ZM38.1155 13.5643C38.1155 13.7689 38.1472 13.9488 38.2107 14.097C38.2742 14.2487 38.3589 14.3722 38.4612 14.4745C38.5635 14.5732 38.6834 14.6508 38.8175 14.7002C38.9515 14.7531 39.0821 14.7778 39.2161 14.7778C39.3784 14.7778 39.5266 14.7496 39.6606 14.6896C39.7947 14.6297 39.9076 14.5485 39.9993 14.4392C40.0945 14.3298 40.1651 14.2028 40.218 14.0547C40.2709 13.9065 40.2956 13.7407 40.2956 13.5643C40.2956 13.3879 40.2674 13.2221 40.211 13.0775C40.1545 12.9328 40.0769 12.8058 39.9817 12.7C39.8864 12.5942 39.7735 12.513 39.643 12.4566C39.5125 12.4001 39.3714 12.3719 39.2161 12.3719C39.0609 12.3719 38.9127 12.4037 38.7787 12.4636C38.6446 12.5236 38.5282 12.6083 38.4294 12.7176C38.3307 12.827 38.2531 12.9505 38.1966 13.0986C38.1402 13.2433 38.1119 13.3985 38.1119 13.5643M39.2091 18.7536C39.0221 18.7536 38.8739 18.6972 38.7646 18.5843C38.6552 18.4714 38.6023 18.3268 38.6023 18.1468V16.4182H39.4102V17.9105C39.4102 18.0093 39.4384 18.0551 39.4984 18.0551H43.2166V18.4396C43.2166 18.542 43.1919 18.6196 43.1425 18.6725C43.0931 18.7254 43.012 18.7536 42.8991 18.7536H39.2126H39.2091ZM42.2394 16.7252V11.4512H43.0402V16.2101C43.0402 16.3724 43.012 16.4994 42.952 16.5911C42.892 16.6793 42.7897 16.7252 42.6416 16.7252H42.2429H42.2394Z" fill="#27BDBE"/>
<path d="M38.747 18.6055C38.6341 18.4855 38.5741 18.3338 38.5741 18.1469V16.3865H39.4419V17.907C39.4419 18.0022 39.4631 18.0234 39.5019 18.0234H43.2484V18.4361C43.2484 18.542 43.2237 18.6302 43.1672 18.6901C43.1108 18.7536 43.0191 18.7783 42.9026 18.7783H39.2161V18.7184H42.9026C43.012 18.7184 43.0826 18.6937 43.1249 18.6478C43.1672 18.6019 43.1919 18.5314 43.1919 18.4326V18.0763H39.5054C39.4243 18.0763 39.389 18.0022 39.389 17.8999V16.4359H38.6411V18.1363C38.6411 18.3091 38.694 18.4467 38.7963 18.5525C38.8986 18.6584 39.0362 18.7113 39.2197 18.7113V18.7713C39.0292 18.7713 38.8704 18.7113 38.7575 18.5949L38.747 18.6055ZM42.6381 16.7534H42.2394H42.2112V11.4194H43.0684V16.2066C43.0684 16.3724 43.0402 16.5065 42.9767 16.6017C42.9097 16.7005 42.7968 16.7499 42.6416 16.7499L42.6381 16.7534ZM42.6381 16.697C42.7792 16.697 42.8709 16.6546 42.9238 16.577C42.9767 16.4959 43.0085 16.3724 43.0085 16.2136V11.4829H42.2676V16.697H42.6381ZM38.4683 15.3952C38.2319 15.3105 38.0273 15.1835 37.8509 15.0213C37.6745 14.8555 37.5369 14.6544 37.4311 14.411C37.3288 14.1676 37.2759 13.8889 37.2759 13.5749C37.2759 13.2644 37.3253 12.9893 37.4276 12.7494C37.5263 12.5095 37.6639 12.3084 37.8368 12.1426C38.0096 11.9803 38.2143 11.8533 38.4506 11.7687C38.687 11.684 38.941 11.6417 39.2161 11.6417C39.4843 11.6417 39.7382 11.684 39.9711 11.7687C40.2039 11.8533 40.405 11.9803 40.5779 12.1462C40.7472 12.312 40.8812 12.513 40.98 12.7529C41.0788 12.9928 41.1282 13.268 41.1352 13.5784C41.1352 13.8748 41.0858 14.1429 40.9906 14.3863C40.8954 14.6262 40.7613 14.8343 40.5884 15.0036C40.4156 15.173 40.211 15.3035 39.9746 15.3952C39.7382 15.4869 39.4843 15.5328 39.2161 15.5328C38.9516 15.5328 38.7011 15.4905 38.4647 15.4023L38.4683 15.3952ZM37.3359 13.5749C37.3359 13.8853 37.3852 14.157 37.484 14.3898C37.5828 14.6262 37.7168 14.8202 37.8862 14.9789C38.0555 15.1377 38.2566 15.2576 38.4824 15.3423C38.7117 15.427 38.9551 15.4693 39.2126 15.4693C39.4772 15.4693 39.7206 15.4234 39.9499 15.3352C40.1792 15.247 40.3768 15.12 40.5426 14.9578C40.7119 14.7955 40.8389 14.5944 40.9306 14.3616C41.0224 14.1287 41.0682 13.8642 41.0682 13.5784C41.0647 13.275 41.0118 13.0069 40.92 12.7741C40.8248 12.5413 40.6943 12.3472 40.532 12.1885C40.3662 12.0297 40.1722 11.9098 39.9464 11.8251C39.7206 11.7405 39.4772 11.7017 39.2126 11.7017C38.9445 11.7017 38.6976 11.744 38.4683 11.8251C38.239 11.9098 38.0414 12.0297 37.8756 12.1885C37.7098 12.3472 37.5757 12.5413 37.4805 12.7741C37.3817 13.0069 37.3359 13.2715 37.3359 13.5784V13.5749ZM39.2197 14.8096C39.0821 14.8096 38.9445 14.7849 38.8105 14.732C38.6729 14.6791 38.5529 14.6015 38.4436 14.4992C38.3377 14.3969 38.2495 14.2663 38.186 14.1146C38.119 13.9594 38.0873 13.776 38.0873 13.5678C38.0873 13.402 38.1155 13.2433 38.1755 13.0916C38.2319 12.9434 38.313 12.8129 38.4153 12.7C38.5176 12.5906 38.6341 12.5025 38.7716 12.439C38.9092 12.3755 39.0574 12.3437 39.2197 12.3437C39.3749 12.3437 39.5231 12.3719 39.6571 12.4319C39.7912 12.4919 39.9076 12.573 40.0064 12.6824C40.1051 12.7917 40.1827 12.9187 40.2427 13.0669C40.2992 13.2151 40.3309 13.3844 40.3309 13.5643C40.3309 13.7478 40.3062 13.9136 40.2533 14.0652C40.2004 14.2169 40.1263 14.3475 40.0275 14.4604C39.9323 14.5697 39.8159 14.6579 39.6783 14.7179C39.5407 14.7779 39.3925 14.8096 39.2267 14.8096H39.2232H39.2197ZM38.239 14.0864C38.3025 14.2346 38.3836 14.3581 38.4824 14.4533C38.5847 14.5521 38.6976 14.6226 38.8281 14.6755C38.9586 14.7249 39.0891 14.7496 39.2161 14.7496C39.3749 14.7496 39.5195 14.7214 39.6501 14.665C39.7806 14.6085 39.8899 14.5274 39.9817 14.4216C40.0734 14.3157 40.1439 14.1922 40.1933 14.0476C40.2427 13.903 40.2709 13.7407 40.2709 13.5643C40.2709 13.3879 40.2427 13.2292 40.1898 13.0881C40.1334 12.9434 40.0593 12.8235 39.964 12.7212C39.8723 12.6189 39.7594 12.5413 39.6324 12.4848C39.5054 12.4319 39.3678 12.4037 39.2197 12.4037C39.0644 12.4037 38.9233 12.4354 38.7963 12.4919C38.6658 12.5518 38.5529 12.633 38.4577 12.7388C38.3624 12.8446 38.2848 12.9681 38.2319 13.1092C38.1755 13.2503 38.1472 13.402 38.1472 13.5643C38.1472 13.7654 38.179 13.9418 38.2425 14.0864H38.239Z" fill="#27BDBE"/>
<path d="M50.3251 14.7813V15.1059C50.3251 15.3528 50.2122 15.4728 49.9829 15.4728H43.6436V14.7813H50.3216H50.3251ZM47.4959 12.1884C47.6229 12.4848 47.8874 12.7811 48.2896 13.0739C48.6882 13.3667 49.2103 13.5996 49.8524 13.7724L49.4079 14.3474C49.1998 14.291 48.981 14.2134 48.7553 14.1075C48.526 14.0052 48.3072 13.8888 48.0921 13.7548C47.8769 13.6207 47.6758 13.4761 47.4888 13.3244C47.3018 13.1692 47.1396 13.0139 47.0055 12.8552C46.8785 13.0245 46.7162 13.1868 46.5293 13.342C46.3388 13.4972 46.1377 13.6419 45.9225 13.7689C45.7073 13.8959 45.485 14.0123 45.2593 14.1111C45.0335 14.2099 44.8183 14.291 44.6207 14.3439L44.1692 13.7689C44.8148 13.589 45.3334 13.3632 45.7214 13.0845C46.1095 12.8058 46.3811 12.5095 46.5398 12.1849H44.5996V11.5146H49.4114V11.8145C49.4114 12.0615 49.2985 12.1849 49.0692 12.1849H47.4923L47.4959 12.1884ZM44.5431 17.5083C44.5431 17.2578 44.6137 17.0391 44.7583 16.8592C44.903 16.6757 45.0899 16.5276 45.3263 16.4076C45.5591 16.2912 45.8237 16.203 46.12 16.1431C46.4128 16.0831 46.7127 16.0549 47.0126 16.0549C47.3124 16.0549 47.6017 16.0831 47.891 16.1431C48.1802 16.203 48.4378 16.2912 48.6671 16.4076C48.8964 16.5241 49.0833 16.6757 49.2209 16.8627C49.362 17.0462 49.4326 17.2614 49.4326 17.5083C49.4326 17.7376 49.3656 17.9422 49.2315 18.1151C49.0975 18.2879 48.9211 18.4326 48.6953 18.549C48.4695 18.6654 48.212 18.7501 47.9227 18.81C47.6299 18.87 47.3265 18.8982 47.0126 18.8982C46.6986 18.8982 46.4128 18.8735 46.12 18.8242C45.8272 18.7748 45.5627 18.6936 45.3263 18.5807C45.0935 18.4678 44.903 18.3232 44.7583 18.1503C44.6137 17.9775 44.5431 17.7623 44.5431 17.5048M45.3722 17.5083C45.3722 17.6247 45.4145 17.727 45.5062 17.8152C45.5944 17.9034 45.7143 17.974 45.866 18.0304C46.0177 18.0869 46.1906 18.1292 46.3881 18.1609C46.5857 18.1927 46.7938 18.2068 47.009 18.2068C47.2242 18.2068 47.4147 18.1927 47.6087 18.1645C47.7992 18.1362 47.9721 18.0939 48.1203 18.0339C48.2684 17.974 48.3849 17.9034 48.4766 17.8152C48.5648 17.727 48.6106 17.6247 48.6106 17.5083C48.6106 17.3919 48.5648 17.2755 48.4766 17.1802C48.3884 17.085 48.272 17.0074 48.1238 16.9474C47.9792 16.8874 47.8098 16.838 47.6158 16.8063C47.4253 16.7745 47.2242 16.7569 47.0161 16.7569C46.7938 16.7569 46.5857 16.7745 46.3881 16.8063C46.1906 16.838 46.0177 16.8874 45.866 16.9474C45.7143 17.0074 45.5944 17.0885 45.5062 17.1802C45.418 17.2755 45.3722 17.3848 45.3722 17.5083Z" fill="#27BDBE"/>
<path d="M47.0093 18.9299C46.7059 18.9299 46.4061 18.9052 46.1133 18.8558C45.8169 18.8064 45.5488 18.7253 45.3125 18.6124C45.0761 18.4995 44.8821 18.3514 44.7339 18.175C44.5857 17.9951 44.5117 17.7728 44.5117 17.5118C44.5117 17.2542 44.5857 17.032 44.7339 16.845C44.8785 16.658 45.0726 16.5063 45.3089 16.3864C45.5453 16.2665 45.8134 16.1783 46.1097 16.1183C46.4061 16.0583 46.7059 16.0301 47.0093 16.0301C47.3056 16.0301 47.602 16.0583 47.8912 16.1183C48.1805 16.1783 48.4451 16.2665 48.6744 16.3864C48.9072 16.5063 49.0977 16.6616 49.2389 16.8485C49.3835 17.039 49.4576 17.2613 49.4576 17.5118C49.4576 17.7481 49.3905 17.9562 49.253 18.1362C49.1154 18.3126 48.9355 18.4607 48.7062 18.5771C48.4804 18.6935 48.2193 18.7817 47.9265 18.8417C47.6373 18.9017 47.3339 18.9299 47.0164 18.9299H47.0093ZM44.5716 17.5082C44.5716 17.7587 44.6422 17.9668 44.7798 18.1362C44.9209 18.3055 45.1043 18.4466 45.3372 18.5595C45.57 18.6689 45.831 18.75 46.1203 18.7994C46.4131 18.8488 46.7095 18.8735 47.0093 18.8735C47.3233 18.8735 47.6267 18.8452 47.9159 18.7853C48.2052 18.7253 48.4592 18.6406 48.6815 18.5277C48.9037 18.4149 49.0766 18.2702 49.2071 18.1009C49.3376 17.9316 49.4011 17.7375 49.4011 17.5118C49.4011 17.2719 49.3341 17.0637 49.1965 16.8838C49.0589 16.7039 48.8755 16.5557 48.6497 16.4393C48.4239 16.3229 48.1664 16.2347 47.8807 16.1783C47.5949 16.1183 47.3021 16.0901 47.0093 16.0901C46.7095 16.0901 46.4131 16.1183 46.1238 16.1783C45.831 16.2382 45.57 16.3229 45.3407 16.4393C45.1079 16.5557 44.9244 16.7039 44.7833 16.8803C44.6457 17.0567 44.5752 17.2648 44.5752 17.5118L44.5716 17.5082ZM46.3814 18.1926C46.1838 18.1609 46.0074 18.1185 45.8522 18.0621C45.7005 18.0056 45.577 17.9316 45.4853 17.8398C45.3901 17.7481 45.3442 17.6352 45.3442 17.5118C45.3442 17.3812 45.3901 17.2648 45.4853 17.166C45.577 17.0673 45.7005 16.9861 45.8557 16.9261C46.0074 16.8626 46.1838 16.8168 46.3849 16.7815C46.5825 16.7462 46.7976 16.7321 47.0199 16.7321C47.228 16.7321 47.4291 16.7498 47.6231 16.7815C47.8172 16.8168 47.99 16.8626 48.1382 16.9261C48.2864 16.9896 48.4063 17.0708 48.498 17.166C48.5933 17.2648 48.6391 17.3848 48.6391 17.5118C48.6391 17.6352 48.5897 17.7481 48.498 17.8398C48.4063 17.9316 48.2828 18.0056 48.1311 18.0656C47.9794 18.1256 47.8066 18.1679 47.6126 18.1997C47.4185 18.2279 47.2174 18.242 47.0093 18.242C46.7906 18.242 46.5825 18.2279 46.3814 18.1961V18.1926ZM45.5241 17.794C45.6088 17.8786 45.7252 17.9457 45.8734 18.0021C46.0215 18.0586 46.1944 18.1009 46.3884 18.1326C46.586 18.1644 46.7906 18.1785 47.0058 18.1785C47.2104 18.1785 47.4115 18.1644 47.602 18.1362C47.7925 18.1079 47.9618 18.0656 48.1064 18.0056C48.2511 17.9457 48.3675 17.8751 48.4522 17.794C48.5368 17.7128 48.5756 17.6176 48.5756 17.5082C48.5756 17.3918 48.5333 17.293 48.4486 17.2013C48.364 17.1096 48.2511 17.0355 48.1064 16.9755C47.9618 16.9156 47.796 16.8697 47.6055 16.8344C47.415 16.8027 47.2174 16.785 47.0093 16.785C46.7906 16.785 46.5789 16.8027 46.3849 16.8344C46.1909 16.8662 46.018 16.9156 45.8698 16.9755C45.7217 17.0355 45.6053 17.1131 45.5206 17.2013C45.4359 17.293 45.3936 17.3918 45.3936 17.5082C45.3936 17.6176 45.4324 17.7128 45.5171 17.794H45.5241ZM43.6191 15.5009V14.7495H50.3289H50.3571V15.1023C50.3571 15.3563 50.2266 15.5009 49.9867 15.5009H43.6191ZM43.6756 15.441H49.9832C50.1984 15.4374 50.2901 15.3387 50.2936 15.1023V14.8095H43.6721V15.441H43.6756ZM49.4011 14.3791C49.193 14.3227 48.9743 14.2415 48.745 14.1392C48.5157 14.0369 48.2934 13.917 48.0782 13.7829C47.863 13.6489 47.6619 13.5042 47.4714 13.349C47.2951 13.2044 47.1398 13.0562 47.0093 12.9045C46.8823 13.0668 46.7306 13.2185 46.5507 13.3702C46.3602 13.5289 46.1556 13.67 45.9404 13.8006C45.7252 13.9276 45.503 14.044 45.2737 14.1427C45.0444 14.2415 44.8327 14.3227 44.6316 14.3791L44.614 14.3862L44.1236 13.7582L44.1659 13.7476C44.8115 13.5713 45.323 13.3419 45.7076 13.0668C46.0745 12.8057 46.3355 12.5235 46.4943 12.2201H44.5716V11.4934H49.4435V11.8215C49.4435 12.0755 49.3129 12.2201 49.073 12.2201H47.542C47.6725 12.4953 47.9265 12.774 48.304 13.0491C48.6991 13.3384 49.2177 13.5713 49.8562 13.7441L49.8985 13.7547L49.4152 14.3826L49.3976 14.3756L49.4011 14.3791ZM47.0305 12.8375C47.161 12.9927 47.3233 13.1479 47.5067 13.3031C47.6937 13.4548 47.8912 13.5995 48.1064 13.73C48.3216 13.8641 48.5404 13.9805 48.7661 14.0828C48.9848 14.1816 49.193 14.2592 49.3941 14.3156L49.7998 13.79C49.1754 13.6171 48.6638 13.3878 48.2687 13.0985C47.8666 12.8057 47.5984 12.5059 47.4679 12.2025L47.4503 12.1602H49.073C49.2882 12.1566 49.38 12.0578 49.3835 11.8215V11.5499H44.6281V12.1602H46.586L46.5648 12.2025C46.4025 12.5306 46.1274 12.834 45.7358 13.1126C45.3548 13.3878 44.8468 13.6101 44.2189 13.79L44.6316 14.3156C44.8221 14.2592 45.0267 14.1851 45.2454 14.0863C45.4712 13.9875 45.6899 13.8746 45.9051 13.7476C46.1168 13.6206 46.3214 13.4795 46.5084 13.3243C46.6989 13.1691 46.8541 13.0068 46.9811 12.841L47.0023 12.8128L47.0269 12.841L47.0305 12.8375Z" fill="#27BDBE"/>
<path d="M13.2979 21.812V25.6396H17.0091V21.812H19.2528V31.7709H17.0091V27.6046H13.2979V31.7709H11.0366V21.812H13.2979Z" fill="#27BDBE"/>
<path d="M22.6538 29.2169L21.9447 31.7745H19.6094L22.6538 21.8157H25.6101L28.6969 31.7745H26.2733L25.5042 29.2169H22.6538ZM25.1797 27.5306L24.5588 25.4175C24.3824 24.8248 24.206 24.0875 24.0579 23.4949H24.0296C23.8815 24.084 23.7333 24.839 23.571 25.4175L22.9819 27.5306H25.1832H25.1797Z" fill="#27BDBE"/>
<path d="M36.0838 31.4922C35.671 31.7003 34.7397 31.9191 33.5261 31.9191C30.0831 31.9191 28.3086 29.7777 28.3086 26.9379C28.3086 23.5406 30.7322 21.6462 33.7449 21.6462C34.9125 21.6462 35.798 21.8826 36.1966 22.0907L35.738 23.8793C35.2794 23.6888 34.6444 23.5089 33.8472 23.5089C32.0586 23.5089 30.6687 24.5884 30.6687 26.8038C30.6687 28.797 31.8505 30.0564 33.8613 30.0564C34.5421 30.0564 35.2935 29.9082 35.738 29.7318L36.0767 31.4887L36.0838 31.4922Z" fill="#27BDBE"/>
<path d="M43.5447 31.4922C43.1319 31.7003 42.2006 31.9191 40.9871 31.9191C37.544 31.9191 35.7695 29.7777 35.7695 26.9379C35.7695 23.5406 38.1931 21.6462 41.2058 21.6462C42.3735 21.6462 43.2589 21.8826 43.6611 22.0907L43.2025 23.8793C42.7439 23.6888 42.1089 23.5089 41.3116 23.5089C39.5231 23.5089 38.1331 24.5884 38.1331 26.8038C38.1331 28.797 39.3149 30.0564 41.3257 30.0564C42.0066 30.0564 42.758 29.9082 43.2025 29.7318L43.5412 31.4887L43.5447 31.4922Z" fill="#27BDBE"/>
<path d="M44.1377 21.9462C44.8327 21.8298 45.8063 21.738 47.1821 21.738C48.558 21.738 49.5598 22.0026 50.2266 22.5353C50.8616 23.0363 51.292 23.8653 51.292 24.8425C51.292 25.8196 50.9674 26.6451 50.3748 27.2061C49.6057 27.9292 48.4698 28.2538 47.1398 28.2538C46.8435 28.2538 46.5789 28.2397 46.3708 28.2079V31.771H44.1412V21.9426L44.1377 21.9462ZM46.3672 26.4688C46.5577 26.5111 46.7941 26.5287 47.1222 26.5287C48.3181 26.5287 49.0589 25.9219 49.0589 24.9024C49.0589 23.9852 48.4239 23.4384 47.3021 23.4384C46.8435 23.4384 46.533 23.4843 46.3708 23.5266V26.4688H46.3672Z" fill="#27BDBE"/>
<path d="M51.1188 30.4092C51.1682 30.6173 51.1999 30.8255 51.1999 31.0406C51.1999 35.0693 41.8584 38.336 30.3333 38.336C18.8081 38.336 9.46662 35.0693 9.46662 31.0406C9.46662 30.829 9.49837 30.6208 9.54776 30.4127C8.07316 31.4993 7.24414 32.7199 7.24414 34.011C7.24414 38.5689 17.5804 42.2624 30.3333 42.2624C43.0861 42.2624 53.4224 38.5689 53.4224 34.011C53.4224 32.7199 52.5934 31.4993 51.1188 30.4127" fill="#FBB03F"/>
<path d="M17.5703 49.5508V50.0658H13.3652V49.5508H15.1009V49.191H13.591V47.4871H14.3283V48.6794H17.341V49.191H15.8382V49.5508H17.5668H17.5703ZM16.6602 52.0802C16.3391 52.2178 15.9229 52.2883 15.4748 52.2883C15.0268 52.2883 14.6211 52.2178 14.3001 52.0872C13.8697 51.9214 13.5945 51.6392 13.5945 51.29C13.5945 50.9407 13.905 50.6373 14.3636 50.4574C14.6776 50.341 15.0586 50.274 15.4678 50.274C15.9299 50.274 16.3532 50.3657 16.6848 50.5103C17.0835 50.6867 17.341 50.9478 17.341 51.29C17.341 51.6322 17.0764 51.9109 16.6602 52.0802ZM14.3883 51.2865C14.3883 51.6322 14.988 51.7698 15.4748 51.7698C15.9617 51.7698 16.5473 51.6251 16.5473 51.2865C16.5473 50.9478 15.9546 50.7855 15.4678 50.7855C14.9809 50.7855 14.3883 50.9619 14.3883 51.2865Z" fill="white"/>
<path d="M21.1542 49.4343C21.4823 49.3885 21.6587 49.3038 21.6657 49.3038V47.3706H22.4101V50.0799H21.6657V49.8224C21.6657 49.8224 21.3623 49.9141 21.1859 49.9388C20.9637 49.9741 20.7309 49.9776 20.491 49.9776H18.4272V48.4642H20.364V47.995H18.4272V47.48H21.0978V48.9828H19.1645V49.4661H20.4698C20.678 49.4661 20.9178 49.4731 21.1507 49.4414M18.713 50.3198H22.4065V52.1225H18.713V50.3198ZM19.4503 51.6039H21.6657V50.8349H19.4503V51.6039Z" fill="white"/>
<path d="M26.7351 48.6477C26.9433 48.75 27.4548 48.9123 27.4866 48.9229L27.1973 49.4239C27.1796 49.4239 26.908 49.385 26.46 49.2016C25.7086 48.8912 25.3981 48.4572 25.3805 48.4325C25.3628 48.4608 25.0136 48.9088 24.301 49.2016C23.8706 49.378 23.5813 49.4239 23.5637 49.4239L23.2744 48.9229C23.3062 48.9123 23.8036 48.7642 24.0399 48.6407C24.4703 48.422 24.5444 48.3585 24.7984 48.0833H23.4543V47.5683H24.9889V47.2578H25.7862V47.5683H27.3207V48.0833H25.9873C26.1566 48.2773 26.3153 48.422 26.7457 48.6442M27.2537 50.461V52.112H26.5164V50.9761H23.5037V50.461H24.9818V50.0765H23.2779V49.5614H27.483V50.0765H25.7791V50.461H27.2572H27.2537Z" fill="white"/>
<path d="M31.1026 50.2881C31.1026 50.2881 30.831 50.2034 30.5664 50.0341C30.0126 49.6848 29.6951 49.3003 29.681 49.2826C29.6633 49.3003 29.3035 49.7201 28.8096 50.0235C28.4639 50.2351 28.2593 50.281 28.2557 50.2881L27.9771 49.766C27.9771 49.766 28.2981 49.5931 28.5062 49.4485C28.9683 49.1204 29.307 48.7605 29.307 48.1996V47.4694H30.0443V48.1926C30.0443 48.6794 30.2771 48.9898 30.6617 49.3073C31.0779 49.646 31.3566 49.766 31.3743 49.766L31.0956 50.2881H31.1026ZM28.6297 52.119V50.5703H29.3105V51.6039H32.3232V52.119H28.6297ZM32.8065 48.5065V49.0216H32.2633V50.7784H31.526V47.3706H32.2633V48.5065H32.8065Z" fill="white"/>
<path d="M36.1721 50.1046C36.1721 50.1046 35.8934 50.0199 35.6288 49.8506C35.0714 49.5014 34.7575 49.1168 34.7469 49.0921C34.7469 49.0992 34.3694 49.5331 33.8755 49.8365C33.5298 50.0482 33.3252 50.1011 33.3217 50.1011L33.043 49.5719C33.043 49.5719 33.364 49.3991 33.5721 49.258C34.0343 48.9369 34.3729 48.5736 34.3729 48.0056V47.4659H35.1102V48.0056C35.1102 48.4889 35.3431 48.8029 35.7276 49.1204C36.1439 49.452 36.4226 49.5754 36.4402 49.579L36.1686 50.1011L36.1721 50.1046ZM37.3292 50.3657V52.1225H36.5919V50.8842H33.5792V50.3692H37.3292V50.3657ZM37.3292 50.1575H36.5919V47.3706H37.3292V50.1575Z" fill="white"/>
<path d="M39.8797 50.094H38.144V49.579H42.3491V50.094H40.6205V50.4257H42.1233V52.1225H38.3733V50.4257H39.8832V50.094H39.8797ZM38.3698 48.7676H38.8813V47.995H38.3698V47.48H42.1198V47.995H41.6012V48.7676H42.1198V49.2827H38.3698V48.7676ZM39.1071 51.6074H41.379V50.9407H39.1071V51.6074ZM39.6186 48.7676H40.8675V47.995H39.6186V48.7676Z" fill="white"/>
<path d="M45.5696 50.7327V52.1261H44.8323V50.7327H43.0967V50.2176H47.3018V50.7327H45.5732H45.5696ZM43.3225 49.7484V47.4766H44.0598V48.0974H46.3316V47.4766H47.0725V49.7484H43.3225ZM46.3352 48.6125H44.0633V49.2334H46.3352V48.6125Z" fill="white"/>
</g>
<defs>
<clipPath id="clip0_3330_3619">
<rect width="60" height="60" fill="white" transform="translate(0.333496)"/>
</clipPath>
</defs>
</svg>
