<svg width="190" height="50" viewBox="0 0 190 50" fill="none" xmlns="http://www.w3.org/2000/svg">
<g clip-path="url(#clip0_3589_2227)">
<path d="M0.181519 22.0316C0.181519 31.8052 10.5428 37.7182 18.5314 40.1692C14.8969 42.0466 13.0632 45.1133 13.3492 49.1157C13.3884 49.4386 13.7106 49.4749 13.8912 49.2243C14.7223 48.1438 15.6527 47.4556 16.8783 46.9153C20.0099 45.5449 24.8638 44.8235 30.4073 43.9935C38.0677 42.8374 46.812 41.5063 53.9333 38.1529C60.338 35.1224 66.7427 29.3874 66.7427 22.0316C66.7427 9.40869 49.7629 1.79932 33.4666 1.79932C17.1643 1.79932 0.181519 9.40869 0.181519 22.0316Z" fill="#D6D5D2"/>
<path d="M0.181519 20.9269C0.181519 30.6974 10.5428 36.6135 18.5314 39.0674C14.8969 40.9419 13.0632 44.0055 13.3492 48.011C13.3884 48.3339 13.7106 48.3701 13.8912 48.1166C14.7223 47.036 15.6527 46.3508 16.8783 45.8075C20.0099 44.4372 24.8638 43.7158 30.4073 42.8887C38.0677 41.7327 46.812 40.3986 53.9333 37.0481C60.338 34.0177 66.7427 28.2827 66.7427 20.9269C66.7427 8.30396 49.7629 0.69458 33.4666 0.69458C17.1643 0.69458 0.181519 8.30396 0.181519 20.9269Z" fill="white"/>
<mask id="mask0_3589_2227" style="mask-type:luminance" maskUnits="userSpaceOnUse" x="3" y="3" width="61" height="35">
<path d="M3.56604 20.9268C3.56604 28.0291 11.9852 34.8446 24.1803 37.1175C33.8942 34.739 48.8204 34.1957 57.1703 29.8311C60.7656 27.9567 63.3552 25.1435 63.3552 20.9268C63.3552 11.5849 49.5039 3.90308 33.4606 3.90308C17.4173 3.90308 3.56604 11.5849 3.56604 20.9268Z" fill="white"/>
</mask>
<g mask="url(#mask0_3589_2227)">
<path d="M18.5164 -22.0521L77.7063 12.2067L48.4079 63.0696L-10.782 28.8139L18.5164 -22.0521Z" fill="url(#paint0_linear_3589_2227)"/>
</g>
<mask id="mask1_3589_2227" style="mask-type:luminance" maskUnits="userSpaceOnUse" x="0" y="1" width="67" height="47">
<path d="M0.831909 20.9269C0.831909 28.7536 8.45912 35.4936 19.4678 38.669C20.4374 38.2374 21.5184 37.8389 22.7409 37.516C10.871 34.8839 2.84636 28.1016 2.84636 20.9269C2.84636 11.766 15.9418 3.25415 33.4636 3.25415C50.9824 3.25415 64.0778 11.766 64.0778 20.9269C64.0778 36.8308 31.2685 33.9452 19.504 39.3179C15.1167 41.301 13.9273 44.6545 13.9273 47.0722C18.2814 41.7327 39.4377 43.1422 53.6834 36.4686C59.9797 33.4773 66.0953 27.9235 66.0953 20.9269C66.0953 10.1059 51.4913 1.34351 33.4666 1.34351C15.4389 1.34351 0.831909 10.1059 0.831909 20.9269Z" fill="white"/>
</mask>
<g mask="url(#mask1_3589_2227)">
<path d="M17.1462 -26.9841L85.8453 12.7742L49.7779 75.3968L-18.9211 35.6385L17.1462 -26.9841Z" fill="url(#paint1_linear_3589_2227)"/>
</g>
<mask id="mask2_3589_2227" style="mask-type:luminance" maskUnits="userSpaceOnUse" x="0" y="20" width="23" height="19">
<path d="M0.831909 20.9269C0.831909 28.7536 8.45912 35.4937 19.4678 38.669C20.4374 38.2374 21.5184 37.839 22.7409 37.516C10.871 34.8839 2.84636 28.1016 2.84636 20.9269H0.831909Z" fill="white"/>
</mask>
<g mask="url(#mask2_3589_2227)">
<path d="M6.30918 11.4159L30.4043 25.3609L17.2637 48.1769L-6.83142 34.2319L6.30918 11.4159Z" fill="url(#paint2_linear_3589_2227)"/>
</g>
<path d="M24.8969 13.9242H21.2986C20.9764 13.9242 20.871 13.7733 20.871 13.4956V11.6061C20.871 11.1775 20.591 10.7247 19.8442 10.7247H19.0734C18.3447 10.7247 18.0677 11.1775 18.0677 11.6061V13.4956C18.0677 13.7733 17.9593 13.9242 17.6371 13.9242H14.0388C13.6082 13.9242 13.1836 14.1597 13.1836 14.8267V15.4304C13.1836 16.0945 13.6082 16.3299 14.0388 16.3299H15.8816C14.7885 17.2384 14.099 18.5575 14.099 20.0154C14.099 22.7198 16.4958 24.9534 19.4528 24.9534C22.4097 24.9534 24.8277 22.6564 24.8277 19.9731C24.8277 18.5092 24.1532 17.2203 23.0782 16.3299H24.8939C25.3215 16.3299 25.7491 16.0914 25.7491 15.4304V14.8267C25.7551 14.1597 25.3245 13.9242 24.8969 13.9242ZM19.4588 22.5508C18.0466 22.5508 16.9114 21.3917 16.9114 20.0184C16.9114 18.5997 18.0466 17.4618 19.4588 17.4618C20.874 17.4618 22.0303 18.5363 22.0303 19.9972C22.0273 21.3676 20.871 22.5508 19.4588 22.5508Z" fill="white"/>
<path d="M32.6084 17.492H30.2086C29.9315 17.492 29.778 17.3803 29.778 17.0603V12.1222C29.778 11.6936 29.501 11.2439 28.7512 11.2439H27.9803C27.2516 11.2439 26.9746 11.6936 26.9746 12.1222V29.315C26.9746 29.7467 27.2546 30.1964 27.9803 30.1964H28.7512C29.501 30.1964 29.778 29.7467 29.778 29.315V20.4108C29.778 20.0908 29.9285 19.9822 30.2086 19.9822H32.6084C33.036 19.9822 33.4606 19.7014 33.4606 19.0374V18.4367C33.4606 17.7666 33.036 17.492 32.6084 17.492Z" fill="white"/>
<path d="M49.5671 23.1937H38.0736C37.5166 23.1937 37.2155 23.4744 37.2155 24.0509V28.1892C37.2155 29.5988 38.3236 30.4137 39.9074 30.4137H47.7364C49.3202 30.4137 50.4253 29.5988 50.4253 28.1892V24.0509C50.4223 23.4714 50.1212 23.1937 49.5671 23.1937ZM47.6189 27.6006C47.6189 27.9235 47.4684 28.0292 47.1914 28.0292H40.4524C40.1724 28.0292 40.0218 27.9235 40.0218 27.6006V26.028C40.0218 25.705 40.1694 25.5994 40.4524 25.5994H47.1914C47.4684 25.5994 47.6189 25.705 47.6189 26.028V27.6006Z" fill="white"/>
<path d="M49.3955 11.09H48.6247C47.896 11.09 47.619 11.5427 47.619 11.9713V18.8925C46.6765 19.3302 45.7701 19.5234 43.2799 19.5234H37.5708C37.2938 19.5234 37.1432 19.4177 37.1432 19.0948V18.3251C37.1432 18.0051 37.2938 17.8964 37.5708 17.8964H43.6322C44.1923 17.8964 44.4904 17.6157 44.4904 17.0362V12.6143C44.4904 12.0347 44.1893 11.757 43.6322 11.757H35.1529C34.7223 11.757 34.2947 11.9955 34.2947 12.6595V13.1938C34.2947 13.8609 34.7223 14.0963 35.1529 14.0963H41.2775C41.5545 14.0963 41.7081 14.2019 41.7081 14.5249V15.1467C41.7081 15.4697 41.5575 15.5753 41.2775 15.5753H35.2191C34.662 15.5753 34.3609 15.856 34.3609 16.4355V19.5898C34.3609 20.9994 35.2462 21.8656 37.1011 21.8656H43.2618C45.7912 21.8656 46.7698 21.5668 47.619 21.111V21.5638C47.619 21.9924 47.896 22.4452 48.6247 22.4452H49.3955C50.1453 22.4452 50.4223 21.9924 50.4223 21.5638V11.9713C50.4223 11.5397 50.1453 11.09 49.3955 11.09Z" fill="white"/>
<path d="M105.881 19.6652H95.8092C95.4479 19.6652 95.2702 19.8433 95.2702 20.2085V24.1626C95.2702 24.7753 95.4358 25.2311 95.764 25.5239C96.0953 25.8257 96.6764 25.9676 97.5045 25.9676H104.28C105.108 25.9676 105.686 25.8227 106.017 25.5239C106.348 25.2341 106.514 24.7783 106.514 24.1626V20.299C106.514 19.8765 106.303 19.6652 105.881 19.6652ZM104.37 23.746C104.37 24.0026 104.237 24.1294 103.972 24.1294H97.7755C97.5376 24.1294 97.4171 24.0026 97.4171 23.746V21.9048C97.4171 21.7479 97.4443 21.6422 97.4954 21.5909C97.5496 21.5336 97.64 21.5064 97.7755 21.5064H103.972C104.105 21.5064 104.204 21.5336 104.27 21.5909C104.337 21.6422 104.37 21.7479 104.37 21.9048V23.746ZM105.881 9.22756H104.999C104.581 9.22756 104.367 9.43885 104.367 9.8584V15.9827C103.587 16.3661 102.443 16.5623 100.925 16.5623H95.5382C95.3094 16.5623 95.1949 16.4294 95.1949 16.1638V15.2583C95.1949 15.0199 95.3154 14.8961 95.5533 14.8961H100.958C101.38 14.8961 101.591 14.6848 101.591 14.2653V10.3081C101.591 9.88859 101.377 9.6773 100.958 9.6773H93.5177C93.1564 9.6773 92.9757 9.85539 92.9757 10.2206V10.9601C92.9757 11.3223 93.1564 11.5004 93.5177 11.5004H99.0673C99.3051 11.5004 99.4256 11.6211 99.4256 11.8626V12.6957C99.4256 12.8527 99.3955 12.9583 99.3352 13.0126C99.272 13.0639 99.1817 13.0911 99.0642 13.0911H93.6593C93.2377 13.0911 93.0269 13.3024 93.0269 13.7219V16.5743C93.0269 17.1871 93.1925 17.6428 93.5237 17.9386C93.852 18.2345 94.4331 18.3824 95.2612 18.3824H100.901C101.621 18.3824 102.271 18.3341 102.846 18.2375C103.421 18.1409 103.927 17.9718 104.358 17.7334V18.328C104.358 18.7476 104.569 18.9619 104.99 18.9619H105.872C106.291 18.9619 106.505 18.7506 106.505 18.328V9.85539C106.514 9.43885 106.303 9.22756 105.881 9.22756ZM140.392 12.91H138.537C138.263 12.91 138.125 12.7742 138.125 12.4935V9.84029C138.125 9.42074 137.914 9.20945 137.492 9.20945H136.61C136.189 9.20945 135.978 9.42074 135.978 9.84029V17.8028C135.978 18.0322 136.008 18.2043 136.071 18.3099C136.131 18.4216 136.267 18.4729 136.484 18.4729H137.492C137.914 18.4729 138.125 18.2616 138.125 17.8421V15.1859C138.125 14.9082 138.263 14.7724 138.537 14.7724H140.392C140.753 14.7724 140.934 14.5912 140.934 14.229V13.4533C140.934 13.0911 140.753 12.91 140.392 12.91ZM136.529 19.4146C136.128 19.0524 135.653 18.7657 135.108 18.5574C134.56 18.3431 133.981 18.2405 133.367 18.2405C132.756 18.2405 132.178 18.3461 131.636 18.5574C131.094 18.7657 130.624 19.0524 130.223 19.4146C129.82 19.7769 129.501 20.2085 129.269 20.7065C129.034 21.2076 128.917 21.7448 128.917 22.3244C128.917 22.913 129.034 23.4593 129.269 23.9603C129.501 24.4584 129.82 24.89 130.223 25.2492C130.627 25.6114 131.094 25.8951 131.636 26.1004C132.178 26.3026 132.756 26.4083 133.367 26.4083C133.981 26.4083 134.56 26.3026 135.108 26.1004C135.653 25.8951 136.128 25.6144 136.529 25.2492C136.932 24.89 137.248 24.4614 137.483 23.9603C137.718 23.4593 137.833 22.913 137.833 22.3244C137.833 21.7448 137.718 21.2076 137.483 20.7065C137.248 20.2085 136.929 19.7769 136.529 19.4146ZM135.526 23.1786C135.409 23.4502 135.246 23.6887 135.041 23.8909C134.837 24.0962 134.599 24.2562 134.322 24.3708C134.042 24.4855 133.744 24.5399 133.421 24.5399C133.096 24.5399 132.798 24.4825 132.521 24.3708C132.244 24.2562 132 24.0962 131.792 23.8909C131.582 23.6857 131.416 23.4502 131.298 23.1786C131.175 22.9099 131.115 22.6172 131.115 22.3032C131.115 21.9893 131.175 21.6935 131.298 21.4189C131.416 21.1412 131.582 20.9027 131.792 20.7035C132.003 20.5043 132.244 20.3503 132.521 20.2356C132.798 20.1209 133.096 20.0636 133.421 20.0636C133.744 20.0636 134.045 20.1209 134.322 20.2356C134.599 20.3503 134.837 20.5043 135.041 20.7035C135.246 20.9027 135.409 21.1412 135.526 21.4189C135.65 21.6966 135.71 21.9924 135.71 22.3032C135.71 22.6172 135.65 22.9099 135.526 23.1786ZM131.121 17.3108C131.669 17.1056 132.142 16.8218 132.545 16.4627C132.952 16.1004 133.265 15.6688 133.503 15.1708C133.734 14.6697 133.852 14.1264 133.852 13.5378C133.852 12.9583 133.734 12.421 133.503 11.92C133.265 11.4219 132.949 10.9903 132.545 10.6281C132.145 10.2659 131.669 9.98216 131.121 9.77389C130.576 9.55958 129.998 9.45394 129.383 9.45394C128.769 9.45394 128.194 9.55958 127.652 9.77389C127.11 9.98216 126.643 10.2689 126.237 10.6281C125.836 10.9903 125.517 11.4219 125.282 11.92C125.047 12.421 124.93 12.9583 124.93 13.5378C124.93 14.1294 125.047 14.6697 125.282 15.1708C125.517 15.6688 125.836 16.1004 126.237 16.4627C126.643 16.8249 127.11 17.1056 127.652 17.3108C128.194 17.5161 128.769 17.6187 129.383 17.6187C129.998 17.6187 130.576 17.5161 131.121 17.3108ZM127.806 15.1074C127.595 14.9021 127.429 14.6667 127.312 14.3951C127.191 14.1264 127.128 13.8336 127.128 13.5197C127.128 13.2058 127.188 12.913 127.312 12.6383C127.429 12.3607 127.595 12.1222 127.806 11.923C128.016 11.7238 128.257 11.5698 128.537 11.4551C128.811 11.3404 129.112 11.2801 129.435 11.2801C129.76 11.2801 130.061 11.3404 130.335 11.4551C130.612 11.5698 130.853 11.7238 131.055 11.923C131.259 12.1222 131.422 12.3607 131.542 12.6383C131.663 12.913 131.723 13.2088 131.723 13.5197C131.723 13.8336 131.666 14.1264 131.542 14.3951C131.422 14.6667 131.259 14.9021 131.055 15.1074C130.853 15.3126 130.612 15.4696 130.335 15.5873C130.061 15.702 129.76 15.7564 129.435 15.7564C129.112 15.7564 128.811 15.699 128.537 15.5873C128.26 15.4696 128.016 15.3126 127.806 15.1074ZM172.512 16.3208H169.531C169.766 15.8861 169.934 15.3911 170.028 14.8206C170.124 14.2472 170.175 13.6012 170.175 12.8798V10.3745C170.175 9.95499 169.961 9.7437 169.543 9.7437H159.416C159.058 9.7437 158.877 9.92481 158.877 10.284V11.0597C158.877 11.4219 159.058 11.6 159.416 11.6H167.616C167.896 11.6 168.031 11.7389 168.031 12.0135V12.8919C168.031 14.392 167.839 15.53 167.459 16.3148H157.516C157.158 16.3148 156.977 16.4928 156.977 16.852V17.6308C156.977 17.993 157.158 18.1741 157.516 18.1741H163.557C163.686 18.1741 163.789 18.2013 163.852 18.2556C163.915 18.3099 163.951 18.4156 163.951 18.5725V25.4394C163.951 25.8619 164.159 26.0732 164.581 26.0732H165.463C165.881 26.0732 166.092 25.8619 166.092 25.4394V18.5725C166.092 18.4156 166.125 18.3099 166.192 18.2556C166.258 18.2043 166.357 18.1741 166.49 18.1741H172.509C172.867 18.1741 173.048 17.993 173.048 17.6308V16.852C173.051 16.4989 172.87 16.3208 172.512 16.3208ZM174.731 19.1702C174.815 19.4146 174.981 19.5505 175.219 19.5475C175.285 19.5475 175.366 19.5354 175.445 19.5112C176.685 19.1309 177.775 18.6419 178.721 18.0594C179.663 17.4799 180.446 16.7826 181.058 15.9616C181.091 15.9224 181.121 15.9103 181.142 15.9103C181.166 15.9103 181.193 15.9193 181.223 15.9616C181.84 16.7796 182.62 17.4799 183.566 18.0594C184.514 18.645 185.604 19.1309 186.839 19.5112C186.923 19.5354 186.998 19.5475 187.071 19.5475H187.077C187.309 19.5475 187.48 19.4146 187.565 19.1702L187.851 18.3944C187.878 18.3129 187.896 18.2284 187.896 18.156V18.153C187.896 18.1499 187.899 18.1469 187.899 18.1409C187.899 18.0684 187.884 18.002 187.854 17.9417C187.796 17.8149 187.676 17.7153 187.507 17.6549C186.706 17.4134 185.99 17.1237 185.348 16.7766C184.71 16.4294 184.168 16.034 183.716 15.5873C183.277 15.1406 182.93 14.6395 182.69 14.0842C182.443 13.5318 182.319 12.9221 182.319 12.255V11.4974C182.319 11.0688 182.093 10.8424 181.666 10.8424H180.624C180.196 10.8424 179.964 11.0688 179.964 11.4974V12.255C179.964 12.9251 179.841 13.5348 179.6 14.0842C179.353 14.6395 179.01 15.1406 178.564 15.5873C178.119 16.034 177.574 16.4294 176.938 16.7766C176.3 17.1237 175.58 17.4134 174.785 17.6549C174.611 17.7153 174.493 17.8119 174.436 17.9417C174.409 18.002 174.394 18.0684 174.394 18.1409C174.394 18.2224 174.409 18.3069 174.436 18.3944L174.731 19.1702ZM188.646 22.4361H182.554C182.545 22.4361 182.53 22.433 182.521 22.433C182.512 22.433 182.503 22.433 182.503 22.433L182.485 22.427C182.476 22.427 182.467 22.424 182.455 22.421C182.394 22.4089 182.358 22.3908 182.325 22.3636C182.271 22.3244 182.238 22.2218 182.241 22.0738V19.4478C182.241 19.0162 182.012 18.7898 181.581 18.7898H180.735C180.311 18.7898 180.082 19.0162 180.082 19.4478V22.0738C180.082 22.2248 180.046 22.3214 179.992 22.3636C179.937 22.4119 179.844 22.4361 179.712 22.4361H173.725C173.355 22.4361 173.156 22.6383 173.156 23.0065V23.7823C173.156 24.1505 173.355 24.3497 173.725 24.3497H188.649C189.016 24.3497 189.215 24.1505 189.215 23.7823V23.0065C189.212 22.6383 189.013 22.4361 188.646 22.4361ZM146.264 18.9076C146.767 18.9076 147.251 18.823 147.706 18.654C148.164 18.485 148.576 18.2526 148.941 17.9568C149.106 17.8209 149.26 17.676 149.401 17.5191H152.933C153.204 17.5191 153.343 17.6549 153.343 17.9326V20.9299C153.343 21.3494 153.557 21.5637 153.975 21.5637H154.858C155.279 21.5637 155.49 21.3525 155.49 20.9299V9.80709C155.49 9.38753 155.282 9.17625 154.858 9.17625H153.975C153.557 9.17625 153.343 9.38753 153.343 9.80709V11.1865C153.343 11.4642 153.204 11.603 152.933 11.603H149.368C149.227 11.4491 149.076 11.3012 148.911 11.1714C148.555 10.8816 148.146 10.6553 147.697 10.4953C147.248 10.3323 146.77 10.2538 146.264 10.2538C145.674 10.2538 145.126 10.3655 144.614 10.5919C144.105 10.8183 143.656 11.1231 143.274 11.5125C142.885 11.8988 142.584 12.3576 142.361 12.8889C142.139 13.4141 142.027 13.9815 142.027 14.5943C142.027 15.1979 142.139 15.7684 142.361 16.2966C142.584 16.8249 142.885 17.2837 143.274 17.673C143.656 18.0594 144.105 18.3642 144.614 18.5846C145.126 18.7989 145.674 18.9076 146.264 18.9076ZM152.933 13.4594C153.204 13.4594 153.343 13.5982 153.343 13.8729V15.2432C153.343 15.5209 153.204 15.6567 152.933 15.6567H150.386C150.392 15.6175 150.401 15.5752 150.407 15.536C150.627 14.2502 150.392 13.5378 150.392 13.5378C150.389 13.5107 150.377 13.4865 150.368 13.4594H152.933ZM144.138 14.5279C144.138 14.1958 144.192 13.8789 144.301 13.5891C144.409 13.2933 144.556 13.0458 144.749 12.8345C144.942 12.6202 145.171 12.4542 145.424 12.3365C145.683 12.2248 145.963 12.1614 146.264 12.1614C146.577 12.1614 146.863 12.2218 147.128 12.3365C147.393 12.4542 147.616 12.6202 147.806 12.8345C147.989 13.0458 148.14 13.2933 148.248 13.5891C148.354 13.8789 148.411 14.1958 148.411 14.5279C148.411 14.875 148.357 15.1949 148.248 15.4968C148.14 15.7926 147.992 16.0491 147.806 16.2634C147.616 16.4747 147.393 16.6438 147.128 16.7675C146.863 16.8882 146.574 16.9486 146.264 16.9486C145.966 16.9486 145.686 16.8882 145.424 16.7675C145.171 16.6468 144.942 16.4747 144.749 16.2634C144.556 16.0491 144.409 15.7926 144.301 15.4968C144.192 15.1979 144.138 14.878 144.138 14.5279ZM155.749 24.2079H147.152C147.02 24.2079 146.92 24.1807 146.851 24.1294C146.788 24.075 146.752 23.9664 146.752 23.8124V21.1231C146.752 20.7005 146.544 20.4892 146.122 20.4892H145.237C144.815 20.4892 144.608 20.7035 144.608 21.1231V24.2652C144.608 24.8779 144.77 25.3337 145.099 25.6325C145.427 25.9253 146.011 26.0732 146.839 26.0732H155.743C156.104 26.0732 156.282 25.8921 156.282 25.5299V24.7572C156.288 24.389 156.11 24.2079 155.749 24.2079ZM123.569 16.3208H108.607C108.245 16.3208 108.068 16.4989 108.068 16.8581V17.3984C108.068 17.7606 108.245 17.9417 108.607 17.9417H114.605C114.861 17.9507 114.993 18.0865 114.993 18.3522V18.6691C114.791 18.7144 114.596 18.7687 114.403 18.8442C113.882 19.0404 113.43 19.3181 113.048 19.6712C112.666 20.0274 112.358 20.4469 112.133 20.9269C111.901 21.4068 111.789 21.9259 111.789 22.4753C111.789 23.0428 111.904 23.5649 112.133 24.0418C112.358 24.5248 112.666 24.9383 113.048 25.2854C113.43 25.6356 113.882 25.9102 114.403 26.1064C114.927 26.3056 115.487 26.4022 116.089 26.4022C116.676 26.4022 117.23 26.3026 117.763 26.1064C118.29 25.9072 118.745 25.6356 119.127 25.2854C119.513 24.9383 119.817 24.5248 120.046 24.0418C120.269 23.5619 120.389 23.0397 120.389 22.4753C120.389 21.9259 120.269 21.4068 120.046 20.9269C119.817 20.4469 119.513 20.0274 119.127 19.6712C118.745 19.3181 118.29 19.0404 117.763 18.8442C117.574 18.7747 117.381 18.7174 117.185 18.6751V18.3552C117.185 18.0896 117.315 17.9537 117.571 17.9447H123.569C123.93 17.9447 124.108 17.7606 124.108 17.4014V16.8611C124.108 16.4989 123.93 16.3208 123.569 16.3208ZM117.634 20.9902C117.824 21.1744 117.974 21.3947 118.086 21.6483C118.191 21.8988 118.245 22.1735 118.245 22.4602C118.245 22.75 118.191 23.0216 118.086 23.2722C117.974 23.5227 117.821 23.743 117.634 23.9302C117.444 24.1173 117.218 24.2622 116.962 24.3739C116.7 24.4825 116.423 24.5338 116.125 24.5338C115.836 24.5338 115.562 24.4825 115.303 24.3739C115.044 24.2622 114.822 24.1203 114.629 23.9302C114.436 23.743 114.283 23.5227 114.171 23.2722C114.057 23.0216 113.999 22.75 113.999 22.4602C113.999 22.1735 114.057 21.8988 114.171 21.6483C114.286 21.3977 114.436 21.1744 114.629 20.9902C114.822 20.8031 115.044 20.6582 115.303 20.5496C115.562 20.4439 115.836 20.3835 116.125 20.3835C116.42 20.3835 116.7 20.4409 116.962 20.5496C117.218 20.6552 117.444 20.8031 117.634 20.9902ZM110.019 15.5149C110.1 15.7322 110.269 15.8529 110.501 15.8499C110.573 15.8499 110.651 15.8378 110.735 15.8197C111.973 15.4968 113.042 15.0832 113.942 14.5852C114.831 14.0872 115.547 13.565 116.089 13.0096C116.628 13.5529 117.342 14.0721 118.233 14.5641C119.133 15.0682 120.199 15.4847 121.44 15.8197C121.527 15.8378 121.6 15.8499 121.672 15.8499H121.678C121.91 15.8499 122.069 15.7322 122.157 15.5088L122.485 14.8025C122.518 14.721 122.533 14.6456 122.533 14.5701C122.533 14.5037 122.521 14.4433 122.491 14.386C122.434 14.2622 122.313 14.1807 122.142 14.1355C120.573 13.731 119.486 13.2873 118.634 12.6836C118.272 12.4271 117.998 12.1584 117.791 11.8717C117.727 11.7721 117.721 11.7026 117.73 11.6483C117.742 11.5608 117.842 11.5427 117.875 11.5366H121.292C121.654 11.5366 121.837 11.3585 121.837 10.9963V10.2176C121.837 9.85538 121.654 9.67428 121.292 9.67428H110.889C110.528 9.67428 110.347 9.85538 110.347 10.2176V10.9963C110.347 11.3616 110.531 11.5366 110.889 11.5366H114.352C114.385 11.5427 114.484 11.5608 114.496 11.6483C114.505 11.7057 114.499 11.7781 114.427 11.8868C114.222 12.1675 113.948 12.4301 113.596 12.6806C112.741 13.2843 111.609 13.737 110.04 14.1445C109.868 14.1868 109.745 14.2713 109.688 14.3951C109.66 14.4494 109.645 14.5158 109.645 14.5822C109.645 14.6516 109.66 14.7301 109.694 14.8086L110.019 15.5149ZM90.9522 14.8508H89.0974C88.8113 14.8508 88.6818 14.7271 88.6818 14.4373V9.88255C88.6818 9.45092 88.4831 9.24869 88.0525 9.24869H87.1672C86.7336 9.24869 86.5349 9.45092 86.5349 9.88255V25.1587C86.5349 25.5933 86.7336 25.7925 87.1672 25.7925H88.0525C88.4861 25.7925 88.6818 25.5933 88.6818 25.1587V17.1327C88.6818 16.84 88.8113 16.7162 89.0974 16.7162H90.9522C91.3136 16.7162 91.4942 16.517 91.4942 16.1759V15.3972C91.4942 15.05 91.3136 14.8508 90.9522 14.8508ZM84.5716 12.0135H81.2895C81.0004 12.0135 80.874 11.8868 80.874 11.597V9.75276C80.874 9.31811 80.6782 9.1189 80.2416 9.1189H79.3052C78.8746 9.1189 78.6728 9.31811 78.6728 9.75276V11.597C78.6728 11.8868 78.5494 12.0135 78.2573 12.0135H74.9782C74.6168 12.0135 74.4362 12.2128 74.4362 12.5538V13.2782C74.4362 13.6223 74.6138 13.8185 74.9782 13.8185H76.9444C75.9718 14.5611 75.3395 15.699 75.3395 17.0211C75.3395 19.3694 77.3419 21.1412 79.7779 21.1412C82.2139 21.1412 84.2133 19.3694 84.2133 17.0211C84.2133 15.699 83.584 14.5611 82.5903 13.8185H84.5747C84.936 13.8185 85.1136 13.6193 85.1136 13.2782V12.5568C85.1106 12.2128 84.93 12.0135 84.5716 12.0135ZM79.7719 19.2999C78.4922 19.2999 77.4623 18.2888 77.4623 16.9848C77.4623 15.6839 78.4891 14.6697 79.7719 14.6697C81.0516 14.6697 82.0814 15.6839 82.0814 16.9848C82.0814 18.2858 81.0516 19.2999 79.7719 19.2999Z" fill="white"/>
<path d="M161.765 35.0741C162.292 35.8377 163.102 36.2241 164.165 36.2241C164.879 36.2241 165.746 36.04 166.279 35.7804C166.399 35.72 166.435 35.6627 166.426 35.5359L166.372 34.9503C166.366 34.8598 166.309 34.8085 166.219 34.8085C166.195 34.8085 166.161 34.8115 166.131 34.8205C165.294 35.1344 164.641 35.1797 164.328 35.1797C163.641 35.1797 163.123 34.9292 162.783 34.4342C162.494 34.0116 162.346 33.417 162.346 32.7016C162.346 31.1109 163.024 30.1843 164.213 30.1601C164.234 30.1601 164.255 30.1601 164.276 30.1601C164.776 30.1601 165.418 30.2869 166.038 30.5072C166.065 30.5223 166.095 30.5284 166.125 30.5284C166.207 30.5284 166.27 30.471 166.279 30.3895L166.333 29.8221C166.342 29.6953 166.306 29.6349 166.186 29.5776C165.634 29.3059 164.831 29.1309 164.138 29.1309C163.253 29.1369 162.539 29.4055 162.024 29.9338C161.705 30.2567 161.467 30.6793 161.31 31.1773C161.172 31.6391 161.1 32.1583 161.112 32.7227C161.118 33.3747 161.241 34.3165 161.765 35.0741Z" fill="white"/>
<path d="M180.23 35.7894L180.199 35.222C180.199 35.1224 180.139 35.0892 180.082 35.0892C179.959 35.0892 179.736 35.2522 179.236 35.2522C178.691 35.2522 178.585 35.0288 178.585 34.4463V32.0346H179.793C179.943 32.0346 180.019 31.9531 180.019 31.7991V31.3192C180.019 31.1622 179.943 31.0838 179.793 31.0838H178.585V29.6561C178.585 29.5474 178.528 29.484 178.438 29.484C178.387 29.484 177.875 29.5897 177.715 29.6198C177.532 29.6561 177.483 29.7526 177.483 29.97V31.0868H176.926C176.845 31.0868 176.7 31.12 176.7 31.3222V31.8021C176.7 32.0074 176.845 32.0376 176.926 32.0376H177.483V34.6455C177.483 35.5932 177.733 36.2241 178.944 36.2241C179.416 36.2241 179.853 36.1396 180.13 35.9947C180.226 35.9554 180.239 35.889 180.23 35.7894Z" fill="white"/>
<path d="M175.942 36.2241C176.17 36.2241 176.291 36.1275 176.291 35.9313V33.0578C176.291 32.4239 176.188 31.9832 175.969 31.6633C175.692 31.2679 175.237 31.0717 174.575 31.0717C174.111 31.0717 173.566 31.2769 173.108 31.621V31.4399C173.108 31.2437 172.997 31.1471 172.762 31.1471H172.355C172.123 31.1471 172.009 31.2407 172.009 31.4399V35.9313C172.009 36.1275 172.126 36.2241 172.355 36.2241H172.762C172.991 36.2241 173.108 36.1275 173.108 35.9313V32.4812C173.409 32.2579 173.894 32.0919 174.27 32.0919C174.921 32.0919 175.186 32.3967 175.186 33.1332V35.9313C175.186 36.1275 175.303 36.2241 175.535 36.2241H175.942Z" fill="white"/>
<path d="M108.676 34.0569C108.67 34.404 108.601 34.7119 108.468 34.9805C108.336 35.2462 108.155 35.4725 107.935 35.6536C107.712 35.8378 107.453 35.9736 107.164 36.0702C106.872 36.1668 106.562 36.2151 106.231 36.2211C106.035 36.2211 105.842 36.2211 105.653 36.2181C105.46 36.2181 105.279 36.209 105.105 36.2C104.93 36.1879 104.773 36.1788 104.632 36.1638C104.49 36.1487 104.373 36.1306 104.28 36.1155C104.138 36.0853 104.018 36.0491 103.915 36.0098C103.81 35.9706 103.723 35.9162 103.653 35.8498C103.584 35.7834 103.53 35.7019 103.494 35.6054C103.458 35.5057 103.439 35.385 103.439 35.2371V30.0213C103.439 29.8795 103.451 29.7617 103.47 29.6651C103.488 29.5686 103.521 29.4871 103.566 29.4297C103.611 29.3663 103.671 29.318 103.75 29.2818C103.825 29.2456 103.921 29.2154 104.036 29.1913C104.31 29.1369 104.599 29.1007 104.906 29.0796C105.213 29.0615 105.532 29.0554 105.86 29.0615C106.219 29.0735 106.553 29.1158 106.863 29.1913C107.176 29.2637 107.447 29.3784 107.676 29.5293C107.908 29.6802 108.089 29.8795 108.218 30.1209C108.351 30.3594 108.414 30.6491 108.414 30.9842C108.414 31.2408 108.36 31.4852 108.236 31.7177C108.119 31.9501 107.953 32.1523 107.739 32.3304C108.056 32.4934 108.293 32.7318 108.453 33.0427C108.604 33.3506 108.682 33.6917 108.676 34.0569ZM107.279 31.0114C107.279 30.8212 107.227 30.6703 107.125 30.5526C107.023 30.4379 106.896 30.3473 106.74 30.2839C106.586 30.2205 106.43 30.1783 106.261 30.1571C106.092 30.136 105.945 30.1239 105.806 30.1239C105.71 30.1239 105.604 30.127 105.487 30.133C105.373 30.139 105.258 30.1451 105.144 30.1571C105.029 30.1662 104.924 30.1783 104.822 30.1934C104.716 30.2085 104.632 30.2205 104.563 30.2326V31.9259H106.318C106.622 31.9259 106.857 31.8384 107.026 31.6663C107.194 31.4883 107.279 31.2709 107.279 31.0114ZM107.544 34.0569C107.55 33.8668 107.523 33.7038 107.456 33.5649C107.393 33.4291 107.303 33.3174 107.188 33.2329C107.071 33.1514 106.938 33.091 106.791 33.0488C106.64 33.0095 106.487 32.9884 106.321 32.9884H104.566V35.0228C104.825 35.0711 105.087 35.1073 105.358 35.1284C105.629 35.1496 105.878 35.1556 106.11 35.1405C106.306 35.1345 106.49 35.1073 106.664 35.059C106.839 35.0077 106.987 34.9413 107.116 34.8508C107.243 34.7632 107.345 34.6546 107.423 34.5187C107.498 34.3889 107.538 34.235 107.544 34.0569Z" fill="white"/>
<path d="M109.805 30.0787H110.013C110.284 30.0787 110.446 29.9338 110.446 29.6923V29.4086C110.446 29.1641 110.284 29.0222 110.013 29.0222H109.805C109.513 29.0222 109.35 29.158 109.35 29.4086V29.6923C109.35 29.9428 109.513 30.0787 109.805 30.0787Z" fill="white"/>
<path d="M109.703 36.1577H110.106C110.338 36.1577 110.452 36.0581 110.452 35.8649V31.3735C110.452 31.1773 110.341 31.0837 110.106 31.0837H109.703C109.468 31.0837 109.35 31.1773 109.35 31.3735V35.8649C109.35 36.0581 109.468 36.1577 109.703 36.1577Z" fill="white"/>
<path d="M114.686 33.6162C114.686 34.6786 114.274 35.2431 113.497 35.2431C112.717 35.2431 112.307 34.6786 112.307 33.6162C112.307 32.5507 112.717 31.9862 113.497 31.9862C114.274 31.9862 114.686 32.5507 114.686 33.6162ZM113.494 31.0052C112.118 31.0052 111.139 31.9349 111.139 33.6162C111.139 35.2914 112.121 36.2241 113.497 36.2241C114.873 36.2241 115.851 35.2914 115.851 33.6162C115.851 31.9349 114.873 31.0052 113.494 31.0052Z" fill="white"/>
<path d="M167.908 33.9452C167.914 34.072 167.938 34.2078 167.98 34.3467C168.022 34.4885 168.092 34.6153 168.188 34.73C168.287 34.8477 168.417 34.9443 168.585 35.0288C168.754 35.1103 168.968 35.1616 169.23 35.1797C169.293 35.1858 169.374 35.1918 169.483 35.1918C169.588 35.1918 169.712 35.1797 169.856 35.1586C169.998 35.1375 170.16 35.0982 170.344 35.0409C170.531 34.9835 170.726 34.896 170.946 34.7904C171.061 34.727 171.151 34.727 171.211 34.7813C171.271 34.8356 171.301 34.9171 171.301 35.0288V35.5148C171.301 35.6174 171.283 35.6898 171.25 35.7291C171.214 35.7683 171.148 35.8076 171.055 35.8528C170.88 35.9313 170.702 35.9977 170.531 36.049C170.356 36.1003 170.19 36.1396 170.025 36.1668C169.862 36.1939 169.706 36.212 169.564 36.2181C169.419 36.2211 169.299 36.2271 169.194 36.2271C168.712 36.1909 168.317 36.0853 168.007 35.9072C167.697 35.7291 167.45 35.5148 167.27 35.2612C167.086 35.0077 166.953 34.733 166.878 34.4402C166.797 34.1414 166.755 33.8577 166.749 33.583C166.737 33.1997 166.779 32.8375 166.872 32.4964C166.965 32.1583 167.11 31.8625 167.309 31.606C167.507 31.3464 167.757 31.1502 168.064 31.0083C168.366 30.8634 168.727 30.794 169.139 30.8C169.474 30.8031 169.781 30.8725 170.061 30.9962C170.338 31.12 170.582 31.2951 170.781 31.5154C170.982 31.7388 171.133 32.0074 171.235 32.3274C171.338 32.6443 171.386 33.0005 171.383 33.3959C171.374 33.4985 171.365 33.586 171.35 33.6554C171.335 33.7249 171.307 33.7822 171.262 33.8245C171.22 33.8667 171.166 33.8969 171.097 33.915C171.03 33.9331 170.943 33.9422 170.835 33.9422H167.908V33.9452ZM169.139 31.8052C168.92 31.8052 168.736 31.8414 168.582 31.9108C168.432 31.9833 168.308 32.0708 168.212 32.1794C168.119 32.2881 168.049 32.4119 168.004 32.5447C167.959 32.6775 167.932 32.8103 167.929 32.9401H170.275C170.26 32.8043 170.235 32.6714 170.196 32.5326C170.157 32.3968 170.097 32.273 170.013 32.1674C169.931 32.0617 169.82 31.9742 169.681 31.9048C169.537 31.8384 169.356 31.8052 169.139 31.8052Z" fill="white"/>
<path d="M120.552 36.1396C120.516 36.1939 120.413 36.2211 120.242 36.2211H119.832C119.651 36.2211 119.549 36.1939 119.519 36.1396C119.486 36.0853 119.474 35.9826 119.474 35.8287V30.2296C119.474 30.0424 119.495 29.8885 119.537 29.7708C119.579 29.6561 119.636 29.5625 119.715 29.4931C119.79 29.4206 119.883 29.3724 119.992 29.3392C120.103 29.309 120.224 29.2848 120.359 29.2667C120.627 29.2335 120.901 29.2154 121.19 29.2003C121.473 29.1882 121.765 29.1852 122.057 29.1913C122.41 29.1973 122.738 29.2426 123.042 29.3331C123.346 29.4146 123.611 29.5474 123.84 29.7225C124.069 29.9036 124.249 30.127 124.388 30.4016C124.523 30.6793 124.602 31.0083 124.608 31.3886C124.617 31.6271 124.59 31.8444 124.523 32.0436C124.46 32.2428 124.373 32.4209 124.258 32.5869C124.144 32.753 124.018 32.8978 123.87 33.0216C123.725 33.1453 123.572 33.251 123.415 33.3265L124.957 35.7593C125.041 35.8981 125.059 36.0128 125.011 36.0943C124.963 36.1728 124.873 36.2151 124.74 36.2151H124.063C123.978 36.2151 123.906 36.1879 123.849 36.1366C123.792 36.0853 123.741 36.0249 123.695 35.9585L122.253 33.6072C122.118 33.6192 121.973 33.6223 121.819 33.6192C121.666 33.6162 121.512 33.6102 121.359 33.6072C121.208 33.6011 121.064 33.5921 120.934 33.58C120.805 33.5679 120.693 33.5558 120.603 33.5468V35.8227C120.606 35.9826 120.588 36.0883 120.552 36.1396ZM123.482 31.4007C123.482 31.2075 123.436 31.0385 123.352 30.9027C123.262 30.7669 123.144 30.6552 123.003 30.5646C122.858 30.4771 122.699 30.4107 122.527 30.3684C122.355 30.3262 122.178 30.302 122.003 30.293C121.913 30.293 121.801 30.293 121.666 30.293C121.53 30.293 121.398 30.296 121.265 30.302C121.13 30.3081 121.003 30.3171 120.88 30.3322C120.76 30.3443 120.669 30.3563 120.609 30.3684V32.4179C120.732 32.4421 120.907 32.4692 121.136 32.4934C121.368 32.5205 121.672 32.5296 122.06 32.5175C122.241 32.5115 122.419 32.4783 122.593 32.424C122.768 32.3696 122.918 32.2942 123.051 32.2006C123.183 32.107 123.286 31.9893 123.367 31.8535C123.439 31.7176 123.482 31.5667 123.482 31.4007Z" fill="white"/>
<path d="M126.192 33.9452C126.195 34.072 126.219 34.2078 126.261 34.3467C126.303 34.4885 126.375 34.6153 126.472 34.73C126.571 34.8477 126.701 34.9443 126.869 35.0288C127.038 35.1103 127.252 35.1616 127.514 35.1797C127.574 35.1858 127.661 35.1918 127.766 35.1918C127.869 35.1918 127.995 35.1797 128.137 35.1586C128.281 35.1375 128.447 35.0982 128.628 35.0409C128.811 34.9835 129.01 34.896 129.227 34.7904C129.344 34.727 129.432 34.727 129.492 34.7813C129.555 34.8356 129.585 34.9171 129.585 35.0288V35.5148C129.585 35.6174 129.57 35.6898 129.534 35.7291C129.501 35.7683 129.435 35.8076 129.338 35.8528C129.164 35.9313 128.989 35.9977 128.814 36.049C128.64 36.1003 128.474 36.1396 128.308 36.1668C128.143 36.1939 127.989 36.212 127.848 36.2181C127.703 36.2211 127.583 36.2271 127.477 36.2271C126.996 36.1909 126.601 36.0853 126.291 35.9072C125.981 35.7291 125.734 35.5148 125.55 35.2612C125.37 35.0077 125.237 34.733 125.159 34.4402C125.081 34.1414 125.038 33.8577 125.029 33.583C125.017 33.1997 125.059 32.8375 125.153 32.4964C125.249 32.1583 125.394 31.8625 125.592 31.606C125.791 31.3464 126.041 31.1502 126.345 31.0083C126.649 30.8634 127.011 30.794 127.423 30.8C127.757 30.8031 128.062 30.8725 128.342 30.9962C128.622 31.12 128.86 31.2951 129.064 31.5154C129.266 31.7388 129.417 32.0074 129.522 32.3274C129.624 32.6443 129.673 33.0005 129.667 33.3959C129.66 33.4985 129.651 33.586 129.633 33.6554C129.618 33.7249 129.588 33.7822 129.546 33.8245C129.504 33.8667 129.45 33.8969 129.38 33.915C129.311 33.9331 129.224 33.9422 129.115 33.9422H126.192V33.9452ZM127.423 31.8052C127.2 31.8052 127.017 31.8414 126.866 31.9108C126.716 31.9833 126.589 32.0708 126.496 32.1794C126.402 32.2881 126.333 32.4119 126.288 32.5447C126.237 32.6775 126.213 32.8103 126.21 32.9401H128.555C128.543 32.8043 128.516 32.6714 128.477 32.5326C128.438 32.3968 128.375 32.273 128.296 32.1674C128.212 32.0617 128.101 31.9742 127.962 31.9048C127.821 31.8384 127.64 31.8052 127.423 31.8052Z" fill="white"/>
<path d="M136.008 33.9452C136.014 34.072 136.041 34.2078 136.083 34.3467C136.125 34.4885 136.198 34.6153 136.291 34.73C136.39 34.8477 136.52 34.9443 136.689 35.0288C136.857 35.1103 137.071 35.1616 137.333 35.1797C137.393 35.1858 137.474 35.1918 137.583 35.1918C137.691 35.1918 137.815 35.1797 137.956 35.1586C138.098 35.1375 138.263 35.0982 138.444 35.0409C138.628 34.9835 138.829 34.896 139.046 34.7904C139.164 34.727 139.251 34.727 139.311 34.7813C139.374 34.8356 139.402 34.9171 139.402 35.0288V35.5148C139.402 35.6174 139.386 35.6898 139.35 35.7291C139.317 35.7683 139.254 35.8076 139.155 35.8528C138.98 35.9313 138.802 35.9977 138.631 36.049C138.459 36.1003 138.29 36.1396 138.125 36.1668C137.962 36.1939 137.809 36.212 137.664 36.2181C137.52 36.2211 137.396 36.2271 137.294 36.2271C136.815 36.1909 136.417 36.0853 136.107 35.9072C135.797 35.7291 135.55 35.5148 135.367 35.2612C135.183 35.0077 135.053 34.733 134.978 34.4402C134.894 34.1414 134.855 33.8577 134.849 33.583C134.837 33.1997 134.879 32.8375 134.972 32.4964C135.065 32.1583 135.213 31.8625 135.412 31.606C135.607 31.3464 135.857 31.1502 136.165 31.0083C136.469 30.8634 136.827 30.794 137.24 30.8C137.577 30.8031 137.881 30.8725 138.164 30.9962C138.444 31.12 138.685 31.2951 138.884 31.5154C139.085 31.7388 139.239 32.0074 139.341 32.3274C139.447 32.6443 139.495 33.0005 139.489 33.3959C139.483 33.4985 139.471 33.586 139.456 33.6554C139.441 33.7249 139.414 33.7822 139.371 33.8245C139.329 33.8667 139.275 33.8969 139.206 33.915C139.14 33.9331 139.049 33.9422 138.941 33.9422H136.008V33.9452ZM137.24 31.8052C137.023 31.8052 136.833 31.8414 136.685 31.9108C136.529 31.9833 136.408 32.0708 136.315 32.1794C136.219 32.2881 136.15 32.4119 136.104 32.5447C136.059 32.6775 136.032 32.8103 136.026 32.9401H138.372C138.36 32.8043 138.333 32.6714 138.293 32.5326C138.254 32.3968 138.194 32.273 138.113 32.1674C138.028 32.0617 137.92 31.9742 137.782 31.9048C137.64 31.8384 137.459 31.8052 137.24 31.8052Z" fill="white"/>
<path d="M151.277 31.8474C150.832 31.8655 150.485 32.0225 150.233 32.3122C149.977 32.602 149.85 33.0034 149.85 33.5166C149.85 33.7369 149.874 33.9422 149.925 34.1323C149.974 34.3255 150.052 34.4945 150.163 34.6455C150.272 34.7964 150.413 34.9171 150.594 35.0077C150.775 35.0982 150.997 35.1525 151.265 35.1707C151.753 35.2008 152.265 35.065 152.798 34.7692C152.903 34.7119 152.988 34.7028 153.063 34.742C153.135 34.7783 153.171 34.8567 153.171 34.9805V35.4755C153.171 35.5872 153.156 35.6627 153.129 35.7079C153.099 35.7532 153.033 35.8015 152.927 35.8498C152.84 35.889 152.735 35.9373 152.605 35.9826C152.479 36.0279 152.34 36.0701 152.19 36.1094C152.033 36.1486 151.877 36.1818 151.708 36.1999C151.542 36.2211 151.374 36.2301 151.211 36.2241C150.747 36.206 150.359 36.1154 150.043 35.9554C149.727 35.7924 149.468 35.5902 149.269 35.3397C149.07 35.0892 148.932 34.8024 148.844 34.4855C148.76 34.1685 148.718 33.8456 148.718 33.5166C148.718 33.1423 148.769 32.7891 148.874 32.4601C148.983 32.1281 149.142 31.8353 149.359 31.5939C149.576 31.3494 149.841 31.1532 150.163 31.0113C150.482 30.8664 150.859 30.797 151.289 30.797C151.413 30.797 151.542 30.8061 151.681 30.8211C151.822 30.8393 151.961 30.8634 152.096 30.8966C152.235 30.9268 152.364 30.96 152.491 31.0023C152.614 31.0415 152.729 31.0837 152.831 31.126C152.915 31.1683 152.976 31.2075 153.009 31.2437C153.042 31.2799 153.06 31.3494 153.06 31.455V31.95C153.06 32.0345 153.045 32.0979 153.018 32.1432C152.991 32.1855 152.958 32.2126 152.918 32.2247C152.879 32.2398 152.834 32.2398 152.786 32.2307C152.738 32.2217 152.693 32.2066 152.65 32.1824C152.401 32.0587 152.145 31.9712 151.889 31.9198C151.636 31.8625 151.428 31.8414 151.277 31.8474Z" fill="white"/>
<path d="M155.05 35.9343V32.4813C155.345 32.2579 155.833 32.0949 156.21 32.0949C156.863 32.0949 157.125 32.3968 157.125 33.1363V35.9343C157.125 36.1275 157.242 36.2241 157.474 36.2241H157.878C158.113 36.2241 158.227 36.1275 158.227 35.9343V33.0578C158.227 31.8052 157.809 31.0747 156.511 31.0747C156.047 31.0747 155.502 31.28 155.047 31.621V29.152C155.047 28.9588 154.933 28.8652 154.698 28.8652H154.292C154.057 28.8652 153.942 28.9588 153.942 29.152V35.9313C153.942 36.1245 154.06 36.2211 154.292 36.2211H154.698C154.933 36.2241 155.05 36.1275 155.05 35.9343Z" fill="white"/>
<path d="M132.497 33.1272C131.934 32.9702 131.446 32.8284 131.446 32.4813C131.446 32.1402 131.792 31.95 132.428 31.95C132.798 31.95 133.328 32.0526 133.807 32.2156C133.921 32.2488 134.042 32.2005 134.069 32.0889C134.099 31.9138 134.126 31.7236 134.144 31.5667C134.159 31.458 134.099 31.3675 133.972 31.3192C133.593 31.1683 132.958 31.0173 132.404 31.0173C131.133 31.0173 130.329 31.5425 130.329 32.5386C130.329 33.6343 131.308 33.8848 132.163 34.1534C132.557 34.2772 133.226 34.4342 133.226 34.8145C133.226 35.1284 132.882 35.2703 132.301 35.2703C131.696 35.2703 130.934 35.1042 130.6 34.9986C130.552 34.9835 130.516 34.9775 130.483 34.9775C130.398 34.9775 130.344 35.0258 130.335 35.1073L130.257 35.6657C130.239 35.7834 130.302 35.8739 130.431 35.9192C130.868 36.0701 131.576 36.2241 132.193 36.2241C133.587 36.2241 134.382 35.6415 134.382 34.7632C134.373 34.0086 133.921 33.5377 132.497 33.1272Z" fill="white"/>
<path d="M144.487 35.2341C144.322 35.1737 144.322 35.1375 144.322 34.5459V32.8978C144.322 32.2428 144.165 31.775 143.846 31.4731C143.518 31.1683 143.003 31.0204 142.277 31.0204C141.753 31.0204 141.024 31.1321 140.699 31.2588C140.504 31.3343 140.47 31.4309 140.479 31.5637L140.516 32.0165C140.54 32.1704 140.645 32.2096 140.814 32.1734C141.115 32.0949 141.579 31.9953 142.021 31.9953C142.816 31.9953 143.223 32.1251 143.223 32.8375V33.1544C142.726 33.1031 142.253 33.0518 141.862 33.0518C140.669 33.0518 140.061 33.6041 140.061 34.6968C140.061 35.6325 140.525 36.2271 141.615 36.2271C142.304 36.2271 142.762 36.043 143.265 35.7442C143.467 36.0822 143.719 36.2271 144.114 36.2271C144.346 36.2271 144.593 36.1517 144.593 35.9434V35.4242C144.596 35.3035 144.575 35.2673 144.487 35.2341ZM141.994 35.3457C141.503 35.3457 141.229 35.1224 141.229 34.6274C141.229 34.0569 141.449 33.8698 142.096 33.8698C142.334 33.8698 142.699 33.909 143.199 33.9995V35.0107C142.696 35.2401 142.301 35.3457 141.994 35.3457Z" fill="white"/>
<path d="M147.923 31.0837C147.724 31.0837 147.044 31.1381 146.49 31.8414V31.4399C146.49 31.2437 146.375 31.1501 146.14 31.1501H145.734C145.499 31.1501 145.385 31.2437 145.385 31.4399V35.9313C145.385 36.1275 145.502 36.2241 145.734 36.2241H146.14C146.369 36.2241 146.49 36.1275 146.49 35.9313V32.8193C146.694 32.5296 147.038 32.1523 147.649 32.1523C147.83 32.1523 148.01 32.1975 148.167 32.1975C148.354 32.1975 148.354 32.1009 148.354 31.9832V31.4248C148.354 31.132 148.293 31.0837 147.923 31.0837Z" fill="white"/>
<path d="M181.777 33.9452C181.783 34.072 181.807 34.2078 181.849 34.3467C181.892 34.4885 181.964 34.6153 182.06 34.73C182.157 34.8477 182.292 34.9443 182.458 35.0288C182.626 35.1103 182.84 35.1616 183.102 35.1797C183.162 35.1858 183.244 35.1918 183.352 35.1918C183.457 35.1918 183.584 35.1797 183.725 35.1586C183.867 35.1375 184.03 35.0982 184.216 35.0409C184.397 34.9835 184.599 34.896 184.815 34.7904C184.93 34.727 185.017 34.727 185.08 34.7813C185.144 34.8356 185.171 34.9171 185.171 35.0288V35.5148C185.171 35.6174 185.156 35.6898 185.12 35.7291C185.086 35.7683 185.023 35.8076 184.924 35.8528C184.749 35.9313 184.575 35.9977 184.4 36.049C184.225 36.1003 184.057 36.1396 183.894 36.1668C183.728 36.1939 183.575 36.212 183.43 36.2181C183.289 36.2211 183.165 36.2271 183.06 36.2271C182.578 36.1909 182.184 36.0853 181.874 35.9072C181.563 35.7291 181.317 35.5148 181.136 35.2612C180.952 35.0077 180.823 34.733 180.744 34.4402C180.666 34.1414 180.621 33.8577 180.615 33.583C180.606 33.1997 180.645 32.8375 180.738 32.4964C180.832 32.1583 180.979 31.8625 181.178 31.606C181.377 31.3464 181.627 31.1502 181.931 31.0083C182.235 30.8634 182.596 30.794 183.009 30.8C183.346 30.8031 183.65 30.8725 183.93 30.9962C184.207 31.12 184.448 31.2951 184.65 31.5154C184.852 31.7388 185.002 32.0074 185.105 32.3274C185.21 32.6443 185.258 33.0005 185.252 33.3959C185.246 33.4985 185.237 33.586 185.222 33.6554C185.207 33.7249 185.18 33.7822 185.135 33.8245C185.092 33.8667 185.038 33.8969 184.969 33.915C184.903 33.9331 184.815 33.9422 184.704 33.9422H181.777V33.9452ZM183.009 31.8052C182.789 31.8052 182.602 31.8414 182.452 31.9108C182.301 31.9833 182.175 32.0708 182.081 32.1794C181.988 32.2881 181.919 32.4119 181.874 32.5447C181.828 32.6775 181.801 32.8103 181.795 32.9401H184.141C184.129 32.8043 184.102 32.6714 184.063 32.5326C184.024 32.3968 183.963 32.273 183.879 32.1674C183.798 32.0617 183.686 31.9742 183.545 31.9048C183.403 31.8384 183.229 31.8052 183.009 31.8052Z" fill="white"/>
<path d="M188.51 31.0837C188.311 31.0837 187.634 31.1381 187.074 31.8414V31.4399C187.074 31.2437 186.962 31.1501 186.725 31.1501H186.321C186.086 31.1501 185.975 31.2437 185.975 31.4399V35.9313C185.975 36.1275 186.089 36.2241 186.321 36.2241H186.725C186.959 36.2241 187.074 36.1275 187.074 35.9313V32.8193C187.282 32.5296 187.625 32.1523 188.239 32.1523C188.42 32.1523 188.597 32.1975 188.757 32.1975C188.944 32.1975 188.944 32.1009 188.944 31.9832V31.4248C188.944 31.132 188.88 31.0837 188.51 31.0837Z" fill="white"/>
<path d="M118.345 33.58C118.537 33.58 118.634 33.4623 118.634 33.2329V32.8284C118.634 32.593 118.534 32.4783 118.345 32.4783H116.827C116.631 32.4783 116.532 32.593 116.532 32.8284V33.2329C116.532 33.4683 116.628 33.58 116.827 33.58H118.345Z" fill="white"/>
<path d="M91.2744 30.0877H91.4822C91.7532 30.0877 91.9158 29.9428 91.9158 29.7014V29.4176C91.9158 29.1731 91.7532 29.0343 91.4822 29.0343H91.2744C90.9854 29.0343 90.8228 29.1701 90.8228 29.4176V29.7014C90.8228 29.9519 90.9823 30.0877 91.2744 30.0877Z" fill="white"/>
<path d="M90.8228 35.868C90.8228 36.0611 90.9402 36.1607 91.172 36.1607H91.5755C91.8074 36.1607 91.9218 36.0611 91.9218 35.868V31.3826C91.9218 31.1864 91.8104 31.0898 91.5755 31.0898H91.172C90.9372 31.0898 90.8228 31.1864 90.8228 31.3826V35.868Z" fill="white"/>
<path d="M76.0201 36.1637H76.4928C76.7217 36.1637 76.8391 36.0641 76.8391 35.8709V33.0548H79.6575V35.8709C79.6575 36.0641 79.775 36.1637 80.0038 36.1637H80.4735C80.7054 36.1637 80.8228 36.0641 80.8228 35.8709V29.5897C80.8228 29.3935 80.7084 29.2969 80.4735 29.2969H80.0038C79.7689 29.2969 79.6575 29.3935 79.6575 29.5897V32.0738H76.8391V29.5897C76.8391 29.3935 76.7247 29.2969 76.4928 29.2969H76.0201C75.7852 29.2969 75.6708 29.3935 75.6708 29.5897V35.8709C75.6738 36.0641 75.7882 36.1637 76.0201 36.1637Z" fill="white"/>
<path d="M89.5701 31.0234C89.3744 31.0234 88.6939 31.0778 88.1398 31.7811V31.3796C88.1398 31.1834 88.0254 31.0868 87.7936 31.0868H87.3871C87.1522 31.0868 87.0408 31.1834 87.0408 31.3796V35.8649C87.0408 36.0581 87.1582 36.1577 87.3871 36.1577H87.7936C88.0224 36.1577 88.1398 36.0581 88.1398 35.8649V32.756C88.3446 32.4662 88.6909 32.0859 89.2991 32.0859C89.4798 32.0859 89.6605 32.1312 89.817 32.1312C90.0037 32.1312 90.0037 32.0376 90.0037 31.9139V31.3585C90.0037 31.0748 89.9435 31.0234 89.5701 31.0234Z" fill="white"/>
<path d="M86.1104 35.2401C85.9418 35.1798 85.9418 35.1436 85.9418 34.5489V32.9009C85.9418 32.2459 85.7852 31.778 85.466 31.4792C85.1378 31.1744 84.6259 31.0234 83.9002 31.0234C83.3733 31.0234 82.6506 31.1351 82.3194 31.2619C82.1237 31.3313 82.0905 31.4309 82.1026 31.5607L82.1387 32.0165C82.1598 32.1704 82.2682 32.2097 82.4368 32.1704C82.744 32.095 83.2017 31.9923 83.6473 31.9923C84.4422 31.9923 84.8457 32.1221 84.8457 32.8345V33.1544C84.3519 33.1001 83.8761 33.0518 83.4877 33.0518C82.2953 33.0518 81.6901 33.6042 81.6901 34.6938C81.6901 35.6355 82.1508 36.2241 83.2408 36.2241C83.9303 36.2241 84.388 36.04 84.8909 35.7382C85.0896 36.0793 85.3426 36.2241 85.737 36.2241C85.9689 36.2241 86.2188 36.1487 86.2188 35.9434V35.4212C86.2158 35.3065 86.1947 35.2703 86.1104 35.2401ZM83.6172 35.3518C83.1264 35.3518 82.8554 35.1285 82.8554 34.6304C82.8554 34.0599 83.0722 33.8728 83.7226 33.8728C83.9605 33.8728 84.3218 33.9151 84.8247 34.0026V35.0168C84.3188 35.2432 83.9213 35.3518 83.6172 35.3518Z" fill="white"/>
<path d="M98.1338 32.0346C98.7571 32.0346 98.9619 32.3757 98.9619 33.076V35.868C98.9619 36.0612 99.0763 36.1608 99.3082 36.1608H99.7147C99.9465 36.1608 100.061 36.0612 100.061 35.868V32.9975C100.061 31.7539 99.6755 31.0144 98.441 31.0144C98.0254 31.0144 97.3841 31.1774 96.8149 31.6392C96.4867 31.2197 96.0411 31.0144 95.4449 31.0144C95.0053 31.0144 94.5084 31.2106 94.0778 31.5607V31.3826C94.0778 31.1865 93.9634 31.0899 93.7315 31.0899H93.3281C93.0932 31.0899 92.9788 31.1865 92.9788 31.3826V35.868C92.9788 36.0612 93.0962 36.1608 93.3281 36.1608H93.7315C93.9634 36.1608 94.0778 36.0612 94.0778 35.868V32.418C94.385 32.1674 94.8457 32.0346 95.1438 32.0346C95.7309 32.0346 95.9628 32.3274 95.9628 33.076V35.868C95.9628 36.0612 96.0802 36.1608 96.3091 36.1608H96.7156C96.9474 36.1608 97.0619 36.0612 97.0619 35.868V32.9794C97.0619 32.8436 97.0589 32.596 97.0197 32.427C97.3118 32.2067 97.7966 32.0346 98.1338 32.0346Z" fill="white"/>
</g>
<defs>
<linearGradient id="paint0_linear_3589_2227" x1="10.1334" y1="7.00747" x2="57.214" y2="34.1241" gradientUnits="userSpaceOnUse">
<stop stop-color="#CE1621"/>
<stop offset="0.05" stop-color="#CE1621"/>
<stop offset="0.1117" stop-color="#D21623"/>
<stop offset="0.1924" stop-color="#DE1925"/>
<stop offset="0.25" stop-color="#ED1B28"/>
<stop offset="0.72" stop-color="#ED1B28"/>
<stop offset="0.7663" stop-color="#E61A27"/>
<stop offset="0.8268" stop-color="#DA1824"/>
<stop offset="0.87" stop-color="#CE1621"/>
<stop offset="1" stop-color="#CE1621"/>
</linearGradient>
<linearGradient id="paint1_linear_3589_2227" x1="0.46213" y1="5.10683" x2="81.8886" y2="52.0053" gradientUnits="userSpaceOnUse">
<stop stop-color="#FFCC3A"/>
<stop offset="0.1429" stop-color="#FFCC3A"/>
<stop offset="0.2225" stop-color="#FDB826"/>
<stop offset="0.2948" stop-color="#FBAC1B"/>
<stop offset="0.35" stop-color="#FAA818"/>
<stop offset="0.3701" stop-color="#FBAD21"/>
<stop offset="0.4028" stop-color="#FDBA3B"/>
<stop offset="0.444" stop-color="#FFD164"/>
<stop offset="0.45" stop-color="#FFD56A"/>
<stop offset="0.4551" stop-color="#FFD76D"/>
<stop offset="0.4745" stop-color="#FFDD73"/>
<stop offset="0.52" stop-color="#FFDE75"/>
<stop offset="0.63" stop-color="#FDB713"/>
<stop offset="0.9668" stop-color="#FDB713"/>
<stop offset="1" stop-color="#FDB713"/>
</linearGradient>
<linearGradient id="paint2_linear_3589_2227" x1="-7.48686" y1="18.6422" x2="73.9144" y2="65.5262" gradientUnits="userSpaceOnUse">
<stop stop-color="#FFCC3A"/>
<stop offset="0.1648" stop-color="#FFCC3A"/>
<stop offset="0.1886" stop-color="#FEC02A"/>
<stop offset="0.2218" stop-color="#FCB31A"/>
<stop offset="0.2473" stop-color="#FCAF16"/>
<stop offset="0.3626" stop-color="#F47720"/>
<stop offset="1" stop-color="#F47720"/>
</linearGradient>
<clipPath id="clip0_3589_2227">
<rect width="190" height="50" fill="white"/>
</clipPath>
</defs>
</svg>
