<svg width="190" height="49" viewBox="0 0 190 49" fill="none" xmlns="http://www.w3.org/2000/svg">
<path d="M0.181519 21.5316C0.181519 31.3052 10.5428 37.2182 18.5314 39.6691C14.8969 41.5466 13.0632 44.6133 13.3492 48.6156C13.3884 48.9386 13.7106 48.9748 13.8912 48.7243C14.7223 47.6437 15.6527 46.9555 16.8783 46.4152C20.0099 45.0449 24.8638 44.3235 30.4073 43.4934C38.0677 42.3374 46.812 41.0063 53.9333 37.6528C60.338 34.6224 66.7427 28.8874 66.7427 21.5316C66.7427 8.90866 49.7629 1.29929 33.4666 1.29929C17.1643 1.29929 0.181519 8.90866 0.181519 21.5316Z" fill="#D6D5D2"/>
<path d="M0.181519 20.4269C0.181519 30.1974 10.5428 36.1135 18.5314 38.5674C14.8969 40.4418 13.0632 43.5055 13.3492 47.5109C13.3884 47.8339 13.7106 47.8701 13.8912 47.6166C14.7223 46.536 15.6527 45.8508 16.8783 45.3075C20.0099 43.9371 24.8638 43.2157 30.4073 42.3887C38.0677 41.2327 46.812 39.8985 53.9333 36.5481C60.338 33.5176 66.7427 27.7827 66.7427 20.4269C66.7427 7.80392 49.7629 0.19455 33.4666 0.19455C17.1643 0.19455 0.181519 7.80392 0.181519 20.4269Z" fill="white"/>
<mask id="mask0_3589_2428" style="mask-type:luminance" maskUnits="userSpaceOnUse" x="3" y="3" width="61" height="34">
<path d="M3.56604 20.4269C3.56604 27.5291 11.9852 34.3447 24.1803 36.6175C33.8942 34.239 48.8204 33.6957 57.1703 29.3311C60.7656 27.4567 63.3552 24.6436 63.3552 20.4269C63.3552 11.0849 49.5039 3.40311 33.4606 3.40311C17.4173 3.40311 3.56604 11.0849 3.56604 20.4269Z" fill="white"/>
</mask>
<g mask="url(#mask0_3589_2428)">
<path d="M18.5164 -22.5521L77.7063 11.7067L48.4079 62.5697L-10.782 28.3139L18.5164 -22.5521Z" fill="url(#paint0_linear_3589_2428)"/>
</g>
<mask id="mask1_3589_2428" style="mask-type:luminance" maskUnits="userSpaceOnUse" x="0" y="0" width="67" height="47">
<path d="M0.831909 20.4269C0.831909 28.2536 8.45912 34.9936 19.4678 38.169C20.4374 37.7374 21.5184 37.3389 22.7409 37.016C10.871 34.3839 2.84636 27.6016 2.84636 20.4269C2.84636 11.266 15.9418 2.75415 33.4636 2.75415C50.9824 2.75415 64.0778 11.266 64.0778 20.4269C64.0778 36.3308 31.2685 33.4452 19.504 38.8179C15.1167 40.801 13.9273 44.1545 13.9273 46.5722C18.2814 41.2327 39.4377 42.6422 53.6834 35.9686C59.9797 32.9773 66.0953 27.4235 66.0953 20.4269C66.0953 9.60591 51.4913 0.843506 33.4666 0.843506C15.4389 0.843506 0.831909 9.60591 0.831909 20.4269Z" fill="white"/>
</mask>
<g mask="url(#mask1_3589_2428)">
<path d="M17.1462 -27.4841L85.8453 12.2742L49.7779 74.8968L-18.9211 35.1385L17.1462 -27.4841Z" fill="url(#paint1_linear_3589_2428)"/>
</g>
<mask id="mask2_3589_2428" style="mask-type:luminance" maskUnits="userSpaceOnUse" x="0" y="20" width="23" height="19">
<path d="M0.831909 20.4268C0.831909 28.2535 8.45912 34.9936 19.4678 38.169C20.4374 37.7373 21.5184 37.3389 22.7409 37.016C10.871 34.3839 2.84636 27.6016 2.84636 20.4268H0.831909Z" fill="white"/>
</mask>
<g mask="url(#mask2_3589_2428)">
<path d="M6.30918 10.9159L30.4043 24.8609L17.2637 47.6769L-6.83142 33.7319L6.30918 10.9159Z" fill="url(#paint2_linear_3589_2428)"/>
</g>
<path d="M24.8969 13.4242H21.2986C20.9764 13.4242 20.871 13.2732 20.871 12.9956V11.106C20.871 10.6774 20.591 10.2247 19.8442 10.2247H19.0734C18.3447 10.2247 18.0677 10.6774 18.0677 11.106V12.9956C18.0677 13.2732 17.9593 13.4242 17.6371 13.4242H14.0388C13.6082 13.4242 13.1836 13.6596 13.1836 14.3267V14.9303C13.1836 15.5944 13.6082 15.8298 14.0388 15.8298H15.8816C14.7885 16.7384 14.099 18.0574 14.099 19.5153C14.099 22.2198 16.4958 24.4534 19.4528 24.4534C22.4097 24.4534 24.8277 22.1564 24.8277 19.473C24.8277 18.0091 24.1532 16.7203 23.0782 15.8298H24.8939C25.3215 15.8298 25.7491 15.5914 25.7491 14.9303V14.3267C25.7551 13.6596 25.3245 13.4242 24.8969 13.4242ZM19.4588 22.0507C18.0466 22.0507 16.9114 20.8917 16.9114 19.5183C16.9114 18.0997 18.0466 16.9617 19.4588 16.9617C20.874 16.9617 22.0303 18.0363 22.0303 19.4972C22.0273 20.8675 20.871 22.0507 19.4588 22.0507Z" fill="white"/>
<path d="M32.6084 16.9919H30.2086C29.9315 16.9919 29.778 16.8802 29.778 16.5603V11.6222C29.778 11.1936 29.501 10.7438 28.7512 10.7438H27.9803C27.2516 10.7438 26.9746 11.1936 26.9746 11.6222V28.815C26.9746 29.2466 27.2546 29.6963 27.9803 29.6963H28.7512C29.501 29.6963 29.778 29.2466 29.778 28.815V19.9107C29.778 19.5908 29.9285 19.4821 30.2086 19.4821H32.6084C33.036 19.4821 33.4606 19.2014 33.4606 18.5373V17.9367C33.4606 17.2666 33.036 16.9919 32.6084 16.9919Z" fill="white"/>
<path d="M49.5671 22.6937H38.0736C37.5166 22.6937 37.2155 22.9744 37.2155 23.5509V27.6891C37.2155 29.0987 38.3236 29.9137 39.9074 29.9137H47.7364C49.3202 29.9137 50.4253 29.0987 50.4253 27.6891V23.5509C50.4223 22.9714 50.1212 22.6937 49.5671 22.6937ZM47.6189 27.1005C47.6189 27.4235 47.4684 27.5291 47.1914 27.5291H40.4524C40.1724 27.5291 40.0218 27.4235 40.0218 27.1005V25.5279C40.0218 25.205 40.1694 25.0993 40.4524 25.0993H47.1914C47.4684 25.0993 47.6189 25.205 47.6189 25.5279V27.1005Z" fill="white"/>
<path d="M49.3955 10.5899H48.6247C47.896 10.5899 47.619 11.0427 47.619 11.4713V18.3925C46.6765 18.8301 45.7701 19.0233 43.2799 19.0233H37.5708C37.2938 19.0233 37.1432 18.9177 37.1432 18.5947V17.825C37.1432 17.505 37.2938 17.3964 37.5708 17.3964H43.6322C44.1923 17.3964 44.4904 17.1157 44.4904 16.5361V12.1142C44.4904 11.5347 44.1893 11.257 43.6322 11.257H35.1529C34.7223 11.257 34.2947 11.4954 34.2947 12.1595V12.6937C34.2947 13.3608 34.7223 13.5962 35.1529 13.5962H41.2775C41.5545 13.5962 41.7081 13.7019 41.7081 14.0248V14.6466C41.7081 14.9696 41.5575 15.0752 41.2775 15.0752H35.2191C34.662 15.0752 34.3609 15.356 34.3609 15.9355V19.0897C34.3609 20.4993 35.2462 21.3656 37.1011 21.3656H43.2618C45.7912 21.3656 46.7698 21.0668 47.619 20.611V21.0637C47.619 21.4923 47.896 21.9451 48.6247 21.9451H49.3955C50.1453 21.9451 50.4223 21.4923 50.4223 21.0637V11.4713C50.4223 11.0396 50.1453 10.5899 49.3955 10.5899Z" fill="white"/>
<path d="M105.881 19.1652H95.8092C95.4479 19.1652 95.2702 19.3433 95.2702 19.7085V23.6626C95.2702 24.2753 95.4358 24.7311 95.764 25.0239C96.0953 25.3257 96.6764 25.4676 97.5045 25.4676H104.28C105.108 25.4676 105.686 25.3227 106.017 25.0239C106.348 24.7341 106.514 24.2783 106.514 23.6626V19.799C106.514 19.3765 106.303 19.1652 105.881 19.1652ZM104.37 23.246C104.37 23.5026 104.237 23.6294 103.972 23.6294H97.7755C97.5376 23.6294 97.4171 23.5026 97.4171 23.246V21.4048C97.4171 21.2479 97.4443 21.1422 97.4954 21.0909C97.5496 21.0336 97.64 21.0064 97.7755 21.0064H103.972C104.105 21.0064 104.204 21.0336 104.27 21.0909C104.337 21.1422 104.37 21.2479 104.37 21.4048V23.246ZM105.881 8.72756H104.999C104.581 8.72756 104.367 8.93885 104.367 9.3584V15.4827C103.587 15.8661 102.443 16.0623 100.925 16.0623H95.5382C95.3094 16.0623 95.1949 15.9294 95.1949 15.6638V14.7583C95.1949 14.5199 95.3154 14.3961 95.5533 14.3961H100.958C101.38 14.3961 101.591 14.1848 101.591 13.7653V9.80815C101.591 9.38859 101.377 9.1773 100.958 9.1773H93.5177C93.1564 9.1773 92.9757 9.35539 92.9757 9.72061V10.4601C92.9757 10.8223 93.1564 11.0004 93.5177 11.0004H99.0673C99.3051 11.0004 99.4256 11.1211 99.4256 11.3626V12.1957C99.4256 12.3527 99.3955 12.4583 99.3352 12.5126C99.272 12.5639 99.1817 12.5911 99.0642 12.5911H93.6593C93.2377 12.5911 93.0269 12.8024 93.0269 13.2219V16.0743C93.0269 16.6871 93.1925 17.1428 93.5238 17.4386C93.852 17.7345 94.4331 17.8824 95.2612 17.8824H100.901C101.621 17.8824 102.271 17.8341 102.846 17.7375C103.421 17.6409 103.927 17.4718 104.358 17.2334V17.828C104.358 18.2476 104.569 18.4619 104.99 18.4619H105.872C106.291 18.4619 106.505 18.2506 106.505 17.828V9.35539C106.514 8.93885 106.303 8.72756 105.881 8.72756ZM140.392 12.41H138.537C138.263 12.41 138.125 12.2742 138.125 11.9935V9.34029C138.125 8.92074 137.914 8.70945 137.492 8.70945H136.61C136.189 8.70945 135.978 8.92074 135.978 9.34029V17.3028C135.978 17.5322 136.008 17.7043 136.071 17.8099C136.131 17.9216 136.267 17.9729 136.484 17.9729H137.492C137.914 17.9729 138.125 17.7616 138.125 17.3421V14.6859C138.125 14.4082 138.263 14.2724 138.537 14.2724H140.392C140.753 14.2724 140.934 14.0912 140.934 13.729V12.9533C140.934 12.5911 140.753 12.41 140.392 12.41ZM136.529 18.9146C136.128 18.5524 135.653 18.2657 135.108 18.0574C134.56 17.8431 133.981 17.7405 133.367 17.7405C132.756 17.7405 132.178 17.8461 131.636 18.0574C131.094 18.2657 130.624 18.5524 130.223 18.9146C129.82 19.2769 129.501 19.7085 129.269 20.2065C129.034 20.7076 128.917 21.2448 128.917 21.8244C128.917 22.413 129.034 22.9593 129.269 23.4603C129.501 23.9584 129.82 24.39 130.223 24.7492C130.627 25.1114 131.094 25.3951 131.636 25.6004C132.178 25.8026 132.756 25.9083 133.367 25.9083C133.981 25.9083 134.56 25.8026 135.108 25.6004C135.653 25.3951 136.128 25.1144 136.529 24.7492C136.932 24.39 137.248 23.9614 137.483 23.4603C137.718 22.9593 137.833 22.413 137.833 21.8244C137.833 21.2448 137.718 20.7076 137.483 20.2065C137.248 19.7085 136.929 19.2769 136.529 18.9146ZM135.526 22.6786C135.409 22.9502 135.246 23.1887 135.041 23.3909C134.837 23.5962 134.599 23.7562 134.322 23.8708C134.042 23.9855 133.744 24.0399 133.421 24.0399C133.096 24.0399 132.798 23.9825 132.521 23.8708C132.244 23.7562 132 23.5962 131.792 23.3909C131.582 23.1857 131.416 22.9502 131.298 22.6786C131.175 22.4099 131.115 22.1172 131.115 21.8032C131.115 21.4893 131.175 21.1935 131.298 20.9189C131.416 20.6412 131.582 20.4027 131.792 20.2035C132.003 20.0043 132.244 19.8503 132.521 19.7356C132.798 19.6209 133.096 19.5636 133.421 19.5636C133.744 19.5636 134.045 19.6209 134.322 19.7356C134.599 19.8503 134.837 20.0043 135.041 20.2035C135.246 20.4027 135.409 20.6412 135.526 20.9189C135.65 21.1966 135.71 21.4924 135.71 21.8032C135.71 22.1172 135.65 22.4099 135.526 22.6786ZM131.121 16.8108C131.669 16.6056 132.142 16.3218 132.545 15.9627C132.952 15.6004 133.265 15.1688 133.503 14.6708C133.734 14.1697 133.852 13.6264 133.852 13.0378C133.852 12.4583 133.734 11.921 133.503 11.42C133.265 10.9219 132.949 10.4903 132.545 10.1281C132.145 9.76589 131.669 9.48216 131.121 9.27389C130.576 9.05958 129.998 8.95394 129.383 8.95394C128.769 8.95394 128.194 9.05958 127.652 9.27389C127.11 9.48216 126.643 9.76891 126.237 10.1281C125.836 10.4903 125.517 10.9219 125.282 11.42C125.047 11.921 124.93 12.4583 124.93 13.0378C124.93 13.6294 125.047 14.1697 125.282 14.6708C125.517 15.1688 125.836 15.6004 126.237 15.9627C126.643 16.3249 127.11 16.6056 127.652 16.8108C128.194 17.0161 128.769 17.1187 129.383 17.1187C129.998 17.1187 130.576 17.0161 131.121 16.8108ZM127.806 14.6074C127.595 14.4021 127.429 14.1667 127.312 13.8951C127.191 13.6264 127.128 13.3336 127.128 13.0197C127.128 12.7058 127.188 12.413 127.312 12.1383C127.429 11.8607 127.595 11.6222 127.806 11.423C128.016 11.2238 128.257 11.0698 128.537 10.9551C128.811 10.8404 129.112 10.7801 129.435 10.7801C129.76 10.7801 130.061 10.8404 130.335 10.9551C130.612 11.0698 130.853 11.2238 131.055 11.423C131.259 11.6222 131.422 11.8607 131.542 12.1383C131.663 12.413 131.723 12.7088 131.723 13.0197C131.723 13.3336 131.666 13.6264 131.542 13.8951C131.422 14.1667 131.259 14.4021 131.055 14.6074C130.853 14.8126 130.612 14.9696 130.335 15.0873C130.061 15.202 129.76 15.2564 129.435 15.2564C129.112 15.2564 128.811 15.199 128.537 15.0873C128.26 14.9696 128.016 14.8126 127.806 14.6074ZM172.512 15.8208H169.531C169.766 15.3861 169.934 14.8911 170.028 14.3206C170.124 13.7472 170.175 13.1012 170.175 12.3798V9.87455C170.175 9.45499 169.961 9.2437 169.543 9.2437H159.416C159.058 9.2437 158.877 9.42481 158.877 9.784V10.5597C158.877 10.9219 159.058 11.1 159.416 11.1H167.616C167.896 11.1 168.031 11.2389 168.031 11.5135V12.3919C168.031 13.892 167.839 15.03 167.459 15.8148H157.516C157.158 15.8148 156.977 15.9928 156.977 16.352V17.1308C156.977 17.493 157.158 17.6741 157.516 17.6741H163.557C163.686 17.6741 163.789 17.7013 163.852 17.7556C163.915 17.8099 163.951 17.9156 163.951 18.0725V24.9394C163.951 25.3619 164.159 25.5732 164.581 25.5732H165.463C165.881 25.5732 166.092 25.3619 166.092 24.9394V18.0725C166.092 17.9156 166.125 17.8099 166.192 17.7556C166.258 17.7043 166.357 17.6741 166.49 17.6741H172.509C172.867 17.6741 173.048 17.493 173.048 17.1308V16.352C173.051 15.9989 172.87 15.8208 172.512 15.8208ZM174.731 18.6702C174.815 18.9146 174.981 19.0505 175.219 19.0475C175.285 19.0475 175.366 19.0354 175.445 19.0112C176.685 18.6309 177.775 18.1419 178.721 17.5594C179.663 16.9799 180.446 16.2826 181.058 15.4616C181.091 15.4224 181.121 15.4103 181.142 15.4103C181.166 15.4103 181.193 15.4193 181.223 15.4616C181.84 16.2796 182.62 16.9799 183.566 17.5594C184.514 18.145 185.604 18.6309 186.839 19.0112C186.923 19.0354 186.998 19.0475 187.071 19.0475H187.077C187.309 19.0475 187.48 18.9146 187.565 18.6702L187.851 17.8944C187.878 17.8129 187.896 17.7284 187.896 17.656V17.653C187.896 17.6499 187.899 17.6469 187.899 17.6409C187.899 17.5684 187.884 17.502 187.854 17.4417C187.796 17.3149 187.676 17.2153 187.507 17.1549C186.706 16.9134 185.99 16.6237 185.348 16.2766C184.71 15.9294 184.168 15.534 183.716 15.0873C183.277 14.6406 182.93 14.1395 182.69 13.5842C182.443 13.0318 182.319 12.4221 182.319 11.755V10.9974C182.319 10.5688 182.093 10.3424 181.666 10.3424H180.624C180.196 10.3424 179.964 10.5688 179.964 10.9974V11.755C179.964 12.4251 179.841 13.0348 179.6 13.5842C179.353 14.1395 179.01 14.6406 178.564 15.0873C178.119 15.534 177.574 15.9294 176.938 16.2766C176.3 16.6237 175.58 16.9134 174.785 17.1549C174.611 17.2153 174.493 17.3119 174.436 17.4417C174.409 17.502 174.394 17.5684 174.394 17.6409C174.394 17.7224 174.409 17.8069 174.436 17.8944L174.731 18.6702ZM188.646 21.9361H182.554C182.545 21.9361 182.53 21.933 182.521 21.933C182.512 21.933 182.503 21.933 182.503 21.933L182.485 21.927C182.476 21.927 182.467 21.924 182.455 21.921C182.394 21.9089 182.358 21.8908 182.325 21.8636C182.271 21.8244 182.238 21.7218 182.241 21.5738V18.9478C182.241 18.5162 182.012 18.2898 181.581 18.2898H180.735C180.311 18.2898 180.082 18.5162 180.082 18.9478V21.5738C180.082 21.7248 180.046 21.8214 179.992 21.8636C179.937 21.9119 179.844 21.9361 179.712 21.9361H173.725C173.355 21.9361 173.156 22.1383 173.156 22.5065V23.2823C173.156 23.6505 173.355 23.8497 173.725 23.8497H188.649C189.016 23.8497 189.215 23.6505 189.215 23.2823V22.5065C189.212 22.1383 189.013 21.9361 188.646 21.9361ZM146.264 18.4076C146.767 18.4076 147.251 18.323 147.706 18.154C148.164 17.985 148.576 17.7526 148.941 17.4568C149.106 17.3209 149.26 17.176 149.401 17.0191H152.933C153.204 17.0191 153.343 17.1549 153.343 17.4326V20.4299C153.343 20.8494 153.557 21.0637 153.975 21.0637H154.858C155.279 21.0637 155.49 20.8525 155.49 20.4299V9.30709C155.49 8.88753 155.282 8.67625 154.858 8.67625H153.975C153.557 8.67625 153.343 8.88753 153.343 9.30709V10.6865C153.343 10.9642 153.204 11.103 152.933 11.103H149.368C149.227 10.9491 149.076 10.8012 148.911 10.6714C148.555 10.3816 148.146 10.1553 147.697 9.99528C147.248 9.83229 146.77 9.75381 146.264 9.75381C145.674 9.75381 145.126 9.86549 144.614 10.0919C144.105 10.3183 143.656 10.6231 143.274 11.0125C142.885 11.3988 142.584 11.8576 142.361 12.3889C142.139 12.9141 142.027 13.4815 142.027 14.0943C142.027 14.6979 142.139 15.2684 142.361 15.7966C142.584 16.3249 142.885 16.7837 143.274 17.173C143.656 17.5594 144.105 17.8642 144.614 18.0846C145.126 18.2989 145.674 18.4076 146.264 18.4076ZM152.933 12.9594C153.204 12.9594 153.343 13.0982 153.343 13.3729V14.7432C153.343 15.0209 153.204 15.1567 152.933 15.1567H150.386C150.392 15.1175 150.401 15.0752 150.407 15.036C150.627 13.7502 150.392 13.0378 150.392 13.0378C150.389 13.0107 150.377 12.9865 150.368 12.9594H152.933ZM144.138 14.0279C144.138 13.6958 144.192 13.3789 144.301 13.0891C144.409 12.7933 144.556 12.5458 144.749 12.3345C144.942 12.1202 145.171 11.9542 145.424 11.8365C145.683 11.7248 145.963 11.6614 146.264 11.6614C146.577 11.6614 146.863 11.7218 147.128 11.8365C147.393 11.9542 147.616 12.1202 147.806 12.3345C147.989 12.5458 148.14 12.7933 148.248 13.0891C148.354 13.3789 148.411 13.6958 148.411 14.0279C148.411 14.375 148.357 14.6949 148.248 14.9968C148.14 15.2926 147.992 15.5491 147.806 15.7634C147.616 15.9747 147.393 16.1438 147.128 16.2675C146.863 16.3882 146.574 16.4486 146.264 16.4486C145.966 16.4486 145.686 16.3882 145.424 16.2675C145.171 16.1468 144.942 15.9747 144.749 15.7634C144.556 15.5491 144.409 15.2926 144.301 14.9968C144.192 14.6979 144.138 14.378 144.138 14.0279ZM155.749 23.7079H147.152C147.02 23.7079 146.92 23.6807 146.851 23.6294C146.788 23.575 146.752 23.4664 146.752 23.3124V20.6231C146.752 20.2005 146.544 19.9892 146.122 19.9892H145.237C144.815 19.9892 144.608 20.2035 144.608 20.6231V23.7652C144.608 24.3779 144.77 24.8337 145.099 25.1325C145.427 25.4253 146.011 25.5732 146.839 25.5732H155.743C156.104 25.5732 156.282 25.3921 156.282 25.0299V24.2572C156.288 23.889 156.11 23.7079 155.749 23.7079ZM123.569 15.8208H108.607C108.245 15.8208 108.068 15.9989 108.068 16.3581V16.8984C108.068 17.2606 108.245 17.4417 108.607 17.4417H114.605C114.861 17.4507 114.993 17.5865 114.993 17.8522V18.1691C114.791 18.2144 114.596 18.2687 114.403 18.3442C113.882 18.5404 113.43 18.8181 113.048 19.1712C112.666 19.5274 112.358 19.9469 112.133 20.4269C111.901 20.9068 111.789 21.4259 111.789 21.9753C111.789 22.5428 111.904 23.0649 112.133 23.5418C112.358 24.0248 112.666 24.4383 113.048 24.7854C113.43 25.1356 113.882 25.4102 114.403 25.6064C114.927 25.8056 115.487 25.9022 116.089 25.9022C116.676 25.9022 117.23 25.8026 117.763 25.6064C118.29 25.4072 118.745 25.1356 119.127 24.7854C119.513 24.4383 119.817 24.0248 120.046 23.5418C120.269 23.0619 120.389 22.5397 120.389 21.9753C120.389 21.4259 120.269 20.9068 120.046 20.4269C119.817 19.9469 119.513 19.5274 119.127 19.1712C118.745 18.8181 118.29 18.5404 117.763 18.3442C117.574 18.2747 117.381 18.2174 117.185 18.1751V17.8552C117.185 17.5896 117.315 17.4537 117.571 17.4447H123.569C123.93 17.4447 124.108 17.2606 124.108 16.9014V16.3611C124.108 15.9989 123.93 15.8208 123.569 15.8208ZM117.634 20.4902C117.824 20.6744 117.974 20.8947 118.086 21.1483C118.191 21.3988 118.245 21.6735 118.245 21.9602C118.245 22.25 118.191 22.5216 118.086 22.7722C117.974 23.0227 117.821 23.243 117.634 23.4302C117.444 23.6173 117.218 23.7622 116.962 23.8739C116.7 23.9825 116.423 24.0338 116.125 24.0338C115.836 24.0338 115.562 23.9825 115.303 23.8739C115.044 23.7622 114.822 23.6203 114.629 23.4302C114.436 23.243 114.283 23.0227 114.171 22.7722C114.057 22.5216 113.999 22.25 113.999 21.9602C113.999 21.6735 114.057 21.3988 114.171 21.1483C114.286 20.8977 114.436 20.6744 114.629 20.4902C114.822 20.3031 115.044 20.1582 115.303 20.0496C115.562 19.9439 115.836 19.8835 116.125 19.8835C116.42 19.8835 116.7 19.9409 116.962 20.0496C117.218 20.1552 117.444 20.3031 117.634 20.4902ZM110.019 15.0149C110.1 15.2322 110.269 15.3529 110.501 15.3499C110.573 15.3499 110.651 15.3378 110.735 15.3197C111.973 14.9968 113.042 14.5832 113.942 14.0852C114.831 13.5872 115.547 13.065 116.089 12.5096C116.628 13.0529 117.342 13.5721 118.233 14.0641C119.133 14.5682 120.199 14.9847 121.44 15.3197C121.527 15.3378 121.6 15.3499 121.672 15.3499H121.678C121.91 15.3499 122.069 15.2322 122.157 15.0088L122.485 14.3025C122.518 14.221 122.533 14.1456 122.533 14.0701C122.533 14.0037 122.521 13.9433 122.491 13.886C122.434 13.7622 122.313 13.6807 122.142 13.6355C120.573 13.231 119.486 12.7873 118.634 12.1836C118.272 11.9271 117.998 11.6584 117.791 11.3717C117.727 11.2721 117.721 11.2026 117.73 11.1483C117.742 11.0608 117.842 11.0427 117.875 11.0366H121.292C121.654 11.0366 121.837 10.8585 121.837 10.4963V9.71759C121.837 9.35538 121.654 9.17428 121.292 9.17428H110.889C110.528 9.17428 110.347 9.35538 110.347 9.71759V10.4963C110.347 10.8616 110.531 11.0366 110.889 11.0366H114.352C114.385 11.0427 114.484 11.0608 114.496 11.1483C114.505 11.2057 114.499 11.2781 114.427 11.3868C114.222 11.6675 113.948 11.9301 113.596 12.1806C112.741 12.7843 111.609 13.237 110.04 13.6445C109.868 13.6868 109.745 13.7713 109.688 13.8951C109.66 13.9494 109.645 14.0158 109.645 14.0822C109.645 14.1516 109.66 14.2301 109.694 14.3086L110.019 15.0149ZM90.9522 14.3508H89.0974C88.8113 14.3508 88.6818 14.2271 88.6818 13.9373V9.38255C88.6818 8.95092 88.4831 8.74869 88.0525 8.74869H87.1672C86.7336 8.74869 86.5349 8.95092 86.5349 9.38255V24.6587C86.5349 25.0933 86.7336 25.2925 87.1672 25.2925H88.0525C88.4861 25.2925 88.6818 25.0933 88.6818 24.6587V16.6327C88.6818 16.34 88.8113 16.2162 89.0974 16.2162H90.9522C91.3136 16.2162 91.4942 16.017 91.4942 15.6759V14.8972C91.4942 14.55 91.3136 14.3508 90.9522 14.3508ZM84.5716 11.5135H81.2895C81.0004 11.5135 80.874 11.3868 80.874 11.097V9.25276C80.874 8.81811 80.6782 8.6189 80.2416 8.6189H79.3052C78.8746 8.6189 78.6728 8.81811 78.6728 9.25276V11.097C78.6728 11.3868 78.5494 11.5135 78.2573 11.5135H74.9782C74.6168 11.5135 74.4362 11.7128 74.4362 12.0538V12.7782C74.4362 13.1223 74.6138 13.3185 74.9782 13.3185H76.9444C75.9718 14.0611 75.3395 15.199 75.3395 16.5211C75.3395 18.8694 77.3419 20.6412 79.7779 20.6412C82.2139 20.6412 84.2133 18.8694 84.2133 16.5211C84.2133 15.199 83.584 14.0611 82.5903 13.3185H84.5746C84.936 13.3185 85.1136 13.1193 85.1136 12.7782V12.0568C85.1106 11.7128 84.93 11.5135 84.5716 11.5135ZM79.7719 18.7999C78.4922 18.7999 77.4623 17.7888 77.4623 16.4848C77.4623 15.1839 78.4891 14.1697 79.7719 14.1697C81.0516 14.1697 82.0814 15.1839 82.0814 16.4848C82.0814 17.7858 81.0516 18.7999 79.7719 18.7999Z" fill="#ED1B28"/>
<path d="M161.765 34.5741C162.292 35.3377 163.102 35.7241 164.165 35.7241C164.879 35.7241 165.746 35.54 166.279 35.2804C166.399 35.22 166.435 35.1627 166.426 35.0359L166.372 34.4503C166.366 34.3598 166.309 34.3085 166.219 34.3085C166.195 34.3085 166.161 34.3115 166.131 34.3205C165.294 34.6344 164.641 34.6797 164.328 34.6797C163.641 34.6797 163.123 34.4292 162.783 33.9342C162.494 33.5116 162.346 32.917 162.346 32.2016C162.346 30.6109 163.024 29.6843 164.213 29.6601C164.234 29.6601 164.255 29.6601 164.276 29.6601C164.776 29.6601 165.418 29.7869 166.038 30.0072C166.065 30.0223 166.095 30.0284 166.125 30.0284C166.207 30.0284 166.27 29.971 166.279 29.8895L166.333 29.3221C166.342 29.1953 166.306 29.1349 166.186 29.0776C165.634 28.8059 164.831 28.6309 164.138 28.6309C163.253 28.6369 162.539 28.9055 162.024 29.4338C161.705 29.7567 161.467 30.1793 161.31 30.6773C161.172 31.1391 161.1 31.6583 161.112 32.2227C161.118 32.8747 161.241 33.8165 161.765 34.5741Z" fill="#ED1B28"/>
<path d="M180.23 35.2894L180.199 34.722C180.199 34.6224 180.139 34.5892 180.082 34.5892C179.959 34.5892 179.736 34.7522 179.236 34.7522C178.691 34.7522 178.585 34.5288 178.585 33.9463V31.5346H179.793C179.943 31.5346 180.019 31.4531 180.019 31.2991V30.8192C180.019 30.6622 179.943 30.5838 179.793 30.5838H178.585V29.1561C178.585 29.0474 178.528 28.984 178.438 28.984C178.387 28.984 177.875 29.0897 177.715 29.1198C177.532 29.1561 177.483 29.2526 177.483 29.47V30.5868H176.926C176.845 30.5868 176.7 30.62 176.7 30.8222V31.3021C176.7 31.5074 176.845 31.5376 176.926 31.5376H177.483V34.1455C177.483 35.0932 177.733 35.7241 178.944 35.7241C179.416 35.7241 179.853 35.6396 180.13 35.4947C180.226 35.4554 180.239 35.389 180.23 35.2894Z" fill="#ED1B28"/>
<path d="M175.942 35.7241C176.17 35.7241 176.291 35.6275 176.291 35.4313V32.5578C176.291 31.9239 176.188 31.4832 175.969 31.1633C175.692 30.7679 175.237 30.5717 174.575 30.5717C174.111 30.5717 173.566 30.7769 173.108 31.121V30.9399C173.108 30.7437 172.997 30.6471 172.762 30.6471H172.355C172.123 30.6471 172.009 30.7407 172.009 30.9399V35.4313C172.009 35.6275 172.126 35.7241 172.355 35.7241H172.762C172.991 35.7241 173.108 35.6275 173.108 35.4313V31.9813C173.409 31.7579 173.894 31.5919 174.27 31.5919C174.921 31.5919 175.186 31.8968 175.186 32.6333V35.4313C175.186 35.6275 175.303 35.7241 175.535 35.7241H175.942Z" fill="#ED1B28"/>
<path d="M108.676 33.5569C108.67 33.904 108.601 34.2119 108.468 34.4805C108.336 34.7461 108.155 34.9725 107.935 35.1536C107.712 35.3377 107.453 35.4736 107.164 35.5702C106.872 35.6667 106.562 35.715 106.231 35.7211C106.035 35.7211 105.842 35.7211 105.653 35.7181C105.46 35.7181 105.279 35.709 105.105 35.6999C104.93 35.6879 104.773 35.6788 104.632 35.6637C104.49 35.6486 104.373 35.6305 104.28 35.6154C104.138 35.5852 104.018 35.549 103.915 35.5098C103.81 35.4705 103.723 35.4162 103.653 35.3498C103.584 35.2834 103.53 35.2019 103.494 35.1053C103.458 35.0057 103.439 34.885 103.439 34.7371V29.5213C103.439 29.3794 103.451 29.2617 103.47 29.1651C103.488 29.0685 103.521 28.987 103.566 28.9297C103.611 28.8663 103.671 28.818 103.75 28.7818C103.825 28.7456 103.921 28.7154 104.036 28.6912C104.31 28.6369 104.599 28.6007 104.906 28.5796C105.213 28.5614 105.532 28.5554 105.86 28.5614C106.219 28.5735 106.553 28.6158 106.863 28.6912C107.176 28.7637 107.447 28.8784 107.676 29.0293C107.908 29.1802 108.089 29.3794 108.218 29.6209C108.351 29.8593 108.414 30.1491 108.414 30.4842C108.414 30.7407 108.36 30.9852 108.236 31.2176C108.119 31.45 107.953 31.6523 107.739 31.8304C108.056 31.9934 108.293 32.2318 108.453 32.5427C108.604 32.8506 108.682 33.1917 108.676 33.5569ZM107.279 30.5113C107.279 30.3212 107.227 30.1702 107.125 30.0525C107.023 29.9378 106.896 29.8473 106.74 29.7839C106.586 29.7205 106.43 29.6782 106.261 29.6571C106.092 29.636 105.945 29.6239 105.806 29.6239C105.71 29.6239 105.604 29.6269 105.487 29.633C105.373 29.639 105.258 29.645 105.144 29.6571C105.029 29.6662 104.924 29.6782 104.822 29.6933C104.716 29.7084 104.632 29.7205 104.563 29.7326V31.4259H106.318C106.622 31.4259 106.857 31.3384 107.026 31.1663C107.194 30.9882 107.279 30.7709 107.279 30.5113ZM107.544 33.5569C107.55 33.3667 107.523 33.2037 107.456 33.0649C107.393 32.9291 107.303 32.8174 107.188 32.7329C107.071 32.6514 106.938 32.591 106.791 32.5487C106.64 32.5095 106.487 32.4884 106.321 32.4884H104.566V34.5228C104.825 34.5711 105.087 34.6073 105.358 34.6284C105.629 34.6495 105.878 34.6556 106.11 34.6405C106.306 34.6345 106.49 34.6073 106.664 34.559C106.839 34.5077 106.987 34.4413 107.116 34.3507C107.243 34.2632 107.345 34.1545 107.423 34.0187C107.498 33.8889 107.538 33.735 107.544 33.5569Z" fill="#ED1B28"/>
<path d="M109.805 29.5786H110.013C110.284 29.5786 110.446 29.4337 110.446 29.1923V28.9085C110.446 28.6641 110.284 28.5222 110.013 28.5222H109.805C109.513 28.5222 109.35 28.658 109.35 28.9085V29.1923C109.35 29.4428 109.513 29.5786 109.805 29.5786Z" fill="#ED1B28"/>
<path d="M109.703 35.6577H110.106C110.338 35.6577 110.452 35.5581 110.452 35.3649V30.8735C110.452 30.6773 110.341 30.5838 110.106 30.5838H109.703C109.468 30.5838 109.35 30.6773 109.35 30.8735V35.3649C109.35 35.5581 109.468 35.6577 109.703 35.6577Z" fill="#ED1B28"/>
<path d="M114.686 33.1162C114.686 34.1787 114.274 34.7431 113.497 34.7431C112.717 34.7431 112.307 34.1787 112.307 33.1162C112.307 32.0507 112.717 31.4863 113.497 31.4863C114.274 31.4863 114.686 32.0507 114.686 33.1162ZM113.494 30.5053C112.118 30.5053 111.139 31.4349 111.139 33.1162C111.139 34.7914 112.121 35.7241 113.497 35.7241C114.873 35.7241 115.851 34.7914 115.851 33.1162C115.851 31.4349 114.873 30.5053 113.494 30.5053Z" fill="#ED1B28"/>
<path d="M167.908 33.4452C167.914 33.572 167.938 33.7078 167.98 33.8466C168.022 33.9885 168.092 34.1153 168.188 34.23C168.287 34.3477 168.417 34.4443 168.585 34.5288C168.754 34.6103 168.968 34.6616 169.23 34.6797C169.293 34.6858 169.374 34.6918 169.483 34.6918C169.588 34.6918 169.712 34.6797 169.856 34.6586C169.998 34.6375 170.16 34.5982 170.344 34.5409C170.531 34.4835 170.726 34.396 170.946 34.2903C171.061 34.227 171.151 34.227 171.211 34.2813C171.271 34.3356 171.301 34.4171 171.301 34.5288V35.0148C171.301 35.1174 171.283 35.1898 171.25 35.2291C171.214 35.2683 171.148 35.3075 171.055 35.3528C170.88 35.4313 170.702 35.4977 170.531 35.549C170.356 35.6003 170.19 35.6396 170.025 35.6667C169.862 35.6939 169.706 35.712 169.564 35.718C169.419 35.7211 169.299 35.7271 169.194 35.7271C168.712 35.6909 168.317 35.5852 168.007 35.4072C167.697 35.2291 167.45 35.0148 167.27 34.7612C167.086 34.5077 166.953 34.233 166.878 33.9402C166.797 33.6414 166.755 33.3577 166.749 33.083C166.737 32.6997 166.779 32.3374 166.872 31.9964C166.965 31.6583 167.11 31.3625 167.309 31.1059C167.507 30.8464 167.757 30.6502 168.064 30.5083C168.366 30.3634 168.727 30.294 169.139 30.3C169.474 30.303 169.781 30.3725 170.061 30.4962C170.338 30.62 170.582 30.795 170.781 31.0154C170.982 31.2387 171.133 31.5074 171.235 31.8273C171.338 32.1443 171.386 32.5004 171.383 32.8958C171.374 32.9985 171.365 33.086 171.35 33.1554C171.335 33.2249 171.307 33.2822 171.262 33.3245C171.22 33.3667 171.166 33.3969 171.097 33.415C171.03 33.4331 170.943 33.4422 170.835 33.4422H167.908V33.4452ZM169.139 31.3052C168.92 31.3052 168.736 31.3414 168.582 31.4108C168.432 31.4832 168.308 31.5708 168.212 31.6794C168.119 31.7881 168.049 31.9119 168.004 32.0447C167.959 32.1775 167.932 32.3103 167.929 32.4401H170.275C170.26 32.3042 170.235 32.1714 170.196 32.0326C170.157 31.8968 170.097 31.773 170.013 31.6674C169.931 31.5617 169.82 31.4742 169.681 31.4048C169.537 31.3384 169.356 31.3052 169.139 31.3052Z" fill="#ED1B28"/>
<path d="M120.552 35.6396C120.516 35.6939 120.413 35.7211 120.242 35.7211H119.832C119.651 35.7211 119.549 35.6939 119.519 35.6396C119.486 35.5852 119.474 35.4826 119.474 35.3287V29.7295C119.474 29.5424 119.495 29.3885 119.537 29.2708C119.579 29.1561 119.636 29.0625 119.715 28.9931C119.79 28.9206 119.883 28.8723 119.992 28.8391C120.103 28.8089 120.224 28.7848 120.359 28.7667C120.627 28.7335 120.901 28.7154 121.19 28.7003C121.473 28.6882 121.765 28.6852 122.057 28.6912C122.41 28.6973 122.738 28.7425 123.042 28.8331C123.346 28.9146 123.611 29.0474 123.84 29.2225C124.069 29.4036 124.249 29.6269 124.388 29.9016C124.523 30.1793 124.602 30.5083 124.608 30.8886C124.617 31.1271 124.59 31.3444 124.523 31.5436C124.46 31.7428 124.373 31.9209 124.258 32.0869C124.144 32.2529 124.018 32.3978 123.87 32.5216C123.725 32.6453 123.572 32.751 123.415 32.8264L124.957 35.2592C125.041 35.3981 125.059 35.5128 125.011 35.5943C124.963 35.6728 124.873 35.715 124.74 35.715H124.063C123.978 35.715 123.906 35.6879 123.849 35.6365C123.792 35.5852 123.741 35.5249 123.695 35.4585L122.253 33.1071C122.118 33.1192 121.973 33.1222 121.819 33.1192C121.666 33.1162 121.512 33.1102 121.359 33.1071C121.208 33.1011 121.064 33.092 120.934 33.08C120.805 33.0679 120.693 33.0558 120.603 33.0468V35.3226C120.606 35.4826 120.588 35.5883 120.552 35.6396ZM123.482 30.9007C123.482 30.7075 123.436 30.5385 123.352 30.4026C123.262 30.2668 123.144 30.1551 123.003 30.0646C122.858 29.9771 122.699 29.9107 122.527 29.8684C122.355 29.8261 122.178 29.802 122.003 29.7929C121.913 29.7929 121.801 29.7929 121.666 29.7929C121.53 29.7929 121.398 29.796 121.265 29.802C121.13 29.808 121.003 29.8171 120.88 29.8322C120.76 29.8442 120.669 29.8563 120.609 29.8684V31.9179C120.732 31.942 120.907 31.9692 121.136 31.9933C121.368 32.0205 121.672 32.0296 122.06 32.0175C122.241 32.0115 122.419 31.9783 122.593 31.9239C122.768 31.8696 122.918 31.7941 123.051 31.7006C123.183 31.607 123.286 31.4893 123.367 31.3534C123.439 31.2176 123.482 31.0667 123.482 30.9007Z" fill="#ED1B28"/>
<path d="M126.192 33.4452C126.195 33.572 126.219 33.7078 126.261 33.8466C126.303 33.9885 126.375 34.1153 126.472 34.23C126.571 34.3477 126.701 34.4443 126.869 34.5288C127.038 34.6103 127.252 34.6616 127.514 34.6797C127.574 34.6858 127.661 34.6918 127.766 34.6918C127.869 34.6918 127.995 34.6797 128.137 34.6586C128.281 34.6375 128.447 34.5982 128.628 34.5409C128.811 34.4835 129.01 34.396 129.227 34.2903C129.344 34.227 129.432 34.227 129.492 34.2813C129.555 34.3356 129.585 34.4171 129.585 34.5288V35.0148C129.585 35.1174 129.57 35.1898 129.534 35.2291C129.501 35.2683 129.435 35.3075 129.338 35.3528C129.164 35.4313 128.989 35.4977 128.814 35.549C128.64 35.6003 128.474 35.6396 128.308 35.6667C128.143 35.6939 127.989 35.712 127.848 35.718C127.703 35.7211 127.583 35.7271 127.477 35.7271C126.996 35.6909 126.601 35.5852 126.291 35.4072C125.981 35.2291 125.734 35.0148 125.55 34.7612C125.37 34.5077 125.237 34.233 125.159 33.9402C125.081 33.6414 125.038 33.3577 125.029 33.083C125.017 32.6997 125.059 32.3374 125.153 31.9964C125.249 31.6583 125.394 31.3625 125.592 31.1059C125.791 30.8464 126.041 30.6502 126.345 30.5083C126.649 30.3634 127.011 30.294 127.423 30.3C127.757 30.303 128.062 30.3725 128.342 30.4962C128.622 30.62 128.86 30.795 129.064 31.0154C129.266 31.2387 129.417 31.5074 129.522 31.8273C129.624 32.1443 129.673 32.5004 129.667 32.8958C129.66 32.9985 129.651 33.086 129.633 33.1554C129.618 33.2249 129.588 33.2822 129.546 33.3245C129.504 33.3667 129.45 33.3969 129.38 33.415C129.311 33.4331 129.224 33.4422 129.115 33.4422H126.192V33.4452ZM127.423 31.3052C127.2 31.3052 127.017 31.3414 126.866 31.4108C126.716 31.4832 126.589 31.5708 126.496 31.6794C126.402 31.7881 126.333 31.9119 126.288 32.0447C126.237 32.1775 126.213 32.3103 126.21 32.4401H128.555C128.543 32.3042 128.516 32.1714 128.477 32.0326C128.438 31.8968 128.375 31.773 128.296 31.6674C128.212 31.5617 128.101 31.4742 127.962 31.4048C127.821 31.3384 127.64 31.3052 127.423 31.3052Z" fill="#ED1B28"/>
<path d="M136.008 33.4452C136.014 33.572 136.041 33.7078 136.083 33.8466C136.125 33.9885 136.198 34.1153 136.291 34.23C136.39 34.3477 136.52 34.4443 136.689 34.5288C136.857 34.6103 137.071 34.6616 137.333 34.6797C137.393 34.6858 137.474 34.6918 137.583 34.6918C137.691 34.6918 137.815 34.6797 137.956 34.6586C138.098 34.6375 138.263 34.5982 138.444 34.5409C138.628 34.4835 138.829 34.396 139.046 34.2903C139.164 34.227 139.251 34.227 139.311 34.2813C139.374 34.3356 139.402 34.4171 139.402 34.5288V35.0148C139.402 35.1174 139.386 35.1898 139.35 35.2291C139.317 35.2683 139.254 35.3075 139.155 35.3528C138.98 35.4313 138.802 35.4977 138.631 35.549C138.459 35.6003 138.29 35.6396 138.125 35.6667C137.962 35.6939 137.809 35.712 137.664 35.718C137.52 35.7211 137.396 35.7271 137.294 35.7271C136.815 35.6909 136.417 35.5852 136.107 35.4072C135.797 35.2291 135.55 35.0148 135.367 34.7612C135.183 34.5077 135.053 34.233 134.978 33.9402C134.894 33.6414 134.855 33.3577 134.849 33.083C134.837 32.6997 134.879 32.3374 134.972 31.9964C135.065 31.6583 135.213 31.3625 135.412 31.1059C135.607 30.8464 135.857 30.6502 136.165 30.5083C136.469 30.3634 136.827 30.294 137.24 30.3C137.577 30.303 137.881 30.3725 138.164 30.4962C138.444 30.62 138.685 30.795 138.884 31.0154C139.085 31.2387 139.239 31.5074 139.341 31.8273C139.447 32.1443 139.495 32.5004 139.489 32.8958C139.483 32.9985 139.471 33.086 139.456 33.1554C139.441 33.2249 139.414 33.2822 139.371 33.3245C139.329 33.3667 139.275 33.3969 139.206 33.415C139.14 33.4331 139.049 33.4422 138.941 33.4422H136.008V33.4452ZM137.24 31.3052C137.023 31.3052 136.833 31.3414 136.685 31.4108C136.529 31.4832 136.408 31.5708 136.315 31.6794C136.219 31.7881 136.15 31.9119 136.104 32.0447C136.059 32.1775 136.032 32.3103 136.026 32.4401H138.372C138.36 32.3042 138.333 32.1714 138.293 32.0326C138.254 31.8968 138.194 31.773 138.113 31.6674C138.028 31.5617 137.92 31.4742 137.782 31.4048C137.64 31.3384 137.459 31.3052 137.24 31.3052Z" fill="#ED1B28"/>
<path d="M151.277 31.3474C150.832 31.3655 150.485 31.5225 150.233 31.8122C149.977 32.102 149.85 32.5035 149.85 33.0166C149.85 33.2369 149.874 33.4422 149.925 33.6323C149.974 33.8255 150.052 33.9945 150.163 34.1455C150.272 34.2964 150.413 34.4171 150.594 34.5077C150.775 34.5982 150.997 34.6526 151.265 34.6707C151.753 34.7009 152.265 34.565 152.798 34.2692C152.903 34.2119 152.988 34.2028 153.063 34.2421C153.135 34.2783 153.171 34.3568 153.171 34.4805V34.9755C153.171 35.0872 153.156 35.1627 153.129 35.2079C153.099 35.2532 153.033 35.3015 152.927 35.3498C152.84 35.389 152.735 35.4373 152.605 35.4826C152.479 35.5279 152.34 35.5702 152.19 35.6094C152.033 35.6486 151.877 35.6818 151.708 35.6999C151.542 35.7211 151.374 35.7301 151.211 35.7241C150.747 35.706 150.359 35.6154 150.043 35.4555C149.727 35.2925 149.468 35.0902 149.269 34.8397C149.07 34.5892 148.932 34.3024 148.844 33.9855C148.76 33.6686 148.718 33.3456 148.718 33.0166C148.718 32.6423 148.769 32.2892 148.874 31.9602C148.983 31.6281 149.142 31.3353 149.359 31.0939C149.576 30.8494 149.841 30.6532 150.163 30.5113C150.482 30.3664 150.859 30.297 151.289 30.297C151.413 30.297 151.542 30.3061 151.681 30.3212C151.822 30.3393 151.961 30.3634 152.096 30.3966C152.235 30.4268 152.364 30.46 152.491 30.5023C152.614 30.5415 152.729 30.5838 152.831 30.626C152.915 30.6683 152.976 30.7075 153.009 30.7437C153.042 30.78 153.06 30.8494 153.06 30.955V31.45C153.06 31.5346 153.045 31.5979 153.018 31.6432C152.991 31.6855 152.958 31.7126 152.918 31.7247C152.879 31.7398 152.834 31.7398 152.786 31.7308C152.738 31.7217 152.693 31.7066 152.65 31.6825C152.401 31.5587 152.145 31.4712 151.889 31.4199C151.636 31.3625 151.428 31.3414 151.277 31.3474Z" fill="#ED1B28"/>
<path d="M155.05 35.4343V31.9813C155.345 31.7579 155.833 31.5949 156.21 31.5949C156.863 31.5949 157.125 31.8968 157.125 32.6363V35.4343C157.125 35.6275 157.242 35.7241 157.474 35.7241H157.878C158.113 35.7241 158.227 35.6275 158.227 35.4343V32.5578C158.227 31.3052 157.809 30.5747 156.511 30.5747C156.047 30.5747 155.502 30.78 155.047 31.121V28.652C155.047 28.4588 154.933 28.3652 154.698 28.3652H154.292C154.057 28.3652 153.942 28.4588 153.942 28.652V35.4313C153.942 35.6245 154.06 35.7211 154.292 35.7211H154.698C154.933 35.7241 155.05 35.6275 155.05 35.4343Z" fill="#ED1B28"/>
<path d="M132.497 32.6272C131.934 32.4702 131.446 32.3284 131.446 31.9813C131.446 31.6402 131.792 31.45 132.428 31.45C132.798 31.45 133.328 31.5527 133.807 31.7157C133.921 31.7489 134.042 31.7006 134.069 31.5889C134.099 31.4138 134.126 31.2237 134.144 31.0667C134.159 30.958 134.099 30.8675 133.972 30.8192C133.593 30.6683 132.958 30.5173 132.404 30.5173C131.133 30.5173 130.329 31.0425 130.329 32.0386C130.329 33.1343 131.308 33.3848 132.163 33.6535C132.557 33.7772 133.226 33.9342 133.226 34.3145C133.226 34.6284 132.882 34.7703 132.301 34.7703C131.696 34.7703 130.934 34.6043 130.6 34.4986C130.552 34.4835 130.516 34.4775 130.483 34.4775C130.398 34.4775 130.344 34.5258 130.335 34.6073L130.257 35.1657C130.239 35.2834 130.302 35.3739 130.431 35.4192C130.868 35.5701 131.576 35.7241 132.193 35.7241C133.587 35.7241 134.382 35.1415 134.382 34.2632C134.373 33.5086 133.921 33.0377 132.497 32.6272Z" fill="#ED1B28"/>
<path d="M144.487 34.7341C144.322 34.6737 144.322 34.6375 144.322 34.0459V32.3978C144.322 31.7428 144.165 31.275 143.846 30.9731C143.518 30.6683 143.003 30.5204 142.277 30.5204C141.753 30.5204 141.024 30.6321 140.699 30.7588C140.504 30.8343 140.47 30.9309 140.479 31.0637L140.516 31.5164C140.54 31.6704 140.645 31.7096 140.814 31.6734C141.115 31.5949 141.579 31.4953 142.021 31.4953C142.816 31.4953 143.223 31.6251 143.223 32.3374V32.6544C142.726 32.6031 142.253 32.5517 141.862 32.5517C140.669 32.5517 140.061 33.1041 140.061 34.1968C140.061 35.1325 140.525 35.7271 141.615 35.7271C142.304 35.7271 142.762 35.543 143.265 35.2442C143.467 35.5822 143.719 35.7271 144.114 35.7271C144.346 35.7271 144.593 35.6516 144.593 35.4434V34.9242C144.596 34.8035 144.575 34.7673 144.487 34.7341ZM141.994 34.8457C141.503 34.8457 141.229 34.6224 141.229 34.1274C141.229 33.5569 141.449 33.3697 142.096 33.3697C142.334 33.3697 142.699 33.409 143.199 33.4995V34.5107C142.696 34.7401 142.301 34.8457 141.994 34.8457Z" fill="#ED1B28"/>
<path d="M147.923 30.5838C147.724 30.5838 147.044 30.6381 146.49 31.3414V30.9399C146.49 30.7437 146.375 30.6502 146.14 30.6502H145.734C145.499 30.6502 145.385 30.7437 145.385 30.9399V35.4313C145.385 35.6275 145.502 35.7241 145.734 35.7241H146.14C146.369 35.7241 146.49 35.6275 146.49 35.4313V32.3193C146.694 32.0296 147.038 31.6523 147.649 31.6523C147.83 31.6523 148.01 31.6975 148.167 31.6975C148.354 31.6975 148.354 31.601 148.354 31.4832V30.9248C148.354 30.632 148.293 30.5838 147.923 30.5838Z" fill="#ED1B28"/>
<path d="M181.777 33.4452C181.783 33.572 181.807 33.7078 181.849 33.8466C181.892 33.9885 181.964 34.1153 182.06 34.23C182.157 34.3477 182.292 34.4443 182.458 34.5288C182.626 34.6103 182.84 34.6616 183.102 34.6797C183.162 34.6858 183.244 34.6918 183.352 34.6918C183.457 34.6918 183.584 34.6797 183.725 34.6586C183.867 34.6375 184.03 34.5982 184.216 34.5409C184.397 34.4835 184.599 34.396 184.815 34.2903C184.93 34.227 185.017 34.227 185.08 34.2813C185.144 34.3356 185.171 34.4171 185.171 34.5288V35.0148C185.171 35.1174 185.156 35.1898 185.12 35.2291C185.086 35.2683 185.023 35.3075 184.924 35.3528C184.749 35.4313 184.575 35.4977 184.4 35.549C184.225 35.6003 184.057 35.6396 183.894 35.6667C183.728 35.6939 183.575 35.712 183.43 35.718C183.289 35.7211 183.165 35.7271 183.06 35.7271C182.578 35.6909 182.184 35.5852 181.874 35.4072C181.563 35.2291 181.317 35.0148 181.136 34.7612C180.952 34.5077 180.823 34.233 180.744 33.9402C180.666 33.6414 180.621 33.3577 180.615 33.083C180.606 32.6997 180.645 32.3374 180.738 31.9964C180.832 31.6583 180.979 31.3625 181.178 31.1059C181.377 30.8464 181.627 30.6502 181.931 30.5083C182.235 30.3634 182.596 30.294 183.009 30.3C183.346 30.303 183.65 30.3725 183.93 30.4962C184.207 30.62 184.448 30.795 184.65 31.0154C184.852 31.2387 185.002 31.5074 185.105 31.8273C185.21 32.1443 185.258 32.5004 185.252 32.8958C185.246 32.9985 185.237 33.086 185.222 33.1554C185.207 33.2249 185.18 33.2822 185.135 33.3245C185.092 33.3667 185.038 33.3969 184.969 33.415C184.903 33.4331 184.815 33.4422 184.704 33.4422H181.777V33.4452ZM183.009 31.3052C182.789 31.3052 182.602 31.3414 182.452 31.4108C182.301 31.4832 182.175 31.5708 182.081 31.6794C181.988 31.7881 181.919 31.9119 181.874 32.0447C181.828 32.1775 181.801 32.3103 181.795 32.4401H184.141C184.129 32.3042 184.102 32.1714 184.063 32.0326C184.024 31.8968 183.963 31.773 183.879 31.6674C183.798 31.5617 183.686 31.4742 183.545 31.4048C183.403 31.3384 183.229 31.3052 183.009 31.3052Z" fill="#ED1B28"/>
<path d="M188.51 30.5838C188.311 30.5838 187.634 30.6381 187.074 31.3414V30.9399C187.074 30.7437 186.962 30.6502 186.725 30.6502H186.321C186.086 30.6502 185.975 30.7437 185.975 30.9399V35.4313C185.975 35.6275 186.089 35.7241 186.321 35.7241H186.725C186.959 35.7241 187.074 35.6275 187.074 35.4313V32.3193C187.282 32.0296 187.625 31.6523 188.239 31.6523C188.42 31.6523 188.597 31.6975 188.757 31.6975C188.944 31.6975 188.944 31.601 188.944 31.4832V30.9248C188.944 30.632 188.88 30.5838 188.51 30.5838Z" fill="#ED1B28"/>
<path d="M118.345 33.08C118.537 33.08 118.634 32.9623 118.634 32.7329V32.3284C118.634 32.093 118.534 31.9783 118.345 31.9783H116.827C116.631 31.9783 116.532 32.093 116.532 32.3284V32.7329C116.532 32.9683 116.628 33.08 116.827 33.08H118.345Z" fill="#ED1B28"/>
<path d="M91.2744 29.5877H91.4822C91.7532 29.5877 91.9158 29.4428 91.9158 29.2013V28.9176C91.9158 28.6731 91.7532 28.5343 91.4822 28.5343H91.2744C90.9854 28.5343 90.8228 28.6701 90.8228 28.9176V29.2013C90.8228 29.4519 90.9823 29.5877 91.2744 29.5877Z" fill="#ED1B28"/>
<path d="M90.8228 35.3679C90.8228 35.5611 90.9402 35.6607 91.172 35.6607H91.5755C91.8074 35.6607 91.9218 35.5611 91.9218 35.3679V30.8826C91.9218 30.6864 91.8104 30.5898 91.5755 30.5898H91.172C90.9372 30.5898 90.8228 30.6864 90.8228 30.8826V35.3679Z" fill="#ED1B28"/>
<path d="M76.0201 35.6637H76.4928C76.7217 35.6637 76.8391 35.5641 76.8391 35.3709V32.5548H79.6575V35.3709C79.6575 35.5641 79.775 35.6637 80.0038 35.6637H80.4735C80.7054 35.6637 80.8228 35.5641 80.8228 35.3709V29.0897C80.8228 28.8935 80.7084 28.7969 80.4735 28.7969H80.0038C79.7689 28.7969 79.6575 28.8935 79.6575 29.0897V31.5738H76.8391V29.0897C76.8391 28.8935 76.7247 28.7969 76.4928 28.7969H76.0201C75.7852 28.7969 75.6708 28.8935 75.6708 29.0897V35.3709C75.6738 35.5641 75.7882 35.6637 76.0201 35.6637Z" fill="#ED1B28"/>
<path d="M89.5701 30.5234C89.3744 30.5234 88.6939 30.5777 88.1398 31.281V30.8796C88.1398 30.6834 88.0254 30.5868 87.7936 30.5868H87.3871C87.1522 30.5868 87.0408 30.6834 87.0408 30.8796V35.3649C87.0408 35.5581 87.1582 35.6577 87.3871 35.6577H87.7936C88.0224 35.6577 88.1398 35.5581 88.1398 35.3649V32.256C88.3446 31.9662 88.6909 31.5859 89.2991 31.5859C89.4798 31.5859 89.6605 31.6311 89.817 31.6311C90.0037 31.6311 90.0037 31.5376 90.0037 31.4138V30.8584C90.0037 30.5747 89.9435 30.5234 89.5701 30.5234Z" fill="#ED1B28"/>
<path d="M86.1104 34.7401C85.9418 34.6797 85.9418 34.6435 85.9418 34.0489V32.4008C85.9418 31.7458 85.7852 31.278 85.466 30.9792C85.1378 30.6743 84.6259 30.5234 83.9002 30.5234C83.3733 30.5234 82.6506 30.6351 82.3194 30.7618C82.1237 30.8313 82.0905 30.9309 82.1026 31.0607L82.1387 31.5164C82.1598 31.6704 82.2682 31.7096 82.4368 31.6704C82.744 31.5949 83.2017 31.4923 83.6473 31.4923C84.4422 31.4923 84.8457 31.6221 84.8457 32.3344V32.6544C84.3519 32.6001 83.8761 32.5518 83.4877 32.5518C82.2953 32.5518 81.6901 33.1041 81.6901 34.1938C81.6901 35.1355 82.1508 35.7241 83.2408 35.7241C83.9303 35.7241 84.388 35.54 84.8909 35.2381C85.0896 35.5792 85.3426 35.7241 85.737 35.7241C85.9689 35.7241 86.2188 35.6486 86.2188 35.4434V34.9212C86.2158 34.8065 86.1947 34.7703 86.1104 34.7401ZM83.6172 34.8518C83.1264 34.8518 82.8554 34.6284 82.8554 34.1304C82.8554 33.5599 83.0722 33.3728 83.7226 33.3728C83.9605 33.3728 84.3218 33.415 84.8247 33.5026V34.5167C84.3188 34.7431 83.9213 34.8518 83.6172 34.8518Z" fill="#ED1B28"/>
<path d="M98.1338 31.5346C98.7571 31.5346 98.9619 31.8756 98.9619 32.5759V35.3679C98.9619 35.5611 99.0763 35.6607 99.3082 35.6607H99.7147C99.9465 35.6607 100.061 35.5611 100.061 35.3679V32.4974C100.061 31.2539 99.6755 30.5143 98.441 30.5143C98.0254 30.5143 97.3841 30.6773 96.8149 31.1392C96.4867 30.7196 96.0411 30.5143 95.4449 30.5143C95.0053 30.5143 94.5084 30.7105 94.0778 31.0607V30.8826C94.0778 30.6864 93.9634 30.5898 93.7315 30.5898H93.3281C93.0932 30.5898 92.9788 30.6864 92.9788 30.8826V35.3679C92.9788 35.5611 93.0962 35.6607 93.3281 35.6607H93.7315C93.9634 35.6607 94.0778 35.5611 94.0778 35.3679V31.9179C94.385 31.6674 94.8457 31.5346 95.1438 31.5346C95.7309 31.5346 95.9628 31.8273 95.9628 32.5759V35.3679C95.9628 35.5611 96.0802 35.6607 96.3091 35.6607H96.7156C96.9474 35.6607 97.0619 35.5611 97.0619 35.3679V32.4793C97.0619 32.3435 97.0589 32.096 97.0197 31.927C97.3118 31.7066 97.7966 31.5346 98.1338 31.5346Z" fill="#ED1B28"/>
<defs>
<linearGradient id="paint0_linear_3589_2428" x1="10.1334" y1="6.50754" x2="57.214" y2="33.6242" gradientUnits="userSpaceOnUse">
<stop stop-color="#CE1621"/>
<stop offset="0.05" stop-color="#CE1621"/>
<stop offset="0.1117" stop-color="#D21623"/>
<stop offset="0.1924" stop-color="#DE1925"/>
<stop offset="0.25" stop-color="#ED1B28"/>
<stop offset="0.72" stop-color="#ED1B28"/>
<stop offset="0.7663" stop-color="#E61A27"/>
<stop offset="0.8268" stop-color="#DA1824"/>
<stop offset="0.87" stop-color="#CE1621"/>
<stop offset="1" stop-color="#CE1621"/>
</linearGradient>
<linearGradient id="paint1_linear_3589_2428" x1="0.46213" y1="4.60683" x2="81.8886" y2="51.5053" gradientUnits="userSpaceOnUse">
<stop stop-color="#FFCC3A"/>
<stop offset="0.1429" stop-color="#FFCC3A"/>
<stop offset="0.2225" stop-color="#FDB826"/>
<stop offset="0.2948" stop-color="#FBAC1B"/>
<stop offset="0.35" stop-color="#FAA818"/>
<stop offset="0.3701" stop-color="#FBAD21"/>
<stop offset="0.4028" stop-color="#FDBA3B"/>
<stop offset="0.444" stop-color="#FFD164"/>
<stop offset="0.45" stop-color="#FFD56A"/>
<stop offset="0.4551" stop-color="#FFD76D"/>
<stop offset="0.4745" stop-color="#FFDD73"/>
<stop offset="0.52" stop-color="#FFDE75"/>
<stop offset="0.63" stop-color="#FDB713"/>
<stop offset="0.9668" stop-color="#FDB713"/>
<stop offset="1" stop-color="#FDB713"/>
</linearGradient>
<linearGradient id="paint2_linear_3589_2428" x1="-7.48686" y1="18.1422" x2="73.9144" y2="65.0262" gradientUnits="userSpaceOnUse">
<stop stop-color="#FFCC3A"/>
<stop offset="0.1648" stop-color="#FFCC3A"/>
<stop offset="0.1886" stop-color="#FEC02A"/>
<stop offset="0.2218" stop-color="#FCB31A"/>
<stop offset="0.2473" stop-color="#FCAF16"/>
<stop offset="0.3626" stop-color="#F47720"/>
<stop offset="1" stop-color="#F47720"/>
</linearGradient>
</defs>
</svg>
