<svg width="74" height="74" viewBox="0 0 74 74" fill="none" xmlns="http://www.w3.org/2000/svg">
<path d="M62.9924 17.7604L38.3257 6.78376C37.9282 6.60508 37.4973 6.5127 37.0615 6.5127C36.6257 6.5127 36.1949 6.60508 35.7974 6.78376L11.1307 17.7604C10.5945 18.0014 10.1383 18.3907 9.81599 18.8824C9.49368 19.374 9.31865 19.9476 9.31152 20.5354C9.31152 27.8429 10.6682 53.8354 35.5507 67.1246C36.0194 67.3952 36.5511 67.5377 37.0924 67.5377C37.6336 67.5377 38.1653 67.3952 38.634 67.1246C63.3007 53.8663 65.089 27.9354 65.0582 20.5663C65.0369 19.9448 64.8283 19.3443 64.4596 18.8436C64.0909 18.3428 63.5795 17.9653 62.9924 17.7604ZM49.3332 39.3438H40.0832V48.5938H33.9165V39.3438H24.6665V33.1771H33.9165V23.9271H40.0832V33.1771H49.3332V39.3438Z" fill="white"/>
</svg>
