<svg width="74" height="74" viewBox="0 0 74 74" fill="none" xmlns="http://www.w3.org/2000/svg">
<path d="M59.4866 25.5704L53.1072 31.9498C51.1911 29.7809 48.8593 28.0184 46.2498 26.7667V12.3337H49.3332V6.16699H24.6665V12.3337H27.7498V26.7667C24.0645 28.5189 20.9505 31.2785 18.7679 34.7264C16.5854 38.1744 15.4234 42.1697 15.4165 46.2503C15.4165 58.1489 25.1013 67.8337 36.9998 67.8337C48.8984 67.8337 58.5832 58.1489 58.5832 46.2503C58.5801 43.1244 57.894 40.0369 56.5728 37.2038L63.8464 29.9302L59.4866 25.5704ZM31.863 31.7309L33.9165 31.0063V12.3337H40.0832V31.0063L42.1367 31.7309C44.6348 32.6233 46.8608 34.1444 48.5998 36.1476C50.3389 38.1508 51.5323 40.5683 52.065 43.167H21.9347C22.4674 40.5683 23.6608 38.1508 25.3999 36.1476C27.1389 34.1444 29.3649 32.6233 31.863 31.7309Z" fill="white"/>
</svg>
