<svg width="24" height="24" viewBox="0 0 24 24" fill="none" xmlns="http://www.w3.org/2000/svg">
<path fill-rule="evenodd" clip-rule="evenodd" d="M6.75 3C6.33579 3 6 3.33579 6 3.75V20.25C6 20.6642 6.33579 21 6.75 21H17.25C17.6642 21 18 20.6642 18 20.25V3.75C18 3.33579 17.6642 3 17.25 3H6.75ZM4.5 3.75C4.5 2.50736 5.50736 1.5 6.75 1.5H17.25C18.4926 1.5 19.5 2.50736 19.5 3.75V20.25C19.5 21.4926 18.4926 22.5 17.25 22.5H6.75C5.50736 22.5 4.5 21.4926 4.5 20.25V3.75Z" fill="#21272A"/>
<path fill-rule="evenodd" clip-rule="evenodd" d="M6.75049 5.25C6.75049 4.83579 7.08627 4.5 7.50049 4.5H16.5C16.9142 4.5 17.25 4.83579 17.25 5.25V8.25C17.25 8.66421 16.9142 9 16.5 9H7.50049C7.08627 9 6.75049 8.66421 6.75049 8.25V5.25ZM8.25049 6V7.5H15.75V6H8.25049Z" fill="#21272A"/>
<path d="M7.875 12.75C8.49632 12.75 9 12.2463 9 11.625C9 11.0037 8.49632 10.5 7.875 10.5C7.25368 10.5 6.75 11.0037 6.75 11.625C6.75 12.2463 7.25368 12.75 7.875 12.75Z" fill="#21272A"/>
<path d="M12 12.75C12.6213 12.75 13.125 12.2463 13.125 11.625C13.125 11.0037 12.6213 10.5 12 10.5C11.3787 10.5 10.875 11.0037 10.875 11.625C10.875 12.2463 11.3787 12.75 12 12.75Z" fill="#21272A"/>
<path d="M16.125 12.75C16.7463 12.75 17.25 12.2463 17.25 11.625C17.25 11.0037 16.7463 10.5 16.125 10.5C15.5037 10.5 15 11.0037 15 11.625C15 12.2463 15.5037 12.75 16.125 12.75Z" fill="#21272A"/>
<path d="M7.875 16.5C8.49632 16.5 9 15.9963 9 15.375C9 14.7537 8.49632 14.25 7.875 14.25C7.25368 14.25 6.75 14.7537 6.75 15.375C6.75 15.9963 7.25368 16.5 7.875 16.5Z" fill="#21272A"/>
<path d="M12 16.5C12.6213 16.5 13.125 15.9963 13.125 15.375C13.125 14.7537 12.6213 14.25 12 14.25C11.3787 14.25 10.875 14.7537 10.875 15.375C10.875 15.9963 11.3787 16.5 12 16.5Z" fill="#21272A"/>
<path d="M7.875 20.25C8.49632 20.25 9 19.7463 9 19.125C9 18.5037 8.49632 18 7.875 18C7.25368 18 6.75 18.5037 6.75 19.125C6.75 19.7463 7.25368 20.25 7.875 20.25Z" fill="#21272A"/>
<path d="M12 20.25C12.6213 20.25 13.125 19.7463 13.125 19.125C13.125 18.5037 12.6213 18 12 18C11.3787 18 10.875 18.5037 10.875 19.125C10.875 19.7463 11.3787 20.25 12 20.25Z" fill="#21272A"/>
<path d="M17.25 15.375C17.25 14.7537 16.7463 14.25 16.125 14.25C15.5037 14.25 15 14.7537 15 15.375V19.125C15 19.7463 15.5037 20.25 16.125 20.25C16.7463 20.25 17.25 19.7463 17.25 19.125V15.375Z" fill="#21272A"/>
</svg>
