<svg width="24" height="24" viewBox="0 0 24 24" fill="none" xmlns="http://www.w3.org/2000/svg">
<path d="M18.5 15H5.5" stroke="#21272A" stroke-width="1.5" stroke-linejoin="round"/>
<path d="M16 4H8" stroke="#21272A" stroke-width="1.5" stroke-linecap="round" stroke-linejoin="round"/>
<path d="M9 4.5V10.2602C9 10.7376 8.82922 11.1992 8.51851 11.5617L3.48149 17.4383C3.17078 17.8008 3 18.2624 3 18.7398V19C3 20.1046 3.89543 21 5 21H19C20.1046 21 21 20.1046 21 19V18.7398C21 18.2624 20.8292 17.8008 20.5185 17.4383L15.4815 11.5617C15.1708 11.1992 15 10.7376 15 10.2602V4.5" stroke="#21272A" stroke-width="1.5" stroke-linecap="round" stroke-linejoin="round"/>
<path d="M12 9.01001L12.01 8.9989" stroke="#21272A" stroke-width="1.5" stroke-linecap="round" stroke-linejoin="round"/>
<path d="M11 2.01001L11.01 1.9989" stroke="#21272A" stroke-width="1.5" stroke-linecap="round" stroke-linejoin="round"/>
</svg>
